<?xml version="1.0" standalone="no"?>
<!DOCTYPE svg PUBLIC "-//W3C//DTD SVG 1.1//EN" "http://www.w3.org/Graphics/SVG/1.1/DTD/svg11.dtd" >
<svg xmlns="http://www.w3.org/2000/svg">
<metadata></metadata>
<defs>
<font id="rosamunda_tworegular" horiz-adv-x="606" >
<font-face units-per-em="2048" ascent="1638" descent="-410" />
<missing-glyph horiz-adv-x="530" />
<glyph horiz-adv-x="2048" />
<glyph horiz-adv-x="2048" />
<glyph unicode="&#xd;" horiz-adv-x="2048" />
<glyph unicode=" "  horiz-adv-x="530" />
<glyph unicode="&#x09;" horiz-adv-x="530" />
<glyph unicode="&#xa0;" horiz-adv-x="530" />
<glyph unicode="!" horiz-adv-x="681" d="M20 47q0 35 27 58.5t55 23.5q18 0 30.5 -10t12.5 -33q0 -31 -25.5 -58.5t-53.5 -27.5q-18 0 -32 12.5t-14 34.5zM207 236q0 10 10 24t31 43l639 905q41 59 59.5 79t42.5 20q20 0 34.5 -13.5t14.5 -31.5t-16 -43t-51 -66l-701 -872q-29 -37 -38 -47.5t-17 -10.5t-8 13z " />
<glyph unicode="&#x22;" horiz-adv-x="483" d="M94 827l56 324l20 123q14 59 47 76q16 10 33 10q18 0 26 -6q23 -18 7 -84l-43 -121l-111 -322h-35zM252 834l76 442q16 63 45 82q18 8 33 8q18 2 26 -6q20 -18 4 -80l-41 -125l-108 -319z" />
<glyph unicode="#" horiz-adv-x="833" d="M27 -215l249 448h-110l39 68h108l52 90h-109l37 68h108l242 430h57l-241 -430h106l238 422h63l-237 -422h112l-36 -68h-113l-51 -90h112l-32 -68h-117l-254 -456h-64l254 456h-106l-250 -448h-57zM371 301h106l51 90h-106z" />
<glyph unicode="$" horiz-adv-x="681" d="M-51 -166q0 10 6 20.5t22 30.5l113 140q-41 25 -63.5 53t-22.5 69q0 31 18.5 54.5t47.5 23.5q18 0 30.5 -10t12.5 -27q0 -23 -15.5 -40t-50.5 -25q0 -45 66 -72l264 326q-4 37 -6 76t-2 59q0 66 20.5 117t54 87t76.5 55.5t86 19.5q14 0 36 -2.5t52 -8.5l76 94 q12 14 16.5 19.5t12.5 5.5q16 0 16 -14q0 -4 -6 -11.5t-12 -15.5l-76 -96q27 -25 41 -49.5t14 -61.5q0 -43 -22.5 -73.5t-57.5 -30.5q-41 0 -41 35q0 31 18.5 45t55.5 18q6 10 7 16.5t1 12.5q0 27 -16 40t-27 17l-235 -295q0 -12 2 -35.5t4 -48t3 -47.5t1 -31 q0 -59 -21.5 -109t-59.5 -87t-87 -57.5t-104 -20.5q-23 0 -80 6l-113 -141q-18 -23 -27.5 -32t-19.5 -9q-8 0 -8 10zM141 39q35 -8 58 -8q43 0 78.5 18.5t60 48t39 68.5t14.5 80q0 35 -6 96zM446 553q0 -20 2.5 -40.5t4.5 -39.5l221 279q-18 4 -39 6t-29 2 q-35 0 -63.5 -17.5t-50 -47t-34 -66.5t-12.5 -76z" />
<glyph unicode="%" horiz-adv-x="2009" d="M96 246q0 68 24.5 121t65.5 91t97.5 58.5t117.5 20.5q70 0 156 -28t207 -99q61 -37 94 -46.5t51 -9.5q8 0 27.5 3t48.5 12q6 -31 13.5 -52.5t21.5 -39t38.5 -35t65.5 -41.5q131 -78 235.5 -111t160.5 -33q47 0 89 18.5t72.5 49.5t49 73t18.5 91q0 45 -16.5 85t-46 69.5 t-70.5 47t-90 17.5q-53 0 -98.5 -33t-45.5 -88q0 -14 12.5 -37.5t30.5 -23.5q4 0 10.5 4t10.5 8q23 23 41 22q35 0 35 -34q0 -23 -20.5 -37.5t-51.5 -14.5q-41 0 -71.5 30t-30.5 75q0 72 56 114t132 42q45 0 90 -18.5t79 -52.5t55.5 -79t21.5 -96q0 -61 -26.5 -113.5 t-71 -90.5t-100.5 -60.5t-116 -22.5q-72 0 -157.5 27.5t-200.5 97.5q-68 41 -105.5 51t-56.5 10q-6 0 -18 -2t-51 -18q-2 31 -7.5 52.5t-17.5 38.5t-33.5 34.5t-54.5 38.5q-57 35 -115.5 62.5t-112 47t-99.5 29.5t-79 10q-102 0 -167.5 -65.5t-65.5 -167.5q0 -43 15.5 -81 t43 -66.5t65.5 -46t85 -17.5q59 0 105 34.5t46 88.5q0 23 -14 43t-31 20q-10 0 -32 -14q-20 -14 -35 -14q-12 0 -21.5 10t-9.5 24q0 23 21.5 39.5t50.5 16.5q47 0 75.5 -34t28.5 -81q0 -35 -15.5 -65.5t-41 -52t-59 -34t-70.5 -12.5q-104 0 -171 67.5t-67 172.5zM823 338 q41 -41 56.5 -64.5t25.5 -62.5q23 6 33 7t14 1q16 0 37 -5t68 -17q-29 29 -53.5 54t-36.5 79q-23 -4 -35 -4h-19q-16 0 -35.5 3t-54.5 9z" />
<glyph unicode="&#x26;" horiz-adv-x="1517" d="M180 190q0 53 22.5 104.5t72 106t125 114.5t182.5 134q8 66 15 111t15.5 78.5t19.5 58.5t27 51q39 61 90.5 93t96.5 32q31 0 56.5 -18.5t25.5 -59.5q0 -45 -35 -94t-79 -94t-86 -79t-56 -46q0 -68 12 -160t55 -215q31 39 50.5 63.5t35 44t29.5 36t33 38.5q59 66 104 96.5 t82 30.5q29 0 48.5 -17t19.5 -48q0 -25 -16.5 -42t-41.5 -17q-18 0 -33.5 13t-15.5 34q0 4 4 24q-12 4 -14 4q-12 0 -42 -23.5t-60 -58.5q-16 -16 -32 -34.5t-35 -43t-45 -58.5t-60 -79q47 -123 114.5 -176t139.5 -53q25 0 80 13.5t112 45.5q16 10 33.5 22.5t27.5 12.5 q8 0 9 -12q-1 -14 -54 -43q-78 -45 -135 -62.5t-133 -17.5q-90 0 -148.5 43t-115.5 139q-72 -80 -142.5 -131t-158.5 -51q-90 0 -144.5 56.5t-54.5 133.5zM268 205q0 -61 40 -100t106 -39q76 0 129 34.5t125 110.5q-18 61 -30.5 111.5t-22 98.5t-14.5 96t-7 104 q-152 -100 -239 -211t-87 -205zM664 721q49 31 90 68.5t69.5 74.5t44 72t15.5 61q0 23 -13.5 37.5t-33.5 14.5q-35 0 -70 -29t-53 -70q-12 -29 -20.5 -52.5t-14.5 -49t-9 -56t-5 -71.5z" />
<glyph unicode="'" horiz-adv-x="1820" d="M541 735q0 74 25.5 138.5t70.5 110.5t105.5 72.5t129.5 26.5q51 0 102.5 -20.5t91.5 -56t64.5 -85t24.5 -108.5q0 -45 -10 -85t-40 -90t-86 -118.5t-149 -171.5q25 -10 43.5 -15t35 -9.5t37 -7.5t48.5 -5q66 100 117 172t96 117t88 66.5t92 21.5q39 0 60.5 -18.5 t21.5 -44.5q0 -47 -43 -47q-41 0 -49 43q-4 23 -10 28.5t-21 5.5q-102 0 -315 -340q70 4 120 24.5t116 66.5l18 -17q-59 -53 -133.5 -78.5t-140.5 -25.5q-53 -78 -93 -133.5t-77 -89t-73 -49t-79 -15.5q-49 0 -85 34t-36 87q0 35 17.5 70.5t42 67.5t50 59.5t42.5 45.5 q-104 78 -161.5 167t-57.5 206zM571 739q0 -109 53.5 -196.5t155.5 -153.5q104 111 168 183.5t97.5 125t45 89t11.5 75.5q0 41 -19.5 76t-52.5 61.5t-75 41t-85 14.5q-61 0 -115.5 -23.5t-95.5 -66.5t-64.5 -100.5t-23.5 -125.5zM668 80q0 -20 21 -38.5t56 -18.5 q51 0 117 58t156 204q-31 4 -51.5 7t-38 7t-36 10t-44.5 15q-23 -29 -53.5 -60t-58 -63.5t-48 -63.5t-20.5 -57z" />
<glyph unicode="(" d="M135 -184q0 258 51.5 468t116.5 371q39 94 89 188.5t105.5 180.5t110 162t101.5 135q14 16 36.5 42t46 49.5t42 39.5t22.5 16q8 0 8 -6q0 -10 -14 -29.5t-37 -48.5q-158 -211 -278.5 -419.5t-202.5 -406.5t-123 -381t-41 -341q0 -23 -6 -34t-12 -11q-14 0 -15 25z" />
<glyph unicode=")" d="M-139 -205q0 10 14 29.5t37 48.5q158 211 278.5 420t201.5 406.5t123 381t42 340.5q0 23 6 34t12 11q14 0 15 -24q0 -129 -14.5 -246t-38 -222.5t-53 -198.5t-62.5 -173q-39 -96 -89 -189.5t-105.5 -179.5t-110 -161.5t-101.5 -134.5q-14 -16 -36.5 -42t-46 -49.5 t-42 -40t-22.5 -16.5q-8 0 -8 6z" />
<glyph unicode="*" horiz-adv-x="909" d="M291 1110q0 12 10 24.5t23 12.5q10 0 21 -5t22 -12l65 -38q33 -21 33 -37q0 -14 -23 -15q-4 0 -13 1t-17 6l-78 26q-29 10 -36 19.5t-7 17.5zM297 909q0 14 9 21.5t28 17.5l86 43q16 8 23.5 10.5t11.5 2.5q16 -1 16 -15q0 -12 -31 -35l-69 -55q-14 -12 -23.5 -16 t-19.5 -4q-14 0 -22.5 9t-8.5 21zM469 1223q0 16 11.5 27.5t25.5 11.5q35 0 35 -39q0 -4 -1 -11.5t-3 -21.5l-9 -80q-4 -31 -8 -38t-14 -7t-14.5 9t-8.5 34l-10 80q-2 10 -3 20.5t-1 14.5zM473 827q0 10 2 21.5t4 21.5l8 60q4 47 25 47q16 0 20 -47l5 -60q2 -10 3 -22t1 -21 q0 -23 -6.5 -33t-28.5 -10q-33 0 -33 43zM545 1057q0 16 28 39l68 47q16 10 25.5 15t19.5 5q12 0 21.5 -10.5t9.5 -22.5q0 -16 -13.5 -25t-33.5 -18l-78 -34q-18 -10 -29 -11q-18 0 -18 15zM547 993q0 8 7 12.5t17 4.5q4 0 11.5 -2t13.5 -4l88 -35q18 -8 28.5 -16.5 t10.5 -24.5q0 -18 -10.5 -27.5t-22.5 -9.5q-10 0 -17 4t-20 14l-75 49q-31 18 -31 35z" />
<glyph unicode="+" horiz-adv-x="1630" d="M299 -82l723 709q-59 -37 -105.5 -62.5t-84 -41t-72.5 -22.5t-72 -7q-68 0 -112 37.5t-44 99.5q0 61 32 121.5t83 109.5t111.5 79t120.5 30q45 0 72.5 -20.5t27.5 -59.5q0 -33 -16.5 -52.5t-38.5 -19.5q-35 0 -35 35q0 18 11 29.5t44 27.5q-12 31 -47 31q-49 0 -99 -34 t-92 -82t-69 -103t-27 -98q0 -39 29 -67t82 -28q45 0 118.5 29t190.5 100q27 16 51.5 34t53 42.5t63.5 58t84 85.5l86 88h47l-1048 -1049h-68zM838 133q0 55 26.5 111.5t70.5 101.5t100.5 72.5t117.5 27.5q59 0 93 -28.5t34 -81.5q0 -51 -30 -117t-81 -121 q-47 -51 -99 -75.5t-101 -24.5q-57 0 -94 39t-37 96zM913 117q0 -47 21.5 -65.5t50.5 -18.5q39 0 73 17.5t77 70.5q49 59 75.5 119.5t26.5 97.5q0 35 -22.5 59.5t-53.5 24.5q-29 0 -78 -31t-90 -84q-80 -102 -80 -190z" />
<glyph unicode="," horiz-adv-x="530" d="M-199 -305q0 10 21 24q8 6 35.5 32t64.5 65t77 86t73 96q-16 25 -17 47q0 33 25.5 55.5t52.5 22.5q20 0 34.5 -14.5t14.5 -30.5q0 -23 -29.5 -62t-70.5 -84t-86 -90t-78 -75q-35 -33 -63.5 -61t-38.5 -28q-14 0 -15 17z" />
<glyph unicode="-" horiz-adv-x="681" d="M86 270l39 68h426l-45 -68h-420z" />
<glyph unicode="." horiz-adv-x="530" d="M59 47q0 33 23.5 54.5t46.5 21.5q53 0 53 -45q0 -29 -20.5 -53.5t-48.5 -24.5q-53 0 -54 47z" />
<glyph unicode="/" horiz-adv-x="454" d="M-139 -2l604 788h53l-604 -788h-53z" />
<glyph unicode="0" horiz-adv-x="681" d="M37 145q0 57 28.5 126t75.5 138.5t109.5 136t129 118t134.5 82t127 30.5q47 0 75.5 -29.5t28.5 -76.5q0 -55 -28.5 -126t-76.5 -145.5t-109.5 -146.5t-127 -128t-131 -90t-120.5 -34t-85 40t-30 105zM94 111q0 -41 19.5 -59.5t42.5 -18.5q31 0 67.5 12t80.5 41t96.5 78 t117.5 121q90 98 141.5 201.5t51.5 172.5q0 37 -18.5 59.5t-55.5 22.5q-29 0 -67 -20.5t-83 -55t-94 -81.5t-96 -103q-100 -117 -151.5 -217t-51.5 -153z" />
<glyph unicode="1" horiz-adv-x="417" d="M16 16q0 2 15.5 31t39 71t51.5 88t54 87q41 61 69.5 103t55.5 78t57.5 74t73.5 93q-61 -59 -99 -95t-75 -73q-41 -41 -74.5 -68.5t-44.5 -27.5q-4 0 -8 6t-4 10q0 10 16 21q23 14 61 48t82 76t89 87t82 80q29 25 52 51t38 26q20 0 20 -24q0 -12 -22 -37q-6 -8 -27.5 -37 t-48.5 -67.5t-56.5 -83t-56 -83t-46 -66.5t-23.5 -36q-20 -33 -42 -71.5t-42.5 -78.5t-39 -78t-32.5 -67q-16 -37 -29.5 -45t-42.5 -8q-43 0 -43 16z" />
<glyph unicode="2" horiz-adv-x="720" d="M-16 14q33 57 61.5 95t66.5 71t94 66t142 80q162 86 254 164.5t92 171.5q0 47 -22.5 72.5t-61.5 25.5q0 -111 -49 -193q-47 -78 -111.5 -116.5t-115.5 -38.5q-41 0 -65.5 24.5t-24.5 61.5q0 45 27.5 94t72.5 91t104.5 71.5t120.5 36.5q0 25 -30.5 57.5t-79.5 32.5 q-6 0 -18.5 -3.5t-18.5 -3.5q-8 -2 -21.5 -4t-19.5 -2q-16 0 -16 11q0 31 90 30q74 0 110.5 -37.5t46.5 -80.5q66 -4 114 -44t48 -116q0 -45 -21.5 -85t-55 -74t-75.5 -60.5t-81 -42.5q-104 -47 -182 -85t-135.5 -74t-98.5 -71t-72 -73q68 47 105 65.5t75 18.5 q27 0 46.5 -12.5t36 -27t33 -26.5t38.5 -12q23 0 47.5 21.5t54.5 62.5q23 29 33 42t21 13q14 0 14 -14q0 -12 -12 -28.5t-35 -45.5q-47 -57 -83 -90t-81 -33q-35 0 -56.5 12.5t-39 27.5t-35.5 28.5t-45 13.5q-16 0 -29.5 -4t-31 -14.5t-42 -27t-61.5 -40.5zM272 500 q0 -31 16.5 -44.5t43.5 -13.5q41 0 85 27t91 92q10 12 21.5 37t21.5 50.5t17 49t7 35.5v13.5t-2 17.5q-47 -10 -76.5 -23.5t-70.5 -38.5q-78 -59 -116 -114.5t-38 -87.5z" />
<glyph unicode="3" horiz-adv-x="681" d="M-12 141q0 41 21.5 82t55 73t76.5 52.5t88 20.5q41 0 71 -25t30 -57q0 -33 -14.5 -60.5t-36 -47t-47 -30t-50.5 -10.5t-24 6q0 4 18.5 16.5t42.5 28.5q29 16 50.5 49t21.5 54q0 18 -16.5 31.5t-49.5 13.5q-37 0 -72.5 -17.5t-65.5 -45t-47 -61.5t-17 -69 q0 -47 38.5 -80.5t90.5 -33.5q12 0 33.5 6t48 18.5t56 33t58.5 48.5q72 74 110 134.5t38 86.5q0 10 -2 23.5t-7 30.5q-20 -4 -50.5 -7.5t-39.5 -3.5q-27 0 -56.5 17.5t-29.5 40.5q0 20 23.5 30.5t58.5 10.5q33 0 63.5 -16.5t55.5 -26.5q31 12 65.5 36.5t63.5 55.5t47.5 65.5 t18.5 69.5q0 29 -39 45q-8 -33 -27.5 -66.5t-47.5 -61.5t-62.5 -45t-71.5 -17q-23 0 -44.5 19.5t-21.5 47.5q0 27 23.5 54.5t58.5 51t78 40t82 20.5q0 41 -27.5 61.5t-62.5 20.5q-18 0 -39 -6q-18 -6 -29 -6q-20 0 -20 12t27.5 20.5t62.5 8.5q63 0 91 -29t34 -84 q43 -14 67.5 -43t24.5 -70t-20.5 -78.5t-54.5 -68.5t-77 -52.5t-86 -27.5q18 -31 25.5 -53t7.5 -47q0 -45 -30.5 -110.5t-98.5 -121.5q-72 -59 -129 -78.5t-123 -19.5q-82 0 -136 35t-54 106zM346 459q0 -14 19.5 -21.5t42.5 -7.5q10 0 23 2t34 8q-35 20 -50.5 26.5 t-33.5 6.5q-35 0 -35 -14zM424 608q0 -16 10.5 -26.5t26.5 -10.5q25 0 51.5 15.5t49 40t43 55.5t32.5 59q-53 -6 -83 -18t-46 -23q-47 -33 -65.5 -55t-18.5 -37z" />
<glyph unicode="4" horiz-adv-x="681" d="M53 -6q0 16 31 42.5t78 67.5q12 10 36.5 35t53.5 58.5t57.5 70.5t50.5 72l-88 6q-55 -51 -91 -68.5t-70 -17.5q-49 0 -50 39q0 49 50.5 64.5t142.5 15.5q33 43 69.5 96t69.5 109.5t57.5 110t32.5 93.5q4 23 10.5 31t24.5 8q20 0 34.5 -13t14.5 -32q0 -14 -21.5 -61 t-80.5 -137q-20 -29 -37.5 -53.5t-38 -48t-43 -49t-53.5 -56.5h96q47 70 85 123t76 100t80 95t97 108q57 59 84 80.5t37 21.5q8 0 16 -4t8 -14q0 -6 -5 -12.5t-21 -18.5q-45 -37 -98.5 -91t-107.5 -117.5t-104.5 -132.5t-91.5 -134q72 4 142.5 31.5t113.5 76.5q14 14 25 15 q10 0 10 -12q0 -16 -34.5 -50t-88.5 -59q-41 -20 -81.5 -28.5t-116.5 -14.5q-61 -90 -114.5 -151.5t-93.5 -99.5t-67.5 -59.5t-40.5 -31.5q-20 -16 -30 -16q-14 0 -15 12zM92 307q0 -4 7.5 -9t23.5 -5q10 0 32.5 9t51.5 36q-16 2 -28.5 2h-20.5q-16 0 -41 -9t-25 -24z" />
<glyph unicode="5" horiz-adv-x="681" d="M6 141q0 43 22.5 85t57.5 76t80 55.5t90 21.5q37 0 62.5 -20.5t25.5 -59.5q0 -16 -6 -36.5t-35 -51.5t-55.5 -50.5t-40.5 -19.5q-8 0 -15.5 1t-7.5 5t14.5 14.5t34.5 26.5t45 50t25 61q0 23 -13.5 37t-39.5 14q-35 0 -73 -18.5t-68.5 -48t-51 -65.5t-20.5 -71 q0 -51 39 -84.5t92 -33.5q55 0 115.5 36.5t111.5 92t85 122t34 126.5q0 61 -23.5 83.5t-82.5 22.5q-31 0 -61 -12.5t-40 -12.5q-6 0 -6 7q0 4 16.5 26.5t26.5 38.5l133 191l16.5 22t16.5 14q10 0 10 -12q0 -4 -2 -12t-10 -23q20 8 30.5 10.5t14.5 6.5q35 14 47 19t23 5 q14 0 32.5 -7t46.5 -19q23 -10 37.5 -13.5t24.5 -3.5q8 0 20.5 6.5t23.5 13.5t21.5 13t14.5 6q10 0 10 -14q0 -4 -13.5 -19.5t-56.5 -44.5q-18 -12 -37.5 -16t-37.5 -4q-23 0 -39.5 5t-38.5 22q-23 14 -34 19t-26 5q-39 0 -64.5 -17.5t-41.5 -39.5l-98 -140q27 6 43 8.5 t26 2.5q74 0 112 -49.5t38 -122.5q0 -59 -28 -124t-69 -108q-29 -31 -66.5 -56.5t-78.5 -42.5t-81 -27.5t-73 -10.5q-92 0 -138 41t-46 98z" />
<glyph unicode="6" horiz-adv-x="681" d="M55 137q0 31 9.5 71t35 89t68.5 109.5t111 134.5q111 121 216 182t183 61q53 0 85 -18t32 -61q0 -29 -16.5 -50.5t-47.5 -21.5q-35 0 -35 29q0 31 62 49q0 29 -24.5 40t-53.5 11q-35 0 -80 -23.5t-95 -66.5t-103.5 -104.5t-104.5 -137.5q37 29 64.5 47.5t51 29.5t46 15 t51.5 4q53 0 87 -27t34 -93q0 -70 -42 -143t-105.5 -132t-139.5 -97t-145 -38q-63 0 -103.5 31.5t-40.5 109.5zM111 111q0 -45 22 -63.5t55 -18.5q31 0 87.5 29.5t132.5 109.5q90 94 125.5 158.5t35.5 109.5q0 59 -65 60q-51 0 -119 -43t-129 -103.5t-103 -126t-42 -112.5z " />
<glyph unicode="7" horiz-adv-x="569" d="M23 18q0 12 13 40t34.5 63t46 69.5t47.5 61.5q61 70 120.5 126t118 105t118 93.5t122.5 91.5q-35 2 -54.5 5t-35.5 9q-25 8 -41 17.5t-43 9.5q-45 0 -85 -31t-108 -115q-16 -23 -24 -29t-16 -6q-12 0 -13 13q0 6 19 34l110 164q6 8 11.5 16.5t15.5 8.5t11 -5t1 -16 q12 2 31.5 8.5t41 11.5t41 9t32.5 4q10 0 25.5 -3t47.5 -17q25 -10 39.5 -15.5t26.5 -5.5q16 0 30.5 2t24.5 11q18 8 34.5 17t20.5 9q12 0 13 -10q0 -10 -17.5 -22.5t-31.5 -24.5q-6 -6 -16.5 -15.5t-29 -24.5t-46 -41t-70.5 -63q-68 -59 -121 -104t-100.5 -92t-92.5 -104.5 t-96 -143.5q-27 -45 -44 -72.5t-29.5 -44t-22.5 -22.5t-21 -6q-39 0 -38 34z" />
<glyph unicode="8" horiz-adv-x="645" d="M39 160q0 18 9 43.5t31.5 55.5t62.5 61.5t100 64.5q29 14 68.5 35.5t66.5 38.5q0 76 9 126t44 103q29 47 84 73.5t100 26.5q25 0 43.5 -5t49.5 -19q6 8 14 22.5t17.5 29.5t16.5 31.5t11 31.5q14 53 33 53q10 0 10 -17q0 -8 -7 -29.5t-18.5 -48t-26 -53t-28.5 -43.5 q16 -27 23.5 -41t7.5 -34q0 -18 -8.5 -39t-22.5 -38.5t-34.5 -28.5t-43.5 -11q-20 0 -20 12t26 17q33 4 52.5 33.5t19.5 56.5q0 6 -4 19t-14 22q-37 -47 -65 -79t-53.5 -56.5t-55 -47t-72.5 -51.5v-162q0 -72 -20.5 -131t-54.5 -100t-81 -63.5t-98 -22.5q-80 0 -126 43 t-46 121zM78 143q0 -43 34 -77.5t85 -34.5q88 0 138 68.5t50 170.5v148q-141 -63 -224 -135t-83 -140zM463 520q18 6 46 27.5t60.5 50.5t64.5 64.5t56 72.5q-29 16 -45 20.5t-27 4.5q-29 0 -61.5 -19.5t-50.5 -42.5q-35 -41 -39 -89t-4 -89z" />
<glyph unicode="9" horiz-adv-x="681" d="M-16 82q0 25 17 49.5t46 24.5q31 0 31 -33t-60 -45q4 -29 24.5 -44.5t74.5 -15.5q39 0 91 28t108.5 78t114.5 117.5t108 147.5q-76 -70 -133.5 -104.5t-120.5 -34.5q-55 0 -91 30.5t-36 86.5q0 43 19.5 88t50 87t70.5 78.5t81 67.5q53 39 113.5 61.5t109.5 22.5 q61 0 98 -31.5t37 -105.5q0 -104 -70.5 -215t-203.5 -234q-66 -61 -117 -99t-93 -58.5t-78 -27.5t-69 -7q-55 0 -88.5 23.5t-33.5 64.5zM211 330q0 -29 20.5 -41.5t49.5 -12.5q53 0 124.5 43t136 104.5t108.5 129.5t44 119q0 39 -23.5 55t-56.5 16q-31 0 -73.5 -17 t-89.5 -62q-125 -117 -182.5 -202t-57.5 -132z" />
<glyph unicode=":" horiz-adv-x="530" d="M-25 47q0 29 27 51.5t55 22.5q18 0 31.5 -13.5t13.5 -29.5q0 -29 -26.5 -53.5t-55.5 -24.5q-16 0 -30.5 14.5t-14.5 32.5zM231 391q0 18 9.5 31.5t21.5 23t25.5 14.5t21.5 5q20 0 35.5 -13t15.5 -36q0 -29 -27.5 -55.5t-56.5 -26.5q-45 0 -45 57z" />
<glyph unicode=";" horiz-adv-x="530" d="M-303 -305q0 10 20 24q8 6 36 32t65 65t76.5 86t72.5 96q-16 25 -16 47q0 33 25.5 55.5t52.5 22.5q20 0 34.5 -14.5t14.5 -30.5q0 -23 -30 -62t-70.5 -84t-86 -90t-77.5 -75q-35 -33 -64 -61t-39 -28q-14 0 -14 17zM205 389q0 31 27.5 53.5t48.5 22.5q23 0 38 -15t15 -38 t-22.5 -52.5t-55.5 -29.5q-16 0 -33.5 17.5t-17.5 41.5z" />
<glyph unicode="&#x3c;" horiz-adv-x="909" d="M106 629q0 10 17 20q25 14 61.5 50t79.5 82t86 97.5t80 95.5t62.5 77.5t33.5 46.5q4 66 21.5 107.5t56.5 41.5q14 0 24.5 -11t10.5 -28q0 -16 -12.5 -40.5t-59.5 -61.5q25 -8 43.5 -10t40.5 -2q23 0 58.5 5t60.5 19q12 4 14 4q8 0 9 -8q0 -6 -5.5 -13t-17.5 -19.5 t-32.5 -33t-51.5 -55.5q-49 -53 -91 -106t-75 -99.5t-51 -83t-18 -57.5q0 -35 26 -35q12 0 37 15.5t56.5 40t66.5 56.5t70 67q18 18 31.5 30.5t19.5 12.5q10 0 10 -11q0 -16 -11.5 -26.5t-31.5 -30.5q-25 -29 -59.5 -60.5t-73.5 -58t-77 -45t-69 -18.5t-53 21.5t-22 60.5 q0 82 88 185t233 216q-16 -2 -25.5 -2h-13.5h-20.5t-50.5 4q-4 0 -11.5 1t-23.5 3q-90 -121 -179 -219t-143 -158q-41 -47 -67.5 -63.5t-36.5 -16.5q-14 0 -15 13z" />
<glyph unicode="=" horiz-adv-x="1175" d="M-70 629q0 10 17 20q25 14 61.5 50t79.5 82t86 97.5t80 95.5t62.5 77.5t33.5 46.5q4 66 21.5 107.5t56.5 41.5q14 0 24.5 -11t10.5 -28q0 -16 -12.5 -40.5t-59.5 -61.5q25 -8 43.5 -10t40.5 -2q23 0 58.5 5t60.5 19q12 4 14 4q8 0 8 -8q0 -6 -5 -13t-17 -19.5t-32.5 -33 t-51.5 -55.5q-49 -53 -91 -106t-75 -99.5t-51.5 -83t-18.5 -57.5q0 -35 27 -35q10 0 37 16.5t58.5 41t66.5 53.5t63 55q14 14 50 51t85.5 90.5t105.5 117t112 130.5q0 37 11 67t42 30q14 0 20 -7.5t6 -17.5q0 -14 -8 -29.5t-30 -46.5q53 -76 70.5 -116.5t17.5 -81.5 q0 -115 -81 -206t-222 -159q49 12 95 26.5t92 37t92 55.5t95 82q14 12 23 12q12 0 12 -12q0 -8 -16.5 -25.5t-22.5 -21.5q-111 -92 -212 -135.5t-191 -43.5q-49 0 -86 23t-37 78q0 33 21.5 60.5t54.5 27.5q14 0 24 -8t10 -21q0 -25 -38 -37q-43 -14 -43 -39q0 -18 17 -33.5 t40 -15.5q49 0 99 41t85 90q55 80 82 156t27 129q0 27 -7.5 49.5t-25.5 63.5q-137 -162 -242.5 -271.5t-169.5 -169.5q-66 -59 -119 -86.5t-94 -27.5q-31 0 -53 21.5t-22 60.5q0 82 88 185t233 216q-16 -2 -25.5 -2h-13.5h-20.5t-50.5 4q-4 0 -11.5 1t-23.5 3 q-90 -121 -179.5 -219t-142.5 -158q-41 -47 -67.5 -63.5t-36.5 -16.5q-14 0 -15 13z" />
<glyph unicode="&#x3e;" horiz-adv-x="909" d="M27 643q0 8 15 16.5t38 24.5q20 14 62 50t93.5 84t106.5 101.5t104.5 102.5t87 88t52.5 57q0 41 10 71t41 30q14 0 21.5 -9.5t7.5 -19.5q0 -14 -8.5 -29.5t-32.5 -46.5q53 -76 71.5 -116.5t18.5 -81.5q0 -57 -24.5 -112.5t-66.5 -104t-97.5 -87t-116.5 -61.5 q102 25 196 71t180 130q14 12 21 12q14 0 14 -12q0 -6 -16.5 -23.5t-28.5 -27.5q-119 -98 -219 -136.5t-178 -38.5q-51 0 -88 23t-37 78q0 33 21.5 60.5t56.5 27.5q33 0 33 -29q0 -25 -39 -37q-43 -16 -43 -39q0 -18 18 -33.5t41 -15.5q25 0 51.5 12.5t51 31t46 42 t37.5 47.5q53 78 79 154t26 129q0 27 -6 49.5t-27 63.5q-174 -180 -298 -297t-191 -170q-31 -25 -48.5 -33t-21.5 -8q-14 0 -14 12z" />
<glyph unicode="?" horiz-adv-x="909" d="M106 47q0 41 27 65.5t53 24.5q20 0 33.5 -12t13.5 -35q0 -31 -24.5 -60.5t-56.5 -29.5q-18 0 -32 12.5t-14 34.5zM342 311q0 8 14.5 29.5t24.5 34.5q76 96 136.5 157.5t114.5 105.5t105 82t111 87q41 37 73.5 79t56 85t36 84t12.5 73q0 158 -154 158q-51 0 -113.5 -31.5 t-117.5 -83t-93 -113t-38 -120.5q0 -37 22.5 -63.5t59.5 -26.5t70.5 18.5t62.5 47t52.5 62.5t41.5 66q23 41 34 72t15 31t8.5 -10.5t4.5 -32.5q0 -45 -23.5 -96.5t-62.5 -94.5t-88.5 -71.5t-100.5 -28.5q-59 0 -93 41t-34 94t37 122t115 136q133 115 274 115q90 0 148.5 -50 t58.5 -143q0 -86 -49 -181t-176 -187q-88 -63 -151.5 -103.5t-119 -83.5t-109.5 -98t-126 -149q-10 -10 -16.5 -18.5t-14.5 -8.5t-8 14z" />
<glyph unicode="A" horiz-adv-x="2238" d="M6 569q0 117 58.5 226.5t175.5 193.5q49 35 98 60.5t108.5 45t134 33t173.5 23.5q119 59 225 90t223 31q74 0 136.5 -16.5t108.5 -47t72.5 -78t26.5 -108.5q0 -78 -25.5 -151.5t-71.5 -143.5t-109.5 -134.5t-139.5 -121.5q-160 -123 -331 -190.5t-367 -67.5q-49 0 -87 4 t-104 16q61 -86 137 -125.5t189 -39.5q211 0 428 114.5t463 354.5h-152q-29 0 -28 14q0 18 28 18h183q23 18 70.5 63.5t110 104t133.5 125t137.5 129t123.5 115.5t94 86q156 139 248 201.5t147 62.5q51 0 52 -39q0 -16 -13.5 -41.5t-33.5 -48.5q-14 -18 -50 -65.5 t-81.5 -111t-95.5 -134t-95 -134t-80 -113.5t-49 -71q-82 -123 -145.5 -226t-107.5 -182t-66.5 -130t-22.5 -70q0 -35 27 -35q20 0 52 18.5t68.5 49.5t77.5 69.5t82 79.5t71 72t34 31t4 -6q0 -10 -19.5 -36t-52.5 -61q-37 -41 -87 -88t-100 -88t-97.5 -68.5t-79.5 -27.5 q-39 0 -59.5 27.5t-20.5 64.5q0 45 16 102.5t43 117t58.5 117.5t60.5 108h-215q-86 -90 -151.5 -151.5t-121 -107t-103.5 -77t-99 -58.5q-137 -76 -263 -110.5t-249 -34.5q-78 0 -140.5 12.5t-117 42t-99.5 76.5t-86 115q-53 18 -100 49t-83 72t-57.5 92t-21.5 112zM33 569 q0 -53 17.5 -97t48 -80t71.5 -62.5t86 -46.5q-10 39 -12 61t-2 53q0 86 29.5 181.5t85 189.5t136 182t183.5 160q-113 -10 -219.5 -45t-198.5 -100q-35 -25 -75 -66t-73.5 -93t-55 -112.5t-21.5 -124.5zM270 406q0 -39 5.5 -66t17.5 -68q61 -14 109.5 -21t123.5 -7 q117 0 241 37t230 94q154 80 254.5 173t158.5 181t82 164t24 125q0 109 -85 168t-214 59q-102 0 -195.5 -23.5t-198.5 -70.5q41 -4 104.5 -14.5t114.5 -26.5q31 -10 53.5 -21.5t22.5 -25.5q0 -10 -10 -10q-14 0 -33.5 9t-54.5 19q-41 12 -103.5 22.5t-162.5 14.5 q-111 -66 -200 -150.5t-152.5 -178t-97.5 -192.5t-34 -191zM1726 569h203q180 250 321.5 415t225.5 257q20 23 46 50.5t48.5 51t37.5 42t15 22.5q0 10 -14 10q-25 0 -55.5 -15.5t-65 -39t-68.5 -53t-65 -58.5q-25 -23 -72 -74t-107 -115.5t-127 -138t-129 -141t-113.5 -125 t-80.5 -88.5z" />
<glyph unicode="B" horiz-adv-x="1781" d="M14 807q0 63 17.5 135t52.5 145.5t85 145.5t116 137q57 57 126.5 103.5t143.5 80t148.5 52t142.5 18.5q111 0 175 -27.5t112 -68.5q94 20 170.5 30.5t169.5 10.5q119 0 218 -24.5t171.5 -69.5t112.5 -106.5t40 -135.5q0 -104 -60.5 -199.5t-160.5 -169.5 q-111 -82 -235.5 -123t-286.5 -63q86 -41 138 -108t52 -173q0 -78 -40 -157.5t-105 -130.5q-63 -51 -159.5 -80t-201.5 -29q-37 0 -70.5 3t-72.5 10t-87 20.5t-114 34.5q-109 -37 -179.5 -52.5t-135.5 -15.5q-86 0 -121 16.5t-35 44.5q0 37 52.5 56.5t162.5 19.5 q63 0 109.5 -5t118.5 -17q49 35 92 73.5t92 105t110.5 169t149.5 262.5q106 195 207.5 338t216.5 235q18 14 44 33t50.5 34t43 25.5t24.5 10.5q10 0 10 -12q0 -10 -23.5 -34t-58.5 -71q-57 -82 -95 -135t-66.5 -96t-55.5 -84t-61.5 -100.5t-82.5 -145.5t-122 -219 q-37 -66 -85 -127.5t-101.5 -115.5t-107.5 -97t-103 -68q45 -10 77.5 -17t59 -11.5t49 -6.5t45.5 -2q92 0 167 27t140 84q72 61 115 140t43 151q0 55 -30 107.5t-85 84.5q-37 20 -37 37q0 8 10.5 13.5t38.5 7.5q106 6 219 52t204 117.5t149.5 160.5t58.5 180q0 72 -32.5 123 t-108.5 98q-70 43 -160 66.5t-194 23.5q-63 0 -115.5 -7t-128.5 -22q31 -47 46 -87t15 -85q0 -139 -73.5 -279.5t-221.5 -291.5q-141 -145 -288.5 -231.5t-270.5 -86.5q-98 0 -150 58.5t-52 158.5q0 49 21.5 114t60 134.5t94 139t123.5 129.5q66 57 134 103t145 86t166 78 t200 77q-43 31 -99.5 52t-154.5 21q-137 0 -277.5 -63.5t-257.5 -175.5q-55 -53 -103 -122t-84 -141.5t-57.5 -144.5t-21.5 -129q0 -37 5 -74.5t13 -64.5q4 -10 7.5 -20.5t3.5 -14.5q0 -14 -11 -14q-10 0 -18 19.5t-14.5 47t-9.5 58t-3 53.5zM170 61q0 -32 74 -32q51 0 89 3 t69.5 9t61.5 16.5t66 24.5q-29 8 -50 12t-40.5 7t-43 4t-54.5 1q-96 0 -134 -12t-38 -33zM180 655q0 -92 46 -138t132 -46q111 0 247 72.5t290 232.5q139 143 212 284.5t73 260.5q0 53 -15.5 91t-46.5 85q-74 -20 -159 -53t-171 -76t-167.5 -95t-149.5 -112 q-66 -59 -119 -125.5t-92 -133t-59.5 -131t-20.5 -116.5z" />
<glyph unicode="C" horiz-adv-x="1972" d="M10 1243q0 78 43 143.5t101 100.5q72 45 171 65.5t224 20.5q88 0 173 -10.5t159.5 -28.5t136 -42t104.5 -48q14 -10 34 -22.5t38 -27t30.5 -26.5t12.5 -18q0 -8 -8 -9q-10 0 -31.5 14.5t-50.5 37.5q-84 59 -237.5 106t-350.5 47q-129 0 -219 -18.5t-160 -57.5 q-57 -33 -99 -91t-42 -134q0 -78 64.5 -153.5t168.5 -128.5q59 -31 116.5 -51.5t119 -33t130.5 -17.5t155 -7q51 72 101 131t104.5 112.5t113.5 100.5t133 94q88 55 182.5 102.5t179.5 80t153.5 51t109.5 18.5q78 0 124 -33.5t46 -80.5q0 -43 -31 -91.5t-84 -97.5 t-122.5 -97t-149.5 -91q-84 -45 -160 -78t-159 -58.5t-179 -46t-221 -43.5q-78 -117 -129 -246.5t-51 -250.5q0 -27 3 -49.5t13 -57.5q29 70 70 138.5t87 128t93 107.5t88 79q111 88 239 139t236 51q117 0 173 -59t56 -150q0 -86 -45 -184t-137 -194q-100 -104 -208.5 -167 t-202.5 -81q-47 -53 -89.5 -92t-82 -67t-79.5 -41t-85 -13q-68 0 -115 50t-47 150q0 18 3 40t11 57q-23 37 -40 69.5t-27.5 65.5t-15.5 68.5t-5 78.5q0 121 33 218.5t92 209.5q-86 2 -157.5 9.5t-135 20.5t-122 34.5t-119.5 54.5q-98 53 -163 133t-65 166zM750 10 q0 -78 40 -121t93 -43q70 0 137 39t147 131q-96 -18 -149 -18q-74 0 -133.5 22.5t-122.5 65.5q-6 -27 -9 -43t-3 -33zM784 195q47 -78 116 -117t190 -39q33 0 53 2t55 10q23 29 45.5 69t43 83t37.5 84t30 71q4 10 10 24.5t14 14.5t8 -14t-13 -51t-34.5 -83t-47 -95.5 t-50.5 -92.5q111 41 201 96.5t178 149.5q37 39 67.5 85t53 92t35 91.5t12.5 83.5q0 90 -56.5 136.5t-156.5 46.5q-37 0 -90 -11.5t-110.5 -32t-114 -51t-101.5 -67.5q-78 -66 -133 -122t-98 -113.5t-77 -118t-67 -131.5zM963 868q92 10 175 26.5t163.5 41.5t159.5 57.5 t163 75.5q80 41 150.5 89t124 95t84 92.5t30.5 81.5q0 35 -26.5 58.5t-75.5 23.5q-43 0 -111.5 -25.5t-141.5 -61.5t-140.5 -75.5t-110.5 -66.5q-141 -94 -243.5 -193.5t-200.5 -218.5z" />
<glyph unicode="D" horiz-adv-x="2123" d="M12 813q0 72 24.5 151.5t67.5 157.5t103.5 149.5t132.5 129.5q143 115 314 179.5t358 64.5q106 0 181 -28t146 -85q41 2 66 3t37 1q68 0 125 -6t109.5 -18.5t101.5 -32t102 -43.5q66 45 118 72.5t68 27.5q8 0 9 -6q0 -8 -9 -12q-10 -6 -29.5 -19.5t-41 -30t-44 -33 t-36.5 -28.5q98 -78 150.5 -175t52.5 -233q0 -172 -77 -340t-222 -309q-190 -186 -366.5 -268t-348.5 -82q-37 0 -70 3t-70.5 11.5t-82.5 21.5t-107 34q-63 -23 -110.5 -36.5t-88 -20.5t-81.5 -10t-91 -3q-86 0 -136 15.5t-50 52.5t64.5 61.5t185.5 24.5q33 0 63.5 -2 t62.5 -8.5t66.5 -14.5t79.5 -20q59 33 111.5 75.5t109 107t122 156t149.5 224.5q74 115 129 199.5t101 149t86 114t84 92.5t95.5 86t118.5 96q-68 41 -165 70.5t-220 29.5q-12 0 -33.5 -1t-68.5 -5q29 -55 43 -97t14 -97q0 -141 -75.5 -300t-211.5 -296 q-68 -70 -146.5 -129.5t-159.5 -102.5t-158.5 -67.5t-143.5 -24.5q-131 0 -196.5 69.5t-65.5 180.5q0 63 23.5 139t67.5 155t107.5 155.5t143.5 140.5q96 76 177 126t161 84t165 53t191 36q-70 47 -134 69.5t-161 22.5q-164 0 -334.5 -66.5t-312.5 -183.5 q-63 -51 -120.5 -119.5t-100.5 -143.5t-68.5 -149.5t-25.5 -140.5q0 -53 10 -89t22.5 -58.5t22.5 -35.5t10 -22q0 -8 -8 -8t-17 9.5t-17.5 22.5t-14.5 25.5t-8 18.5q-25 57 -25 133zM248 68q0 -12 30.5 -26.5t122.5 -14.5q45 0 83 4t72 12t67.5 19.5t72.5 25.5 q-78 23 -128 31t-89 8q-109 0 -170 -17.5t-61 -41.5zM285 631q0 -96 65.5 -153.5t169.5 -57.5q55 0 124 18.5t145.5 56t157.5 96t161 138.5q66 68 118 141.5t88 148.5t54 146.5t18 137.5t-16 110.5t-51 87.5q-188 -20 -363.5 -91t-334.5 -204q-78 -66 -140.5 -138.5 t-105.5 -147t-66.5 -148.5t-23.5 -141zM811 88q74 -23 139.5 -38t128.5 -15q72 0 149 24.5t152.5 68.5t148.5 104.5t136 132.5q84 92 148.5 187t109.5 186t67.5 176t22.5 159q0 113 -34.5 182.5t-94.5 122.5q-63 -59 -103 -101t-75 -89t-75 -113.5t-101 -177.5 q-98 -174 -179 -299t-163 -219t-172 -163t-205 -128z" />
<glyph unicode="E" horiz-adv-x="1630" d="M12 1163q0 88 48.5 153.5t127.5 113.5q90 53 221.5 84.5t264.5 31.5q66 0 120 -6t105 -20.5t102.5 -35t108.5 -48.5q102 53 216 88t243 35q90 0 144 -32t54 -85q0 -66 -66.5 -136.5t-162.5 -127.5q-57 -35 -114.5 -63t-123 -53.5t-142.5 -49t-169 -47.5q8 -27 13.5 -38.5 t21.5 -33.5q45 6 75.5 9t65.5 3q86 0 134.5 -12t48.5 -41q0 -23 -34 -41t-89 -18q-43 0 -75 3t-57.5 11t-50 19.5t-53.5 27.5q-121 -37 -212 -86t-169 -129q-74 -78 -118 -168t-44 -168q0 -82 27 -127t72 -82q29 123 98.5 235.5t164.5 196.5t205.5 134.5t221.5 50.5t167 -51 t56 -123q0 -129 -94 -235.5t-244 -190.5q-98 -123 -206.5 -195t-194.5 -72t-131 50.5t-49 125.5q-96 39 -159 114t-63 198q0 86 47.5 177t133.5 165t200.5 124t262.5 83q-16 20 -24.5 30.5t-23.5 30.5q-129 -29 -230 -42t-202 -13q-236 0 -352.5 74.5t-116.5 201.5zM39 1161 q0 -109 114.5 -178.5t325.5 -69.5q129 0 232.5 17.5t189.5 40.5q-10 43 -14 69.5t-4 49.5q0 102 54 180t146 149q-59 27 -105 45.5t-92 29.5t-96.5 15t-113.5 4q-137 0 -254 -25.5t-202 -71.5t-133 -110.5t-48 -144.5zM563 18q0 -63 38 -105t118 -42q145 0 338 205 q-92 -39 -173 -58.5t-169 -19.5q-39 0 -70 4t-82 16zM565 82q31 -12 54.5 -20.5t46 -14.5t46 -8t52.5 -2q94 0 170 24.5t176 71.5q76 121 114 216t46 192q0 16 10 16t10 -31q0 -88 -38 -178t-81 -166q51 39 94.5 84t75 92.5t49 95.5t17.5 91q0 51 -44 95t-130 44 q-106 0 -216 -50t-203 -134t-160.5 -192.5t-88.5 -225.5zM983 993q141 33 278.5 83t249.5 116q47 27 89 59.5t73 64.5t49.5 63.5t18.5 58.5q0 39 -44 66.5t-116 27.5q-41 0 -90 -13.5t-98.5 -36t-96.5 -51t-86 -57.5q10 -10 27.5 -26.5t22.5 -20.5q12 -12 12 -20q0 -6 -6 -7 q-8 0 -21 13q-12 10 -25.5 20t-33.5 23q-59 -53 -99 -102.5t-63 -93.5t-32 -86t-9 -81zM1053 868q49 -31 81.5 -40t88.5 -9q37 0 64.5 9.5t27.5 23.5t-28.5 21.5t-67.5 7.5q-59 0 -107.5 -5.5t-58.5 -7.5z" />
<glyph unicode="F" horiz-adv-x="1669" d="M-2 854q0 47 14.5 113.5t44 138.5t74.5 141.5t107 122.5q139 119 283.5 173t279.5 54q55 0 96 -6t74 -18t62.5 -30.5t62.5 -43.5q84 6 127 8t84 2q72 0 151.5 -6t145.5 -16q51 -10 122.5 -22.5t161.5 -34.5q59 35 129 61.5t164 26.5q49 0 79 -21.5t30 -54.5 q0 -55 -68 -82t-190 -27h-47.5t-41 2t-43 3t-53.5 5q-47 -45 -79.5 -81.5t-67.5 -88t-81 -129t-118 -204.5q-23 -41 -39 -70t-31.5 -53.5t-31 -50t-35.5 -58.5l219 8q4 0 18.5 1t18.5 1q14 0 14 -12q0 -10 -11 -12t-44 -4l-236 -15q-51 -76 -92 -135t-82 -108t-86 -91 t-102 -83q-96 -70 -193.5 -114t-203.5 -44q-51 0 -93 24.5t-42 79.5q0 43 30.5 75t71.5 32q27 0 43 -13.5t16 -35.5q0 -29 -15 -40t-48 -24q-23 -6 -23 -22t24.5 -29.5t65.5 -13.5q57 0 130 45t148 118.5t146.5 169t128.5 197.5l-184 -12h-35q-25 0 -24 12q0 10 12 13.5 t47 7.5l205 16q102 162 177 272.5t139.5 193.5t129 148.5t148.5 133.5q-117 14 -200 24t-143.5 16.5t-103.5 9.5t-80 3h-45.5t-48.5 -4q14 -37 20.5 -63.5t6.5 -73.5q0 -53 -17.5 -117t-52.5 -132.5t-87 -139t-122 -136.5q-125 -121 -240.5 -170t-236.5 -49q-55 0 -100 18.5 t-77 51t-50.5 77t-18.5 97.5q0 68 28 143.5t77 150t116.5 140.5t145.5 113q98 57 223 109t279 75q-57 39 -111.5 58.5t-148.5 19.5q-147 0 -285.5 -59.5t-245 -159t-170 -226.5t-63.5 -262q0 -25 2 -54.5t7 -57t11 -52t15 -39.5q10 -20 10 -30q0 -12 -8 -13q-14 0 -26.5 26 t-22 62.5t-15.5 77.5t-6 72zM215 762q0 -106 65.5 -159.5t170.5 -53.5q123 0 235.5 58t231.5 179q115 115 175 229.5t60 246.5q0 27 -1 44t-5 32.5t-10.5 28.5t-16.5 30q-158 -4 -288 -34t-252 -99q-78 -45 -144.5 -102.5t-116 -124t-77 -136.5t-27.5 -139zM1952 1421 q57 -12 109.5 -19t101.5 -7q39 0 64.5 11t25.5 40q0 18 -17.5 30.5t-46.5 12.5q-84 0 -139 -21.5t-98 -46.5z" />
<glyph unicode="G" horiz-adv-x="1781" d="M6 1106q0 100 48 185t135 146.5t208 96.5t267 35q158 0 285.5 -39t228.5 -105q76 47 159.5 89t169.5 73t169 49.5t157 18.5q94 0 148.5 -43t54.5 -131q0 -53 -30 -122t-85 -141.5t-133 -144.5t-174 -131q-229 -143 -446.5 -208.5t-448.5 -80.5v-39q0 -96 56 -140t153 -44 q70 0 163 36t188 87t182 106.5t145 94.5q14 6 29.5 20t30.5 27.5t29.5 24t24.5 10.5q18 0 19 -19q0 -6 -6.5 -20.5t-14.5 -26.5q-12 -18 -36.5 -60t-57.5 -96.5t-68.5 -112t-68.5 -109.5t-58.5 -90t-35.5 -50q-113 -133 -255.5 -192.5t-308.5 -59.5q-96 0 -163.5 37 t-67.5 117q0 31 11.5 56.5t29.5 44.5t39.5 29.5t40.5 10.5q31 0 48 -15.5t17 -35.5t-15 -34.5t-38 -14.5q-14 0 -32.5 9t-26.5 9q-14 0 -29.5 -18.5t-15.5 -44.5q0 -51 50 -84t120 -33q86 0 188 44t207 126q39 31 75 67.5t75.5 87t85 116t104.5 153.5q-338 -250 -580 -250 q-53 0 -108.5 19.5t-106.5 66.5q-41 39 -57 82t-23 106q-102 2 -216.5 29t-211 80t-160 138t-63.5 208zM31 1110q0 -90 44 -166t126 -133t197.5 -91t258.5 -40q14 98 47 189.5t91.5 179.5t145.5 176t210 182q-94 61 -217 97t-281 36q-133 0 -246.5 -30.5t-197.5 -88 t-131 -136.5t-47 -175zM727 684q86 2 191.5 19.5t219 53.5t232.5 89t236 125q82 51 155.5 116.5t129 135t88 137t32.5 123.5q0 66 -43 105.5t-108 39.5q-117 0 -275 -71.5t-328 -202.5q55 -61 88 -129t33 -160q0 -4 -1 -21.5t-4 -39t-8 -38t-11 -16.5q-10 0 -11 13 q4 39 5.5 53t1.5 31q0 86 -28 154.5t-87 133.5q-92 -70 -177 -148.5t-177 -195.5q-35 -43 -58.5 -80t-40 -71.5t-30 -72.5t-25.5 -83z" />
<glyph unicode="H" horiz-adv-x="2314" d="M2 612q0 66 18.5 119t43 92t48 63.5t33.5 35.5q47 41 80 65.5t43 24.5q12 0 13 -13q0 -10 -16.5 -20t-35.5 -25q-88 -68 -142 -154.5t-54 -191.5q0 -113 63.5 -190.5t171.5 -124.5q-18 66 -22 102.5t-4 75.5q0 119 60 231.5t158.5 201.5t222.5 143.5t251 54.5 q86 0 155.5 -23.5t120 -65.5t77 -100.5t26.5 -126.5q0 -117 -65.5 -230.5t-174.5 -190.5q-201 -147 -512 -148q-39 0 -68.5 1t-56 4t-52.5 7t-56 11q66 -90 156.5 -139.5t224.5 -49.5q84 0 173 23.5t186 77t200.5 137.5t216.5 207h-156q-59 0 -59 16q0 18 22 18l224 -2 q160 180 264 294t172.5 184.5t108.5 108.5t69 63q-76 -23 -140.5 -38.5t-126 -24.5t-124 -14t-133.5 -5q-123 0 -228.5 20.5t-184.5 58t-124 89t-45 112.5q0 70 43 129.5t121 102.5t189.5 67.5t248.5 24.5q111 0 201 -10.5t172 -31t163 -51t173 -71.5q59 -27 82.5 -43 t23.5 -31q0 -8 -8 -8q-6 0 -31 14q-211 115 -409.5 158t-374.5 43q-133 0 -238.5 -22.5t-178.5 -61.5t-110.5 -92t-37.5 -117q0 -55 42 -102t115.5 -80t176 -51.5t223.5 -18.5q156 0 289 27t233 59.5t161.5 59t73.5 26.5q18 0 19 -16q0 -10 -16 -23q-12 -12 -57.5 -52 t-106 -100.5t-131 -136t-133.5 -159.5q-18 -23 -37 -46.5t-43.5 -54t-59.5 -73.5t-88 -107h252q104 127 192.5 225.5t176.5 182.5t184 161t215 160q31 23 56.5 35.5t39.5 12.5t15 -13q0 -29 -39 -58.5t-115 -94.5q-72 -66 -139.5 -132.5t-126 -128t-105 -114.5t-77.5 -92 q-74 -90 -139.5 -181.5t-115 -168t-79 -135t-29.5 -85.5q0 -16 10.5 -22t24.5 -6q33 0 79 24.5t96 62.5t102.5 87t97.5 98q14 14 22 14q10 0 10 -8t-21.5 -30.5t-53.5 -57.5q-47 -49 -101.5 -96t-111 -85t-111.5 -61.5t-102 -23.5q-35 0 -54.5 27.5t-19.5 78.5 q0 72 55.5 175.5t139.5 216.5h-250q-72 -78 -127.5 -136.5t-103.5 -101.5t-94 -75.5t-97 -59.5q-113 -61 -242 -96t-250 -35q-174 0 -297 66.5t-194 189.5q-141 59 -213 147t-72 217zM270 449q0 -43 7.5 -77t25.5 -91q35 -8 64.5 -13.5t58.5 -9.5t61.5 -6t73.5 -2 q143 0 274.5 40t229.5 111.5t156.5 170t58.5 216.5q0 61 -23.5 112.5t-68.5 89.5t-108.5 59.5t-145.5 21.5q-127 0 -247 -51t-218 -143q-90 -86 -144.5 -199t-54.5 -229z" />
<glyph unicode="I" horiz-adv-x="1175" d="M8 182q0 33 12.5 69t34 65.5t51 49t64.5 19.5q20 0 36.5 -14.5t16.5 -34.5q0 -23 -20.5 -41.5t-44.5 -18.5q-4 0 -10.5 1.5t-16.5 3.5q-8 4 -19.5 5t-19.5 1q-16 0 -34.5 -37t-18.5 -76q0 -72 49 -108.5t131 -36.5q170 0 321.5 132t305.5 376q-92 -33 -181.5 -55.5 t-193.5 -35.5q-2 -18 -3 -39.5t-1 -31.5q0 -4 1 -17.5t1 -31t1 -31.5t1 -19q0 -16 -8 -16t-15.5 23.5t-7.5 95.5q0 12 1 29.5t3 33.5h-71q-154 0 -244 71t-90 204q0 74 36 151.5t101.5 151.5t156.5 141.5t202 124.5q80 41 179 75t207.5 61.5t223.5 48t221.5 35t201.5 21.5 t169 7q35 0 40 -1t5 -9q0 -14 -19 -21q-68 -31 -137.5 -84t-136.5 -131q45 -16 73.5 -48t28.5 -83q0 -61 -37.5 -130t-105.5 -137.5t-163 -133t-210 -117.5q-193 -305 -401.5 -472t-448.5 -167q-109 0 -163 47t-54 135zM70 719q0 -115 80.5 -182.5t218.5 -67.5h35t42 4 q33 168 130.5 317.5t231.5 262t294 180t319 72.5q20 20 40 37.5t40.5 33t43 31.5t50.5 37q-285 -14 -529.5 -58.5t-473.5 -140.5q-115 -49 -211 -109.5t-166 -129t-107.5 -141t-37.5 -146.5zM477 475q55 6 104.5 15.5t97.5 21.5t96.5 30t101.5 38q111 174 180 281.5 t121.5 178t97.5 120.5t104 112q-154 -10 -304 -81t-275 -180.5t-211 -248.5t-113 -287zM1112 692q49 18 125 66.5t148.5 113t125 139t52.5 144.5q0 43 -23.5 66.5t-69.5 40.5q-43 -53 -93 -131t-99 -160t-92 -157t-74 -122z" />
<glyph unicode="J" horiz-adv-x="1593" d="M8 -541q0 31 17.5 73t49 88t76 94t95.5 91q49 41 104.5 78t122 75t148 78t182.5 87q14 27 25.5 46t21.5 37.5t22.5 40t28.5 54.5q-57 -14 -112.5 -22.5t-129.5 -8.5q-193 0 -295 84t-102 244q0 74 34 159t102.5 168t171 159.5t239.5 136.5q139 61 276.5 96t265.5 58.5 t244.5 39t216.5 35.5q18 2 46 9t56 13.5t50.5 11.5t30.5 5q12 0 12 -10t-26.5 -26.5t-61.5 -45.5q-39 -33 -71.5 -63.5t-63.5 -63.5t-62.5 -69.5t-68.5 -80.5q33 -33 48 -60.5t15 -72.5q0 -80 -41 -161.5t-115.5 -160.5t-182 -152.5t-242.5 -135.5l-109 -168q20 8 65.5 24.5 t95.5 35t92 34t56 21.5q23 8 57.5 20.5t45.5 12.5q12 0 12 -9q0 -10 -20.5 -19t-88.5 -32q-27 -10 -67.5 -25.5t-87.5 -35t-97.5 -40t-93.5 -36.5q-59 -84 -114.5 -156.5t-113.5 -140.5t-122.5 -133.5t-142.5 -136.5q-133 -121 -231.5 -177.5t-164.5 -56.5q-43 0 -70.5 22.5 t-27.5 67.5zM41 -530q0 -68 72 -68q31 0 68.5 15.5t79.5 42t86 64.5t87 81q92 96 177 218t155 247q-92 -43 -166 -79t-135.5 -71t-112.5 -70.5t-98 -74.5q-98 -80 -155.5 -164t-57.5 -141zM293 590q0 -141 97 -214t257 -73q63 0 109.5 4t78 10.5t54.5 14.5t39 14 q90 147 161.5 254t139 194t140.5 166.5t169 176.5q-16 2 -25.5 2h-19.5q-49 0 -100.5 -16.5t-101.5 -44t-98 -64.5t-87 -80q-68 -74 -104.5 -144.5t-56 -127t-29 -91t-17.5 -34.5q-10 0 -10 16q10 119 76.5 242t171.5 217q80 72 179 114.5t197 42.5h22.5t35.5 -2 q37 31 80 67t86 71.5t78.5 65.5t56.5 46q-109 -31 -189.5 -54.5t-154.5 -43t-151 -37.5t-177 -41q-129 -29 -228.5 -54.5t-178 -53t-142 -59.5t-121.5 -73q-111 -86 -174 -187t-63 -224zM1171 444q39 16 93.5 47t112 72t112.5 91.5t99 106.5t71 116.5t27 121.5 q0 39 -13.5 61.5t-44.5 45.5q-57 -72 -112.5 -145.5t-111.5 -154.5t-114 -170.5t-119 -191.5z" />
<glyph unicode="K" horiz-adv-x="1857" d="M2 717q0 100 51 183t152 179q55 104 139 200.5t186 162.5q119 76 245 119t237 43q82 0 150.5 -21.5t116.5 -60.5t74.5 -94.5t26.5 -120.5q12 0 42 2t72 3t91 4t98 7q37 2 74 9t55 7t19 -16q0 -10 -22.5 -30.5t-75.5 -71.5q-33 -33 -96.5 -111t-150.5 -187.5t-193.5 -245 t-225.5 -282.5q-92 -113 -173 -188.5t-159 -121.5t-155.5 -65.5t-163.5 -19.5q-133 0 -207 59.5t-74 171.5q0 61 20.5 112.5t61.5 113.5q-104 37 -159.5 93t-55.5 167zM29 715q0 -98 54 -154.5t157 -77.5q23 20 47 41t47.5 38.5t45 28.5t36.5 11q10 0 10 -8q0 -6 -8 -12 q-27 -16 -45.5 -26.5t-32.5 -22t-28.5 -23.5t-35.5 -31q14 0 25.5 -1t17.5 -1q166 0 332 62.5t328 185.5t262 254t111 274q-39 0 -77 -2t-77 -2q-78 0 -155.5 2t-151.5 2q-199 0 -366 -49t-302 -145q-23 -41 -29 -60.5t-10 -29.5q-4 -20 -10 -33.5t-12 -13.5q-4 0 -6 3 t-2 15q0 10 3 21.5t13 46.5q-70 -66 -105.5 -134.5t-35.5 -158.5zM164 233q0 -96 56.5 -147t162.5 -51q125 0 228.5 60.5t192.5 153.5t168 206.5t156 220.5q68 94 130.5 172t130 149.5t143.5 141t168 143.5l-318 -27q-8 -90 -55 -184t-125 -183t-180 -169t-217 -139.5 t-239 -94t-244 -34.5q-10 0 -25.5 1t-44.5 3q-47 -61 -67.5 -108.5t-20.5 -113.5zM250 1110q113 63 214 101t204.5 58.5t214 28t239.5 7.5h230q0 70 -30 121t-77 83.5t-106.5 49t-118.5 16.5q-47 0 -103.5 -9.5t-114 -26.5t-112.5 -40.5t-104 -52.5q-98 -59 -180 -142 t-156 -194zM1298 123q0 63 26 133t57.5 132.5t57 112.5t25.5 74q0 35 -29.5 48.5t-86.5 13.5q-35 0 -35 10q0 8 15 15.5t40 19.5q92 41 179 89t177.5 109.5t186.5 139.5t209 178q61 53 121.5 101.5t117 84t103.5 57t80 21.5q16 0 28.5 -3t12.5 -13q0 -4 -9.5 -9t-38.5 -16 q-61 -27 -156 -102.5t-214 -169.5q-145 -117 -331.5 -244t-428.5 -241q78 -16 118 -47t40 -80q0 -35 -25 -94.5t-53.5 -123t-53 -120t-24.5 -86.5q0 -27 16.5 -42.5t36.5 -15.5t47 11.5t64 38t87 70.5t118 110q8 6 20 19t25.5 26.5t23.5 24t15 10.5q6 0 6 -9 q0 -8 -20.5 -30.5t-49.5 -55.5q-37 -41 -85 -88t-100 -87t-103.5 -67.5t-94.5 -27.5q-51 0 -83 34t-32 89z" />
<glyph unicode="L" horiz-adv-x="1820" d="M6 979q0 47 13.5 92t48.5 100q8 14 26.5 38t39 46.5t42 40t35.5 17.5q8 0 8 -8t-12 -15q-16 -10 -33.5 -28.5t-35 -40t-33 -43t-23.5 -35.5q-23 -41 -35 -86t-12 -82q0 -59 22.5 -103.5t71.5 -93.5q2 131 76 258t198.5 228.5t290.5 164t350 62.5q147 0 237.5 -61.5 t90.5 -163.5q0 -109 -76.5 -218.5t-200.5 -197.5t-281 -143.5t-316 -55.5q-106 0 -186.5 20.5t-145.5 49.5q10 -70 33.5 -120t85.5 -95q45 -35 116.5 -57.5t163.5 -22.5q74 0 139.5 8t136 28.5t152.5 54.5t191 83q39 66 91 155t109.5 182t116 180t109.5 151q49 61 103 111.5 t108.5 86t104.5 56t91 20.5q29 0 57.5 -21.5t28.5 -62.5q0 -59 -58 -152.5t-194 -238.5q-49 -53 -95 -96t-98 -86t-114.5 -88t-142.5 -101q-59 -104 -120.5 -191t-130.5 -159t-147.5 -133t-173.5 -117q66 -20 114 -36.5t92 -32t89 -33t103 -39.5q82 -33 145.5 -51.5 t95.5 -18.5q37 0 76 12.5t60 28.5q12 12 20 13q10 0 10 -11q0 -18 -57 -61q-49 -37 -102.5 -53.5t-106.5 -16.5q-37 0 -79 11.5t-108.5 41t-169 81t-259.5 130.5q-117 -31 -200 -46t-165 -15q-78 0 -129 23.5t-51 58.5q0 41 60.5 66.5t152.5 25.5q39 0 73.5 -3t75.5 -10 t91.5 -18.5t119.5 -29.5q53 31 101.5 69.5t93.5 91t90 120t92 155.5q-104 -45 -184 -74t-145.5 -46t-123 -24.5t-120.5 -7.5q-213 0 -320.5 83t-130.5 257q-66 59 -96.5 111.5t-30.5 130.5zM164 756q63 -31 148 -53.5t169 -22.5q102 0 207 24.5t201 66.5t179 99.5t144.5 123 t96 135t34.5 137.5q0 92 -79.5 144t-216.5 52q-162 0 -324 -55t-291 -160q-53 -43 -102 -94t-86 -112.5t-58.5 -132t-21.5 -152.5zM242 86q0 -14 15 -24.5t38.5 -16.5t53.5 -9t59 -3q45 0 79.5 2t66.5 7t63.5 14.5t74.5 23.5q-72 25 -155.5 44t-149.5 19q-55 0 -100 -17 t-45 -40zM1438 760q74 51 131 94t105 83t91 82t88 91q117 129 167.5 210t50.5 138q0 27 -18.5 40t-35.5 13q-53 0 -126.5 -48t-141.5 -134q-31 -41 -63.5 -91t-69.5 -117.5t-81 -155.5t-97 -205z" />
<glyph unicode="M" horiz-adv-x="2275" d="M-492 709q0 117 62.5 224t165 188t234.5 129t274 48q100 0 134 -11t34 -19q0 -10 -17 -11q-10 0 -14 3q-12 4 -57 7t-97 3q-137 0 -262 -50.5t-219 -130t-150.5 -182t-56.5 -207.5q0 -123 52.5 -194.5t138.5 -110.5q12 84 35.5 160t62.5 146.5t96.5 138t141.5 137.5 q76 63 161.5 115.5t177 90.5t181.5 58.5t174 20.5q152 0 235.5 -64.5t83.5 -165.5q0 -61 -24.5 -125.5t-65.5 -127t-98 -119t-121 -99.5q-182 -123 -382 -184.5t-374 -61.5q-70 0 -125 8.5t-129 28.5q6 -31 21.5 -77t54.5 -91t108.5 -76.5t184.5 -31.5q137 0 286.5 52 t289.5 134q115 68 224 164t238 224t288 289t372 359q98 92 164.5 125t87.5 33q20 0 34.5 -13t14.5 -34q0 -10 -3 -19.5t-13.5 -25.5t-30 -44t-51.5 -73q-76 -106 -130.5 -180t-98.5 -133.5t-81 -109.5t-79 -108.5t-92 -132t-119 -177.5q-80 -123 -110 -187.5t-30 -75.5 q0 -23 17 -22q6 0 26.5 20.5t45 48t50 58.5t41.5 49q55 66 128 152t154 182t167 195.5t167 190.5t152.5 167t126.5 127q121 113 188.5 156.5t92.5 43.5q16 0 29.5 -13t13.5 -32q0 -12 -3 -22t-12.5 -22.5t-24.5 -31t-40 -49.5q-68 -84 -152.5 -188t-170.5 -221t-166 -241 t-138 -245q-53 -117 -90 -199.5t-37 -121.5q0 -55 35 -55q82 0 283 196l25.5 25.5l39 39l36 36t20.5 16.5q8 0 8 -10q0 -8 -23.5 -35t-60.5 -66t-90 -87t-110.5 -89t-111 -69.5t-87.5 -28.5q-47 0 -74 37t-27 94q0 66 25.5 143.5t73.5 163.5q59 106 143 220t176 221.5 t183 205t165 174.5q76 78 123 130.5t47 66.5q0 25 -22 25q-20 0 -70.5 -39t-108 -90.5t-107.5 -101.5t-71 -70q-139 -139 -289.5 -313.5t-324.5 -387.5q-117 -143 -194.5 -235t-130 -146.5t-84 -75t-56.5 -20.5q-57 0 -57 98q0 55 34.5 132t122.5 198t235.5 298t375.5 437 q33 39 66.5 78t60 72t43 57.5t16.5 34.5q0 18 -22 18q-10 0 -44 -18.5t-79 -49t-94.5 -69.5t-92.5 -82l-217 -217t-434 -463q-117 -131 -251 -229t-266 -165t-253 -100.5t-213 -33.5q-94 0 -168 29.5t-125 80t-77.5 117t-26.5 142.5q-96 39 -159 123.5t-63 220.5zM-238 383 q33 -10 64 -17.5t62.5 -11.5t66.5 -7t80 -3q74 0 162 14.5t182 45t191.5 76.5t189.5 108q61 39 113.5 92t91.5 111.5t61.5 118t22.5 112.5q0 96 -72 152.5t-219 56.5q-84 0 -172 -18.5t-174 -53.5t-168 -84t-154 -112q-84 -76 -140 -143.5t-93 -136.5t-58.5 -141.5 t-36.5 -158.5z" />
<glyph unicode="N" horiz-adv-x="2199" d="M-500 707q0 92 49.5 181t129 159.5t183 113.5t212.5 43q53 0 66.5 -3t13.5 -11q0 -10 -29 -10q-111 -4 -204 -31t-181 -88q-111 -78 -163 -173t-52 -188q0 -100 52 -162.5t157 -97.5q12 80 36.5 156t67.5 150.5t105.5 148.5t152.5 149q72 61 157 111.5t174 85.5t179 54.5 t174 19.5q147 0 213 -57.5t66 -141.5q0 -59 -25.5 -123.5t-75 -129t-120 -128t-158.5 -121.5q-70 -47 -157 -87t-184 -70.5t-199.5 -48t-205.5 -17.5q-43 0 -78.5 3t-95.5 14q2 -82 22.5 -140.5t80.5 -115.5q57 -55 125.5 -81t148.5 -26q154 0 359.5 94t423.5 264 q84 66 174 148t180 174t178 188.5t169 188.5t150.5 176t124.5 152q74 92 109 92q41 0 41 -52q0 -20 -12.5 -64t-32 -101.5t-44 -122t-48.5 -123.5q-12 -31 -35 -80t-59.5 -127t-92 -188.5t-133.5 -264.5q-18 -37 -38.5 -81t-39 -83.5t-30 -69.5t-11.5 -38q0 -25 5 -25 q12 0 149 150.5t385 472.5q-31 -4 -50.5 -7t-34.5 -5t-28.5 -2h-33.5q-14 0 -15 8q0 10 21 10q23 0 51.5 4t53 9.5t43 9.5t22.5 6q18 18 54 63t83 104.5t100.5 127t108.5 133t107.5 121t95.5 92.5q35 29 71.5 56.5t69.5 49t60.5 34.5t45.5 13q27 0 45.5 -18t18.5 -45 q0 -33 -25.5 -83t-69.5 -110.5t-103.5 -127t-125.5 -130.5q-70 -68 -132 -117t-123.5 -82.5t-125 -58t-137.5 -43.5q-20 -27 -38.5 -49t-50.5 -60t-85 -101.5t-141 -172.5q-86 -104 -143.5 -172.5t-95.5 -108.5t-61.5 -56.5t-39.5 -16.5q-39 0 -39 66q0 76 40 195.5 t103 258.5q45 100 98.5 204.5t103.5 203t96 183.5t79 151q27 53 41 86.5t14 46.5q0 12 -10 12q-8 0 -42 -40t-87 -106.5t-123.5 -154.5t-152.5 -183.5t-172 -193.5t-181 -184q-287 -287 -528.5 -416t-454.5 -129q-94 0 -181 30.5t-150 90.5q-68 61 -93.5 126.5t-29.5 164.5 q-111 41 -171.5 105.5t-60.5 189.5zM-240 436q59 -10 93 -13t77 -3q100 0 198.5 15.5t191 42t174 63.5t147.5 77q195 121 293 253.5t98 234.5q0 78 -61.5 130t-198.5 52q-82 0 -171 -20.5t-178 -57t-174 -89t-159 -113.5q-147 -125 -228 -270.5t-102 -301.5zM2077 766 q61 20 115.5 41.5t108.5 51.5t110.5 73t123.5 104q63 59 124 124t107 126.5t73.5 114.5t27.5 88q0 16 -10 27.5t-27 11.5q-20 0 -60 -24.5t-88 -62.5t-95 -82t-84 -83q-61 -66 -159.5 -188.5t-266.5 -321.5z" />
<glyph unicode="O" horiz-adv-x="1517" d="M10 438q0 160 70 335t219 355q53 63 115.5 122t127 109t130 90t125.5 64q41 16 77.5 24.5t55.5 8.5q10 0 10 -8q-2 -8 -38 -25.5t-62 -33.5q-84 -51 -149.5 -103.5t-119 -108t-97.5 -112.5t-87 -119q-135 -188 -200.5 -352t-65.5 -305q0 -72 21.5 -136.5t60.5 -112.5 t90 -75.5t110 -27.5q35 0 70 9t90 32q-102 59 -148 146t-46 224q0 96 24.5 198.5t65.5 204t97 198t122 180.5q72 94 149.5 171.5t156.5 133t157 85t149 29.5q131 0 202 -96t71 -264q0 -78 -13.5 -136.5t-40.5 -133.5q0 -45 -9 -118t-35.5 -159t-73.5 -178t-123 -172 q-63 -68 -133 -127t-145 -104.5t-157.5 -71t-173.5 -25.5q-53 -16 -87.5 -26.5t-62.5 -16.5t-52.5 -8t-53.5 -2q-78 0 -149.5 26.5t-125.5 80t-86 136.5t-32 195zM401 432q0 -139 49.5 -221t153.5 -125q123 63 244 161.5t230.5 228.5t205.5 291t172 351q-41 41 -73.5 60.5 t-82.5 19.5q-41 0 -78.5 -16.5t-71.5 -42t-60.5 -54t-47.5 -53.5q-35 -45 -46 -70.5t-27 -25.5q-2 0 -4 4t-2 6q0 6 6 20.5t14 29t17.5 27.5t13.5 19q78 102 148.5 144.5t137.5 42.5q51 0 90.5 -18.5t75.5 -47.5q16 59 23.5 98t7.5 82q0 127 -51 196t-152 69 q-131 0 -266 -88t-295 -283q-82 -100 -143.5 -208.5t-103.5 -215t-63.5 -205t-21.5 -176.5zM733 84q125 20 261 99t284 255q90 104 131 211t59 240q-59 -139 -139 -263t-176 -227.5t-202.5 -184.5t-217.5 -130z" />
<glyph unicode="P" horiz-adv-x="1517" d="M0 1090q0 14 22.5 51t53.5 86q45 70 128 152.5t190.5 155.5t230.5 121t249 48q164 0 279 -105q59 10 112.5 16.5t102.5 6.5q127 0 215 -27.5t162 -64.5q18 8 47 22.5t59.5 28.5t56 23.5t36.5 9.5q8 0 8 -6q0 -4 -35 -23q-47 -29 -82 -48t-51 -30q70 -53 108.5 -110.5 t38.5 -149.5q0 -102 -57 -194t-155.5 -163t-231.5 -115t-285 -46q-55 -96 -102 -172t-90 -137.5t-86 -111.5t-90 -95q-49 -47 -104.5 -86t-111 -67.5t-106.5 -45t-92 -16.5q-37 0 -67.5 17.5t-30.5 54.5q0 31 25.5 53t53.5 22q23 0 36.5 -11t13.5 -28q0 -4 -1 -13t-6 -15 q-4 -12 -4 -19q0 -18 33 -18q29 0 64.5 18.5t72.5 48t74 68.5t70 80q80 98 149.5 216t157.5 288q-23 23 -32 39t-9 37q0 23 6 37t16 14q8 0 9 -13q0 -6 -1 -15t-1 -15q0 -29 24 -53q76 131 141.5 229t136 179t155.5 153.5t200 152.5q-63 37 -155.5 61.5t-211.5 24.5 q-53 0 -87.5 -3t-80.5 -11q25 -47 36.5 -82t11.5 -86q0 -143 -92.5 -301t-254.5 -315q-168 -164 -332.5 -250t-306.5 -86q-45 0 -87 13t-73.5 41t-50 71t-18.5 102q0 68 25.5 141.5t73 148.5t113 146.5t144.5 136.5q86 70 171 122.5t177.5 92t194 68.5t217.5 51 q-25 20 -50.5 37t-54 28t-65.5 16t-84 5q-106 0 -222 -41t-225.5 -113.5t-207.5 -175t-172 -225.5q-16 -29 -21.5 -35t-9.5 -6q-8 0 -8 9zM35 682q0 -53 17.5 -90t46 -60.5t64.5 -35t73 -11.5q125 0 286.5 81t347.5 263q72 70 131.5 146t101.5 151.5t65.5 148.5t23.5 138 q0 53 -12.5 85t-40.5 71q-217 -41 -407.5 -125t-364.5 -219q-78 -61 -139.5 -135t-104.5 -148t-65.5 -142.5t-22.5 -117.5zM1219 760q80 8 136 20.5t101 30.5t85 44t87 63q45 33 83 79.5t65.5 99t44 104.5t16.5 95q0 66 -25.5 107t-66.5 80q-74 -55 -134.5 -114.5 t-120.5 -141.5t-124.5 -194.5t-146.5 -272.5z" />
<glyph unicode="Q" horiz-adv-x="2009" d="M8 61q0 31 32 55.5t85 42t122.5 28t143.5 10.5q66 0 134.5 -6.5t172.5 -18.5q160 80 271.5 139.5t196.5 114.5t155 114.5t147 139.5q145 147 224.5 293.5t79.5 306.5q0 147 -110 243.5t-296 106.5q59 -43 93 -100t34 -148q0 -72 -24.5 -151.5t-71.5 -160.5t-115 -163 t-154 -155q-86 -74 -184 -139.5t-199.5 -114.5t-198.5 -78t-179 -29q-74 0 -138.5 15.5t-112.5 50.5t-75 91t-27 140q0 59 21.5 128t71 146.5t127 164.5t190.5 184q82 70 193.5 132t225 108t215 74t165.5 32q-55 14 -91 17t-83 3q-133 0 -262.5 -24.5t-247 -71.5 t-219 -115.5t-179.5 -154.5q-33 -39 -51 -65.5t-37 -26.5q-8 0 -8 10q0 23 43 70t117 118q55 53 138 105.5t188.5 93.5t232.5 66.5t268 25.5q43 0 76 -2t63.5 -7t61.5 -13.5t70 -20.5q31 4 56 4h42q113 0 206 -36t158.5 -97t101.5 -144t36 -178q0 -166 -118 -337t-317 -316 q-100 -74 -181 -123t-159.5 -91t-166 -85t-199.5 -100q129 -23 246.5 -52.5t227.5 -57t213 -47t204 -19.5q55 0 107 6t81 12q33 8 52.5 13.5t25.5 5.5q12 0 12 -9q0 -4 -6 -12t-25.5 -19.5t-54.5 -24.5t-92 -28q-41 -10 -82 -16t-100 -6q-184 0 -359.5 34.5t-359.5 86.5 q-49 12 -81 21t-58.5 15.5t-51 12.5t-59.5 14q-84 -27 -144.5 -45t-107.5 -29.5t-88 -16.5t-86 -5q-88 0 -128 16.5t-40 48.5zM41 680q0 -123 83 -191.5t222 -68.5q80 0 176 26.5t196.5 72.5t200 110.5t185.5 138.5q74 63 139.5 141t113.5 160t76.5 163t28.5 150 q0 96 -46 158t-118 92q-102 -8 -209.5 -33.5t-212 -66.5t-205 -95.5t-188.5 -121.5q-225 -170 -333.5 -336t-108.5 -299zM49 59q1 -34 101 -34q164 0 382 77q-88 16 -143 23.5t-108 7.5q-111 0 -171.5 -22.5t-60.5 -51.5z" />
<glyph unicode="R" horiz-adv-x="1820" d="M12 715q0 80 32 161.5t88 159.5t133 148.5t167 126.5q102 63 204.5 107t213.5 73t234.5 43t267.5 18q-35 74 -143.5 124t-286.5 50q-195 0 -357 -82.5t-266 -232.5q-49 -72 -55 -72q-10 0 -11 11q0 10 31 51t66 88q33 43 90 89t133 85t169 64.5t200 25.5 q178 0 298.5 -55.5t165.5 -143.5q100 -4 177 -12t141.5 -22.5t122 -35t123.5 -50.5q49 16 91 27.5t58 11.5q12 0 12 -9q0 -4 -12 -10t-24 -10q-10 -4 -28.5 -10.5t-57.5 -22.5q72 -55 117.5 -122.5t45.5 -160.5q0 -53 -24.5 -106t-67.5 -102.5t-103.5 -90.5t-131.5 -69 q-51 -23 -100.5 -35t-101.5 -18.5t-111.5 -7.5t-131.5 -1q88 -45 128 -90t40 -119q0 -39 -18.5 -86t-42.5 -92q-47 -86 -72.5 -133t-25.5 -76q0 -35 38 -34q31 0 77 27.5t93.5 66.5t92.5 82t75 71q16 16 29.5 27.5t17.5 11.5q10 0 11 -8q0 -8 -8.5 -15.5t-18.5 -17.5 q-164 -172 -267.5 -242.5t-156.5 -70.5q-35 0 -62.5 31.5t-27.5 79.5q0 47 24.5 123.5t88.5 181.5q27 41 44 83t17 64q0 68 -110 119q-18 6 -19 20q0 6 19.5 14.5t78.5 8.5q18 0 59.5 9t92.5 23.5t103.5 33t93.5 36.5q55 27 103 67t84 89t56.5 102.5t20.5 106.5 q0 70 -29 120t-70 79q-57 -31 -104 -61t-93 -68.5t-94.5 -91t-108.5 -128t-135 -179t-173 -242.5q-219 -311 -416 -466t-395 -155q-98 0 -155.5 34t-57.5 81q0 29 19.5 51t47.5 22q27 0 44.5 -20.5t17.5 -44.5q0 -20 -9.5 -32.5t-27.5 -27.5q31 -18 52.5 -25t56.5 -7 q109 0 208 78.5t202.5 204.5t215 282t242.5 309.5t285.5 288.5t343.5 221q-53 31 -105.5 51.5t-112 32.5t-129 17.5t-157.5 7.5q16 -51 22.5 -78t6.5 -57q0 -96 -47.5 -199t-129.5 -202t-192.5 -188t-235.5 -157t-261 -108.5t-267 -42.5q-141 0 -213 59t-72 164zM41 715 q0 -86 61.5 -141.5t202.5 -55.5q82 0 174 20.5t189.5 59.5t193.5 96.5t185 128.5q162 131 257 279.5t95 292.5q0 41 -6.5 65.5t-22.5 61.5q-272 0 -488 -52.5t-403 -164.5q-100 -61 -181 -133t-138.5 -148t-88 -154.5t-30.5 -154.5z" />
<glyph unicode="S" horiz-adv-x="1517" d="M16 725q0 113 43 210t111 173q31 33 76 69.5t96 67.5t104.5 50.5t102.5 19.5q27 0 34 -2t7 -6q0 -12 -41 -19q-209 -41 -348 -192q-80 -88 -117 -188.5t-37 -184.5q0 -92 28.5 -160.5t80.5 -126.5q2 90 16 164t42 138.5t66.5 120.5t88.5 112q113 123 244.5 187.5 t267.5 64.5q154 0 223.5 -70t69.5 -190q0 -61 -12.5 -112.5t-41.5 -123.5q51 39 85 63.5t62.5 44t59.5 41t78 54.5q29 74 54.5 130t51 102t56 87t71.5 84q35 37 76 70t83 59.5t84 42t77 15.5q25 0 46 -13.5t21 -42.5q0 -23 -20 -55.5t-80 -87.5q-119 -115 -219 -197 t-170 -131q-18 -49 -48 -137t-66 -184.5t-75.5 -189.5t-78.5 -152q-102 -156 -258 -243t-346 -87q-115 0 -201 28.5t-147.5 80t-99.5 122t-56 152.5q-76 84 -110 158.5t-34 183.5zM186 408q63 -35 121.5 -53.5t138.5 -18.5q174 0 313.5 74.5t254.5 203.5q-53 -31 -92 -58.5 t-50 -27.5q-8 0 -8 9q0 10 7.5 16t23.5 18q23 16 61.5 39t94.5 66q49 90 70.5 152.5t21.5 134.5q0 111 -62.5 171t-203.5 60q-129 0 -253 -63.5t-221.5 -166t-157 -231.5t-59.5 -260v-65zM195 362q35 -139 138.5 -224t250.5 -85q125 0 248.5 56.5t226.5 162.5 q49 49 89 106.5t78 129.5t76.5 164t86.5 213q-27 -18 -71 -49t-88 -63t-81 -58.5t-51 -34.5q-55 -72 -120 -139.5t-141.5 -119.5t-169 -84t-206.5 -32q-41 0 -73 3t-61.5 9.5t-60 17.5t-71.5 27zM1552 1044q57 39 112.5 81t101.5 82t82 73t59 53q47 41 70.5 77t23.5 48 q0 14 -11.5 24.5t-29.5 10.5q-25 0 -56.5 -16.5t-64.5 -39t-61.5 -48t-44.5 -46.5q-29 -35 -50.5 -63.5t-41 -62t-41 -75t-48.5 -98.5z" />
<glyph unicode="T" horiz-adv-x="1744" d="M8 612q0 72 22.5 141.5t80.5 147.5q16 23 47.5 52.5t66.5 55t68 44t49 18.5q14 0 14 -10t-19.5 -16.5t-53.5 -28.5q-43 -29 -87 -68t-80 -88t-58.5 -110.5t-22.5 -137.5q0 -90 32.5 -142t104.5 -97q0 139 36 251.5t132 223.5q102 117 219 175t227 58q113 0 176.5 -56 t63.5 -146q0 -98 -60.5 -207t-158.5 -193q-92 -78 -214 -126t-239 -48q-29 0 -58.5 4t-84.5 17q16 -37 31.5 -66t32 -52.5t38 -43t52.5 -39.5q115 -78 264 -78q104 0 218 44t208 122q49 41 85 77t74.5 89t91 134t138.5 214q92 143 155.5 232.5t120 153t112.5 112.5t134 112 q-72 14 -180.5 39t-276.5 76q-39 12 -65.5 19.5t-48 11.5t-39 5t-37.5 1q-72 0 -130.5 -20.5t-99 -59.5t-64.5 -92t-24 -121q0 -27 3.5 -45t13.5 -53q4 -16 5 -19.5t1 -7.5q0 -8 -10 -8q-6 0 -12.5 12t-12.5 32.5t-10 47.5t-4 53q0 76 34.5 152t94.5 127q51 43 137 72.5 t178 29.5q68 0 152 -16.5t182 -46.5q57 -18 97 -32.5t75 -27t70 -23.5t84 -24q76 49 159.5 86t155.5 37q31 0 50.5 -11t19.5 -34q0 -33 -30 -63.5t-77 -55t-107.5 -39t-123.5 -14.5q-16 0 -44 1t-73 7q-121 -98 -195.5 -194.5t-129 -195.5t-98.5 -201.5t-103 -213.5 q-135 -250 -326.5 -390t-429.5 -140q-211 0 -349 80t-200 260q-90 53 -130 112.5t-40 161.5zM197 422q0 -10 1 -26.5t1 -35.5q59 -14 93.5 -19t69.5 -5q113 0 226.5 48t204 125t146.5 175t56 199q0 78 -55 125t-149 47q-111 0 -217.5 -55.5t-190.5 -144.5t-135 -202.5 t-51 -230.5zM2118 1407q37 -10 62 -15.5t56 -5.5q33 0 68 9.5t64.5 25t48 35t18.5 39.5q0 25 -33 25q-61 0 -139 -34t-145 -79z" />
<glyph unicode="U" horiz-adv-x="2048" d="M-10 649q0 70 20.5 146.5t58 154.5t91 153t116.5 140q121 123 278 213t368 148q-78 27 -134.5 38t-121.5 11q-102 0 -183.5 -20.5t-142.5 -55.5t-105.5 -79t-72.5 -91q-16 -25 -23.5 -46.5t-12.5 -37.5t-10 -25.5t-16 -9.5q-8 0 -8 10q0 12 8.5 34t21.5 47.5t28.5 50 t27.5 40.5q29 39 75 76t108.5 65.5t139.5 47t167 18.5q78 0 142 -14t161 -49q55 8 93 11t79 3q104 0 190 -26.5t147.5 -75.5t96.5 -118t35 -153q0 -74 -26.5 -152.5t-82 -166.5t-142.5 -186.5t-208 -214.5q-147 -141 -235.5 -255t-88.5 -182q0 -27 18.5 -46t41.5 -19 q33 0 91 27.5t149.5 94t220.5 175t303 268.5q8 8 46 45t91 89t114.5 110.5t116 112t94 93l52.5 52.5q49 49 77.5 76.5t47 41t31 16.5t30.5 3q31 0 43 -4t12 -14q0 -6 -34.5 -45t-89.5 -109t-127 -160t-148 -187t-148.5 -194.5t-129 -182.5t-91 -149.5t-34.5 -95.5 q0 -18 10 -32.5t26 -14.5q37 0 120 59.5t210 188.5q4 6 14.5 16.5l21.5 21.5t20.5 19t13.5 8q8 0 8 -10q0 -4 -8 -15t-20.5 -24.5t-27 -29t-26.5 -27.5q-127 -139 -226.5 -197.5t-137.5 -58.5q-35 0 -61.5 31.5t-26.5 91.5q0 68 36.5 155t85 168.5t94.5 147t62 90.5 q-84 -72 -145.5 -126t-110.5 -98t-91 -81t-85 -74q-102 -86 -178 -144.5t-132.5 -94t-97.5 -51t-71 -15.5q-53 0 -84 46t-31 99q0 109 75 222.5t206 250.5q92 96 154.5 162t105.5 114t72.5 84t56.5 75q47 70 72.5 135t25.5 117q0 76 -29.5 132t-83 93t-127 55.5t-161.5 18.5 q-41 0 -67 -2.5t-60 -10.5q78 -53 122 -125.5t44 -185.5q0 -137 -75 -293t-227 -317q-158 -168 -305 -247t-276 -79q-135 0 -218 78t-83 227zM16 645q0 -137 73 -207.5t202 -70.5q88 0 186 42t193.5 112.5t181.5 163.5t151.5 194.5t104.5 205t39 197.5q0 115 -46 185.5 t-130 117.5q-188 -41 -360.5 -129t-295.5 -209q-147 -143 -223 -296.5t-76 -305.5z" />
<glyph unicode="V" horiz-adv-x="1781" d="M10 831q0 63 22.5 133t65.5 137.5t104.5 132t139.5 120.5q70 49 156 91t180 71.5t193.5 46t195.5 16.5q129 0 222 -26.5t175 -73.5v20q0 115 -83 174.5t-216 59.5q-20 0 -20 8q0 14 61 14q66 0 123 -22.5t98 -65.5q35 -37 53.5 -87t18.5 -128q53 -41 86 -103.5t33 -152.5 q0 -145 -86 -290.5t-240 -311.5q-10 -10 -54 -55t-100.5 -103.5t-111.5 -117t-86 -95.5q-14 -16 -31.5 -38.5t-33 -45t-25.5 -42t-10 -31.5q0 -33 32 -33q12 0 30 6t58.5 34.5t113.5 90t200 172.5q43 37 108.5 103.5t145.5 148.5t167 173t174 180t168 168t146 138 q27 25 76 62t106.5 71.5t112.5 59t96 24.5q14 0 15 -8q0 -8 -28 -25.5t-75 -56.5q-59 -47 -136 -112.5t-183.5 -159.5t-245.5 -222t-319 -302q-119 -113 -236 -217.5t-215 -184.5t-173 -128t-110 -48q-29 0 -48 22.5t-19 55.5q0 63 26.5 128.5t73.5 135.5t111.5 144.5 t138.5 154.5q100 106 172 193.5t118 162t68.5 140t22.5 127.5q0 31 -8 57.5t-31 73.5q-25 -86 -58.5 -161t-82.5 -144.5t-116 -137t-159 -137.5q-90 -70 -186 -124t-190.5 -92t-183.5 -57.5t-163 -19.5q-76 0 -139 18.5t-108.5 56.5t-71 96.5t-25.5 137.5zM39 827 q0 -131 79.5 -204.5t233.5 -73.5q80 0 172 23.5t188.5 65.5t192.5 99.5t185 126.5q176 137 262 276.5t112 284.5q-47 47 -151.5 88t-251.5 41q-92 0 -190.5 -18t-193.5 -51t-182 -76t-155 -92q-152 -111 -226.5 -242t-74.5 -248z" />
<glyph unicode="W" horiz-adv-x="2502" d="M0 666q0 121 47 240.5t128 229t191.5 205t237.5 164t264.5 108.5t272.5 40q49 0 87 -4t71.5 -11.5t68.5 -20.5t76 -32q-35 86 -91.5 135t-144.5 49q-31 0 -66.5 -11t-88.5 -36q-12 -6 -17 -6q-6 0 -6 6q0 2 12.5 14.5t51.5 28.5q29 10 58.5 19.5t57.5 9.5 q104 0 167 -59.5t106 -171.5q88 -70 138 -154t50 -213q0 -113 -48 -257t-134 -304q-29 -53 -69 -116.5t-83 -131.5t-85 -135.5t-76 -126.5q59 43 140 120t172 170t183 192.5t173 190.5t145.5 163.5t97.5 109.5q39 43 62.5 68.5t38 39t21.5 16.5t13 3q23 0 32 -15.5t9 -33.5 q0 -51 -25 -113q-4 -25 -28.5 -76t-63.5 -119.5t-86 -148.5t-95 -158.5t-92 -150.5t-75 -127q-37 -66 -57.5 -112t-20.5 -68q0 -14 9.5 -20.5t19.5 -6.5q27 0 83 36t140 115t198 200.5t253 293.5q80 98 158.5 210t141 213.5t101.5 182t39 119.5q0 41 -20.5 63.5t-55.5 22.5 q-39 0 -81 -40t-78 -109q-10 -18 -15.5 -23.5t-9.5 -5.5q-8 0 -8 8q0 6 18.5 40t36.5 61q8 12 21.5 28.5t31 31.5t41 25.5t54.5 10.5q55 0 84.5 -34t29.5 -87q0 -115 -103.5 -296t-318.5 -435q-39 -45 -108.5 -119t-145 -150.5t-144.5 -144t-103 -98.5q-113 -98 -176.5 -133 t-94.5 -35q-25 0 -49 19.5t-24 60.5q0 29 25.5 128t109.5 265q12 25 47 84t80 133t95 152t93 139q14 23 35.5 51.5t21.5 42.5q0 6 -6 6q-4 0 -62.5 -61.5t-150.5 -165.5q-39 -47 -99 -113.5t-131 -143.5t-148.5 -158t-150.5 -153.5t-138.5 -133t-112.5 -95.5 q-63 -55 -96 -55q-16 0 -26.5 10.5t-10.5 24.5q0 8 4 19.5t10 27.5q20 55 44 106.5t57.5 114t81 142t112.5 192.5q123 211 186.5 352.5t63.5 245.5q0 78 -26.5 142.5t-63.5 111.5q0 -12 1 -25.5t1 -25.5q0 -121 -48 -249t-132 -250t-195.5 -231.5t-238.5 -190.5t-262.5 -129 t-264.5 -48q-74 0 -138.5 20.5t-111.5 60.5t-73.5 101.5t-26.5 141.5zM27 662q0 -141 88 -217t229 -76q84 0 176 23.5t187.5 68.5t190.5 110.5t185 151.5q86 82 156 173t120 185.5t77.5 185.5t27.5 171q0 23 -2 42t-6 48q-72 47 -148.5 70.5t-187.5 23.5q-197 0 -385 -80 t-348 -219q-168 -147 -264 -313t-96 -348z" />
<glyph unicode="X" horiz-adv-x="2275" d="M10 383q0 104 35 211.5t98 206.5q43 66 83 117t86 96t101.5 91t129.5 101q90 82 182 149.5t187.5 117t190.5 77t191 27.5q135 0 248 -56.5t207 -179.5q61 -80 105 -218t51 -337l618 684q10 10 18.5 20.5t16.5 10.5q12 0 12 -8q0 -6 -10 -18.5t-18 -20.5l-635 -706 q4 -104 4 -160v-84q0 -66 1 -136.5t5 -131t13 -99.5t26 -39q18 0 52 24.5t70 57.5t69.5 68t52.5 53q41 39 59 59.5t31 20.5q8 0 8 -8t-20.5 -30.5t-51.5 -53.5q-41 -41 -89 -91.5t-94 -94.5t-88 -73.5t-73 -29.5q-37 0 -57.5 21.5t-31.5 85t-17.5 177t-12.5 296.5l-649 -711 q-14 -14 -19 -18.5t-14 -4.5q-8 0 -8 9q0 4 2 11t19 23l667 740q-4 223 -28.5 390t-96.5 296q-57 100 -156.5 156.5t-224.5 56.5q-156 0 -316.5 -73t-307.5 -208q115 47 198.5 70.5t171.5 23.5q186 0 280.5 -101t94.5 -282q0 -70 -18.5 -145.5t-51 -153t-80.5 -153.5 t-106 -144q-111 -129 -240.5 -203.5t-256.5 -74.5q-168 0 -260.5 122t-92.5 329q0 104 23.5 195t55.5 165t63.5 128t46.5 83q-96 -82 -170 -161t-137 -187q-25 -41 -45.5 -92.5t-36 -103.5t-24.5 -102t-9 -93q0 -111 32.5 -175.5t84.5 -87.5q10 -4 18 -9t8 -9q0 -10 -14 -10 q-10 0 -26.5 8t-26.5 16q-53 37 -78 111t-25 172zM299 541q0 -199 84 -313.5t250 -114.5q80 0 165 35.5t163.5 97t149.5 144.5t124 177.5t84 194.5t31 199q0 168 -88 259t-244 91q-57 0 -102.5 -6.5t-97.5 -22.5t-117.5 -45t-161.5 -72q-63 -90 -108.5 -167.5t-75 -153.5 t-43 -149.5t-13.5 -153.5z" />
<glyph unicode="Y" horiz-adv-x="2048" d="M8 852q0 63 16.5 134t48 139.5t79 134t106.5 118.5q55 49 127 91t149.5 73t157.5 47.5t154 16.5q57 0 100 -6.5t78 -17.5t64.5 -29.5t64.5 -43.5q190 -20 288.5 -126.5t98.5 -270.5q0 -121 -46 -229.5t-132 -239.5q-66 -98 -129.5 -181t-115.5 -153.5t-84 -130 t-32 -108.5q0 -35 39 -35q14 0 39 10t64 37t93 72t126 116q84 82 168 172t160.5 177.5t143.5 165t114 137.5q49 61 78.5 97t52 56.5t44 26.5t54.5 6q14 0 14 -10q0 -23 -36.5 -80t-114.5 -180q-98 -158 -187.5 -306.5t-175.5 -282.5t-171 -252t-173 -214 q-72 -80 -148.5 -148.5t-153.5 -119t-149.5 -80t-138.5 -29.5q-76 0 -119.5 39t-43.5 100q0 59 32.5 97.5t77.5 38.5q23 0 40.5 -13.5t17.5 -34.5q0 -23 -19.5 -39t-48.5 -20q-39 -4 -54.5 -9t-15.5 -34q0 -39 35 -68.5t88 -29.5q94 0 202.5 75.5t225.5 217.5 q47 57 106.5 137t129 187.5t151.5 245.5t176 312q-150 -164 -262 -279.5t-196 -188t-143.5 -106.5t-102.5 -34q-41 0 -67.5 33t-26.5 92t21.5 119.5t60.5 128t93 143.5t120 164q72 94 118.5 166t74.5 129t39 103t11 93q0 111 -68.5 193t-205.5 106q31 -53 45 -100t14 -106 q0 -68 -24.5 -147t-70.5 -164t-110.5 -174t-146.5 -175q-139 -147 -286.5 -237.5t-297.5 -90.5q-125 0 -194.5 78t-69.5 199q0 39 6 104q-14 27 -23 49.5t-14.5 44t-7.5 46t-2 55.5zM41 854q0 -43 5 -74.5t20 -77.5q23 90 57.5 169t83.5 151t115.5 140t154.5 138 q115 88 268.5 148.5t352.5 64.5q-55 31 -107.5 48.5t-124.5 17.5q-76 0 -154.5 -15.5t-152.5 -43t-138.5 -64.5t-113.5 -80q-129 -115 -197.5 -245t-68.5 -277zM76 557q0 -115 66.5 -182.5t170.5 -67.5q94 0 198.5 46t206 124t192.5 178.5t162 208t112 214t41 198.5 q0 70 -23.5 116t-68.5 91q-180 0 -350.5 -59.5t-310.5 -168t-241.5 -260t-142.5 -333.5q16 -27 30.5 -42.5t47.5 -37.5q20 -14 20 -25q0 -6 -12 -6q-16 0 -40.5 18.5t-53.5 51.5q-2 -18 -3 -36t-1 -28z" />
<glyph unicode="Z" horiz-adv-x="1478" d="M0 -25q0 41 81 79t224 73q72 49 122 87t104.5 87t125 120t183.5 187q117 119 216 215.5t192 179t186.5 157.5t197.5 151q-51 10 -86 17t-71.5 14.5t-82.5 15.5t-120 20q-8 -76 -26.5 -142.5t-52.5 -127.5t-85 -121.5t-125 -124.5q-78 -68 -164 -122t-171 -92t-165 -57.5 t-145 -19.5q-147 0 -238.5 80t-91.5 226q0 141 79 264t211 214t304 143t356 52q55 0 108.5 -6t137.5 -20q-47 92 -130 141t-228 49q-74 0 -158 -18.5t-167 -53t-160.5 -86t-139.5 -114.5q-35 -39 -57.5 -65.5t-32.5 -26.5q-8 0 -8 8q0 18 23.5 46t58.5 64q68 70 149.5 121 t166.5 85t168 51.5t157 17.5q158 0 249 -58.5t150 -166.5q96 -29 157.5 -47.5t115.5 -36.5q68 -25 112.5 -39.5t98.5 -26.5q117 78 240.5 130t234.5 52q51 0 82.5 -19.5t31.5 -55.5q0 -35 -33.5 -69t-92 -59.5t-138.5 -41t-170 -15.5q-29 0 -54.5 2t-72.5 6 q-33 -29 -60.5 -53t-65.5 -60t-93 -90.5t-143 -142.5q-129 -131 -232.5 -226t-209 -183t-227.5 -180.5t-288 -217.5q74 8 115 11.5t84 3.5q74 0 160 -8.5t176 -18.5q47 -6 82 -8t59 -2q33 0 63.5 6t55.5 23q12 8 27.5 23t21.5 15q12 0 12 -12q0 -8 -10 -22.5t-24.5 -28.5 t-28.5 -26.5t-21 -18.5q-59 -51 -120.5 -67.5t-120.5 -16.5q-27 0 -57.5 3t-72.5 9t-101.5 16.5t-141.5 26.5q-80 16 -131 21.5t-80 5.5q-35 0 -58.5 -3t-44 -11.5t-42 -22.5t-52.5 -35q-37 -25 -79.5 -44t-65.5 -19q-16 0 -29.5 9t-13.5 21zM37 885q0 -129 80 -208t221 -79 q68 0 145.5 19.5t158.5 55.5t162 88t154 118q76 66 128.5 127t85 122.5t49 125t20.5 130.5q-78 10 -131 17.5t-96 12.5t-81 7t-83 2q-188 0 -324.5 -35.5t-249.5 -109.5q-57 -39 -102 -86t-75.5 -99.5t-46 -105.5t-15.5 -102zM1819 1348q37 -4 62.5 -6.5t43 -3.5t31.5 -1h31 q63 0 119.5 14.5t97.5 35t64.5 44t23.5 44.5q0 18 -18.5 31.5t-59.5 13.5q-43 0 -94.5 -14.5t-103.5 -38t-103 -54.5t-94 -65z" />
<glyph unicode="[" d="M-10 -178l680 1612h270l-10 -33h-199l-647 -1540h209l-17 -39h-286z" />
<glyph unicode="\" horiz-adv-x="2426" d="M12 813q0 72 24.5 151.5t67.5 157.5t103.5 149.5t132.5 129.5q143 115 314 179.5t358 64.5q106 0 181 -28t146 -85q41 2 66 3t37 1q68 0 125 -6t109.5 -18.5t101.5 -32t102 -43.5q66 45 118 72.5t68 27.5q8 0 9 -6q0 -8 -9 -12q-10 -6 -29.5 -19.5t-41 -30t-44 -33 t-36.5 -28.5q98 -78 150.5 -175t52.5 -233q0 -172 -77 -340t-222 -309q-190 -186 -366.5 -268t-348.5 -82q-37 0 -70 3t-70.5 11.5t-82.5 21.5t-107 34q-63 -23 -110.5 -36.5t-88 -20.5t-81.5 -10t-91 -3q-86 0 -136 15.5t-50 52.5t64.5 61.5t185.5 24.5q33 0 63.5 -2 t62.5 -8.5t66.5 -14.5t79.5 -20q59 33 111.5 75.5t109 107t122 156t149.5 224.5q74 115 129 199.5t101 149t86 114t84 92.5t95.5 86t118.5 96q-68 41 -165 70.5t-220 29.5q-12 0 -33.5 -1t-68.5 -5q29 -55 43 -97t14 -97q0 -141 -75.5 -300t-211.5 -296 q-68 -70 -146.5 -129.5t-159.5 -102.5t-158.5 -67.5t-143.5 -24.5q-131 0 -196.5 69.5t-65.5 180.5q0 63 23.5 139t67.5 155t107.5 155.5t143.5 140.5q96 76 177 126t161 84t165 53t191 36q-70 47 -134 69.5t-161 22.5q-164 0 -334.5 -66.5t-312.5 -183.5 q-63 -51 -120.5 -119.5t-100.5 -143.5t-68.5 -149.5t-25.5 -140.5q0 -53 10 -89t22.5 -58.5t22.5 -35.5t10 -22q0 -8 -8 -8t-17 9.5t-17.5 22.5t-14.5 25.5t-8 18.5q-25 57 -25 133zM248 68q0 -12 30.5 -26.5t122.5 -14.5q45 0 83 4t72 12t67.5 19.5t72.5 25.5 q-78 23 -128 31t-89 8q-109 0 -170 -17.5t-61 -41.5zM285 631q0 -96 65.5 -153.5t169.5 -57.5q55 0 124 18.5t145.5 56t157.5 96t161 138.5q66 68 118 141.5t88 148.5t54 146.5t18 137.5t-16 110.5t-51 87.5q-188 -20 -363.5 -91t-334.5 -204q-78 -66 -140.5 -138.5 t-105.5 -147t-66.5 -148.5t-23.5 -141zM811 88q74 -23 139.5 -38t128.5 -15q72 0 149 24.5t152.5 68.5t148.5 104.5t136 132.5q84 92 148.5 187t109.5 186t67.5 176t22.5 159q0 113 -34.5 182.5t-94.5 122.5q-63 -59 -103 -101t-75 -89t-75 -113.5t-101 -177.5 q-98 -174 -179 -299t-163 -219t-172 -163t-205 -128zM2230 1243q0 10 16.5 26.5t45.5 47.5t63.5 78t59.5 102q-12 12 -18.5 24.5t-6.5 30.5q0 31 17.5 49.5t39.5 18.5q18 0 31.5 -11.5t13.5 -31.5q0 -23 -27.5 -83t-80.5 -122q-61 -74 -94 -106.5t-47 -32.5q-12 0 -13 10z " />
<glyph unicode="]" d="M-172 -178l18 39h193l655 1538h-207l15 35h280l-682 -1612h-272z" />
<glyph unicode="^" horiz-adv-x="1896" d="M10 438q0 160 70 335t219 355q53 63 115.5 122t127 109t130 90t125.5 64q41 16 77.5 24.5t55.5 8.5q10 0 10 -8q-2 -8 -38 -25.5t-62 -33.5q-84 -51 -149.5 -103.5t-119 -108t-97.5 -112.5t-87 -119q-135 -188 -200.5 -352t-65.5 -305q0 -72 21.5 -136.5t60.5 -112.5 t90 -75.5t110 -27.5q35 0 70 9t90 32q-102 59 -148 146t-46 224q0 96 24.5 198.5t65.5 204t97 198t122 180.5q72 94 149.5 171.5t156.5 133t157 85t149 29.5q131 0 202 -96t71 -264q0 -78 -13.5 -136.5t-40.5 -133.5q0 -45 -9 -118t-35.5 -159t-73.5 -178t-123 -172 q-63 -68 -133 -127t-145 -104.5t-157.5 -71t-173.5 -25.5q-53 -16 -87.5 -26.5t-62.5 -16.5t-52.5 -8t-53.5 -2q-78 0 -149.5 26.5t-125.5 80t-86 136.5t-32 195zM401 432q0 -139 49.5 -221t153.5 -125q123 63 244 161.5t230.5 228.5t205.5 291t172 351q-41 41 -73.5 60.5 t-82.5 19.5q-41 0 -78.5 -16.5t-71.5 -42t-60.5 -54t-47.5 -53.5q-35 -45 -46 -70.5t-27 -25.5q-2 0 -4 4t-2 6q0 6 6 20.5t14 29t17.5 27.5t13.5 19q78 102 148.5 144.5t137.5 42.5q51 0 90.5 -18.5t75.5 -47.5q16 59 23.5 98t7.5 82q0 127 -51 196t-152 69 q-131 0 -266 -88t-295 -283q-82 -100 -143.5 -208.5t-103.5 -215t-63.5 -205t-21.5 -176.5zM733 84q125 20 261 99t284 255q90 104 131 211t59 240q-59 -139 -139 -263t-176 -227.5t-202.5 -184.5t-217.5 -130zM1692 1243q0 10 16 26.5t45 47.5t63.5 78t59.5 102 q-12 12 -18.5 24.5t-6.5 30.5q0 31 17.5 49.5t40.5 18.5q18 0 31.5 -11.5t13.5 -31.5q0 -23 -28 -83t-81 -122q-61 -74 -94 -106.5t-47 -32.5q-12 0 -12 10z" />
<glyph unicode="_" horiz-adv-x="2048" d="M-12 -31q0 16 17.5 19.5t74.5 3.5h1884q61 0 77.5 -2.5t16.5 -18.5t-16.5 -19t-73.5 -3h-1890q-53 0 -71.5 2t-18.5 18z" />
<glyph unicode="`" horiz-adv-x="409" d="M16 825q0 14 10.5 25.5t24.5 11.5q10 0 17.5 -4t35.5 -27l177 -133q14 -10 20 -16t6 -16q0 -16 -20 -17q-10 4 -19.5 9.5t-13.5 9.5l-191 110q-29 16 -38 23.5t-9 23.5z" />
<glyph unicode="a" horiz-adv-x="720" d="M-166 113q0 66 52.5 139.5t131 136t167.5 103t163 40.5q33 0 55.5 -12t22.5 -35q0 -4 -4 -20l45 55l117 6l-267 -336q-35 -47 -57 -81.5t-22 -47.5q0 -14 11 -20t21 -6q23 0 64 22.5t89 58.5t100 80t100 87l71 65q2 2 14.5 13.5t16.5 11.5q8 0 8 -11q0 -10 -18 -26 l-72 -70q-135 -133 -240.5 -199.5t-166.5 -66.5q-35 0 -56.5 17.5t-21.5 48.5t18 79q-45 -41 -77.5 -69.5t-58.5 -45t-47.5 -23.5t-41.5 -7q-51 0 -84 31.5t-33 81.5zM-88 68q0 -14 11.5 -28.5t27.5 -14.5q20 0 61 25.5t89.5 66.5t98.5 91t91 98t67.5 90t26.5 67 q0 16 -12.5 28.5t-28.5 12.5q-41 0 -94 -35t-137 -119q-61 -61 -100.5 -108t-62 -81t-30.5 -57.5t-8 -35.5z" />
<glyph unicode="b" horiz-adv-x="530" d="M-147 94q0 25 12 60.5t44 89t85 129.5t135 182q129 154 213 251t149.5 162.5t124 113.5t134.5 104q55 41 96 57.5t59 16.5t37 -15.5t19 -44.5q0 -59 -66 -152.5t-168 -191.5q-106 -100 -233 -171t-240 -112q-166 -217 -244 -342t-78 -157q0 -37 37 -37q27 0 63 18.5 t78 52t87 79.5t88 100q-20 23 -29.5 43t-9.5 55q0 25 10 52.5t28.5 51t43 40t53.5 16.5q23 0 35 -17.5t12 -42.5q0 -37 -22.5 -80t-77.5 -114q14 -4 24 -7t25 -3q23 0 61.5 17t81.5 64q20 20 27 21q10 0 10 -10q0 -8 -31 -39q-27 -27 -69.5 -54.5t-85.5 -27.5q-23 0 -66 14 q-104 -121 -190 -193.5t-172 -72.5q-41 0 -65.5 23.5t-24.5 70.5zM276 379q0 -25 6.5 -39.5t22.5 -30.5q92 119 92 168q0 33 -24 33q-20 0 -38 -14.5t-31 -34t-20.5 -42t-7.5 -40.5zM279 610q61 27 114 52.5t102.5 56.5t97.5 66.5t99 82.5t95 95.5t77 93.5t50.5 81t17.5 58 q0 37 -33 37t-118 -62.5t-195 -173.5q-29 -29 -56.5 -61.5t-61.5 -77.5t-80 -105.5t-109 -142.5z" />
<glyph unicode="c" horiz-adv-x="493" d="M-109 145q0 74 42 141.5t106 125.5q33 27 70.5 50t77.5 39.5t77 27t68 10.5q33 0 56.5 -19.5t23.5 -48.5q0 -23 -17.5 -38t-40.5 -15q-37 0 -37 31q0 14 7.5 20t16.5 10t16.5 6t7.5 7q0 10 -9.5 14t-19.5 4q-18 0 -47 -11.5t-61.5 -33t-66.5 -50t-65 -63.5 q-53 -59 -90 -129.5t-37 -126.5q0 -63 54 -63q43 0 104 33.5t124.5 82t122 102.5t93.5 95q20 29 33 29q12 0 12 -10q0 -4 -12.5 -17.5t-16.5 -17.5q-59 -66 -120.5 -125.5t-122 -105.5t-114.5 -73.5t-99 -27.5q-59 0 -97.5 39t-38.5 108z" />
<glyph unicode="d" horiz-adv-x="681" d="M-174 100q0 29 8 56.5t28.5 60.5t56.5 73t89 91q92 88 169 125t136 37q39 0 64.5 -16.5t25.5 -57.5v-14.5t-2 -14.5l443 582h96l-668 -885q-36 -50 -36 -70q0 -17 10 -27.5t24 -10.5q31 0 70 22.5t85 62.5t98 95t114 119q23 23 37 38t22 15q10 0 11 -10q0 -6 -33 -40 t-96 -102q-68 -72 -117 -116.5t-86 -70.5t-63.5 -35t-47.5 -9q-39 0 -66.5 22.5t-27.5 63.5q0 25 14 66q-96 -86 -150 -118t-108 -32q-100 0 -100 100zM-100 74q0 -41 41 -41q33 0 104.5 42t169.5 140q49 49 81 85t50.5 63.5t24.5 49t6 44.5q0 29 -14.5 41t-36.5 12 q-20 0 -43 -8t-50.5 -27.5t-63.5 -52.5t-85 -84q-82 -86 -133 -152.5t-51 -111.5z" />
<glyph unicode="e" horiz-adv-x="530" d="M-125 143q0 47 26.5 100.5t98.5 133.5q39 43 85 74.5t88 51t77 30t51 10.5q35 0 56.5 -16.5t21.5 -45.5q0 -80 -115 -162q-25 -18 -50.5 -33.5t-58 -29.5t-74.5 -29.5t-104 -36.5q-16 -25 -23 -41t-7 -38q0 -33 19.5 -54.5t56.5 -21.5q33 0 84 20.5t112.5 58.5t128 91 t131.5 119l32.5 32.5t27.5 16.5q8 0 8 -8q-10 -10 -19.5 -23t-19.5 -23q-158 -160 -288 -239.5t-202 -79.5q-59 0 -101 42t-42 101zM-4 223q51 20 88 34.5t64.5 28t48 27t41.5 29.5q49 41 74.5 79t25.5 66q0 16 -10.5 23.5t-24.5 7.5q-29 0 -65.5 -23.5t-78.5 -64.5 t-84 -94.5t-79 -112.5z" />
<glyph unicode="f" horiz-adv-x="417" d="M-504 -369q39 63 65.5 108.5t50 83.5t47.5 76t54 91q-25 8 -37 12t-12 14q0 4 4 13l8 12q6 10 15 10q8 0 26 -8q4 -2 10.5 -4t16.5 -6q133 180 231.5 311t178 232.5t151.5 184.5t152 167q145 152 257.5 235.5t176.5 83.5q27 0 45 -19.5t18 -47.5q0 -23 -16 -59t-47 -81 t-75 -94t-99 -96q-117 -100 -245 -174t-239 -127q-72 -92 -119.5 -155.5t-87.5 -119t-81 -115t-99 -141.5q117 4 240 77t248 198l23.5 23.5l32 32t30.5 28.5t20 12q10 0 11 -8q0 -8 -27 -34t-45 -46q-100 -109 -188.5 -171t-159 -95t-123.5 -41t-82 -8q-35 -53 -59.5 -89 t-47 -71t-48 -75t-58.5 -99zM279 604q96 53 165.5 94t120.5 76t91 66.5t79 66.5q94 88 143.5 154.5t49.5 120.5q0 20 -14.5 29.5t-30.5 9.5q-45 0 -109.5 -49.5t-143.5 -134.5t-168 -196.5t-183 -236.5z" />
<glyph unicode="g" horiz-adv-x="720" d="M-500 -567q0 51 40 119.5t143 173.5q39 41 71.5 70.5t70.5 57t85 55.5t113 64l92 119q-74 -53 -114 -70.5t-79 -17.5q-43 0 -73.5 28.5t-30.5 76.5q0 63 54 140t134 142.5t169 110.5t157 45q35 0 57.5 -17.5t22.5 -40.5q0 -14 -4 -26l55 65l125 15l-410 -518q55 25 95 44 t74 36.5t66.5 36t69.5 42.5q49 31 89 61.5t71 56.5t48.5 42t19.5 18q8 12 16 13q10 0 10 -10q0 -4 -17.5 -22.5t-39 -38t-40.5 -37t-22 -19.5q-29 -23 -61.5 -48t-71.5 -50q-35 -25 -70.5 -45.5t-75.5 -40t-86 -41t-103 -46.5q-115 -174 -202 -290.5t-155.5 -187 t-121 -100.5t-95.5 -30q-76 0 -76 64zM-465 -561q0 -39 41 -39q68 0 178.5 127t251.5 391q-63 -25 -139 -75t-162 -136q-88 -90 -129 -160.5t-41 -107.5zM-104 80q0 -41 45 -41q39 0 105.5 43t127.5 104q43 41 81 85t66.5 84t45 71t16.5 47t-12.5 28.5t-34.5 12.5 q-33 0 -97.5 -42t-142.5 -120q-94 -94 -147 -167.5t-53 -104.5z" />
<glyph unicode="h" horiz-adv-x="645" d="M-319 0l421 522q100 123 166 204t114 137.5t86 97t85 83.5q119 113 196.5 165.5t131.5 52.5q29 0 48 -17.5t19 -46.5q0 -31 -17.5 -69.5t-47 -80.5t-69.5 -85t-85 -84q-49 -45 -97 -82t-105.5 -74t-129 -78t-170.5 -94l-108 -141q86 74 137 104.5t86 30.5t57.5 -21.5 t22.5 -56.5q0 -23 -14.5 -52.5t-49.5 -74.5l-94 -121q-53 -70 -78.5 -104.5t-25.5 -48.5q0 -29 28 -29q27 0 72 22.5t98.5 60.5t113.5 90t122 114l34.5 34.5t26.5 16.5q8 0 9 -8q0 -10 -19 -26t-29 -26q-63 -66 -127.5 -123t-124 -100t-110.5 -67.5t-86 -24.5 q-45 0 -67.5 23.5t-22.5 56.5q0 23 16.5 56.5t71.5 105.5l86 108q47 59 67.5 90t20.5 47q0 23 -23 23q-8 0 -23 -6t-33.5 -16.5t-38 -22.5t-34.5 -25q-25 -18 -43 -34.5t-38.5 -35t-42 -43t-52.5 -61.5l-211 -260zM256 600q80 43 143.5 79t118.5 71.5t104.5 72.5t100.5 84 q92 84 146.5 164t54.5 127q0 37 -37 37q-162 0 -631 -635z" />
<glyph unicode="i" horiz-adv-x="378" d="M-178 84q0 27 13 58.5t42 73.5t73 98.5t103 129.5l68 84l125 13l-197 -244q-84 -104 -119.5 -157.5t-35.5 -78.5q0 -29 28 -28q27 0 80 33.5t114.5 81t121 97.5t98.5 85q12 10 26.5 26.5t22.5 16.5t8 -11q0 -6 -6 -13t-13 -15t-11 -10l-11 -9q-94 -92 -166.5 -152.5 t-127 -96t-90.5 -51t-56 -15.5q-35 0 -62.5 23.5t-27.5 60.5zM242 672q0 29 21.5 47t45.5 18q18 0 29.5 -13.5t11.5 -27.5q0 -20 -17.5 -42.5t-49.5 -22.5q-16 0 -28.5 12t-12.5 29z" />
<glyph unicode="j" d="M-504 -545q0 59 42 132t136 173q49 49 92.5 87t83 69t79.5 56.5t85 50.5l303 466q-84 -16 -145 -39.5t-111 -60.5q-31 -23 -47 -36t-26 -13q-8 0 -8 6t15 20.5t35.5 31t43 31.5t39.5 24q70 37 147.5 57t198.5 39l-316 -475q137 57 243 121.5t192 150.5q23 23 30.5 29 t12.5 6q8 0 8 -8q0 -10 -17 -25q-2 -2 -7 -8t-19 -21q-156 -166 -477 -299l-234 -346q-41 -59 -83 -111t-83 -92t-76.5 -62.5t-62.5 -22.5q-29 0 -51.5 19.5t-22.5 49.5zM-469 -535q0 -23 5 -35t32 -12q43 0 95 54.5t130 165.5q47 68 95.5 152.5t95.5 180.5 q-49 -35 -90 -64.5t-75 -58t-66 -57.5t-62 -63q-84 -92 -122 -157t-38 -106zM471 696q0 29 23.5 48.5t48.5 19.5q18 0 31.5 -12.5t13.5 -32.5q0 -29 -23.5 -48.5t-46.5 -19.5q-20 0 -33.5 13.5t-13.5 31.5z" />
<glyph unicode="k" horiz-adv-x="645" d="M-293 0q94 131 178 240.5t167 211t168 200t181 208.5q104 119 181 197t135.5 123t100.5 62.5t75 17.5q35 0 53.5 -16.5t18.5 -45.5q0 -27 -16.5 -63.5t-45.5 -77.5t-68.5 -85t-86.5 -87q-41 -37 -89.5 -73t-112 -77t-145.5 -91t-190 -116l-135 -184q31 20 54.5 26.5 t43.5 6.5q18 0 49 -8q57 49 101.5 83.5t78 55t61.5 30t52 9.5q27 0 44.5 -13.5t17.5 -37.5q0 -18 -13.5 -32.5t-32.5 -14.5q-16 0 -26 9t-10 21q0 8 8 25q2 4 4 9t2 7q0 4 -4 4q-25 0 -90.5 -39t-163.5 -125q20 -12 29.5 -25t9.5 -38q0 -27 -12.5 -54.5t-47.5 -74.5 q-43 -61 -53 -78.5t-10 -30.5q0 -25 33 -24q25 0 57.5 14t78.5 46t105.5 84t135.5 130q18 18 42.5 44t34.5 26t11 -8q0 -2 -13.5 -20.5t-40.5 -43.5q-35 -33 -86 -85t-109.5 -101t-119.5 -85t-117 -36q-33 0 -59.5 18.5t-26.5 51.5q0 27 24.5 66.5t53.5 80.5q23 31 40 56.5 t17 37.5q0 6 -1 8.5t-11 10.5q-43 -39 -74.5 -55.5t-54.5 -16.5q-25 0 -32 15.5t-7 37.5l-233 -303zM80 299q0 -16 16 -16t41 15t58 44q-23 10 -39 10q-8 0 -20.5 -4t-25 -12t-21.5 -17.5t-9 -19.5zM256 590q90 53 159.5 96t126 82t101.5 72.5t86 68.5q37 31 74 70t66.5 79 t48 76.5t18.5 63.5q0 18 -14.5 26.5t-30.5 8.5q-35 0 -90.5 -35t-134 -111.5t-181 -199.5t-229.5 -297z" />
<glyph unicode="l" horiz-adv-x="417" d="M-152 92q0 37 17.5 80t67 113.5t135.5 179t223 274.5q98 117 189 210t170 156.5t141.5 97.5t99.5 34q61 0 61 -59q0 -55 -53 -133t-164 -175q-66 -55 -125 -100t-118.5 -82t-121 -68.5t-130.5 -62.5q-104 -141 -166 -228t-94.5 -139.5t-43 -78t-10.5 -43.5 q0 -14 9.5 -24.5t25.5 -10.5q27 0 77 26.5t110.5 70.5t126 102.5t120.5 121.5q16 16 22.5 20.5t10.5 4.5q10 0 10 -10q0 -8 -12 -19q-2 -2 -9.5 -10.5t-23.5 -26.5q-139 -154 -260 -233.5t-192 -79.5q-45 0 -69 25.5t-24 66.5zM268 598q68 35 122 63.5t103.5 59.5t98.5 68.5 t110 93.5q100 90 160 158.5t60 125.5q0 41 -35 41q-37 0 -105.5 -45t-154.5 -127t-179.5 -193.5t-179.5 -244.5z" />
<glyph unicode="m" horiz-adv-x="1099" d="M-104 6l270 346q39 49 57.5 83t18.5 48q0 8 -7.5 17.5t-21.5 9.5q-23 0 -48.5 -17.5t-51.5 -43.5q-39 -39 -75 -74t-46 -35q-8 0 -8 8q0 12 16 25q18 12 45 40.5t59.5 58.5t66.5 51.5t65 21.5q33 0 48 -20.5t15 -47.5q0 -14 -7 -42.5t-18 -47.5q82 74 152 116t109 42 q29 0 49 -16.5t20 -51.5q0 -16 -8 -40.5t-23 -49.5q49 47 87 78t67 49t51.5 25.5t40.5 7.5q35 0 58.5 -17.5t23.5 -52.5q0 -23 -9 -43t-42 -65l-133 -185q-45 -63 -56.5 -86.5t-11.5 -34.5q0 -27 27 -26q23 0 64.5 26.5t95 69.5t114 98.5t119.5 110.5q10 8 23.5 23.5 t17.5 15.5q12 0 12 -10q0 -6 -14.5 -19.5t-20.5 -19.5q-156 -162 -263 -247t-169 -85q-41 0 -65.5 18.5t-24.5 55.5q0 35 24.5 72.5t78.5 109.5l106 139q43 55 43 80q0 14 -9 22.5t-22 8.5q-23 0 -51 -18.5t-67 -53.5q-78 -68 -138.5 -132t-99.5 -114l-143 -188h-107 q10 14 37 48t60.5 78t70.5 91t70 88t56.5 72t31.5 41q10 12 17 27.5t7 25.5q0 29 -30 29q-10 0 -32 -7.5t-56 -31.5q-86 -63 -150.5 -131t-113 -130.5t-83 -114.5t-61.5 -83z" />
<glyph unicode="n" horiz-adv-x="796" d="M-121 16l227 277q45 53 71 88t39 56.5t17.5 32.5t4.5 19q0 29 -25 29q-31 0 -66.5 -37t-93.5 -88q-23 -23 -38 -36t-21 -13q-8 0 -8 10q0 4 16 21.5t29 30.5q51 51 80.5 81.5t50 46t37 19.5t41.5 4q29 0 48 -18.5t19 -53.5q0 -18 -5 -35.5t-21 -52.5q57 47 97 77 t67.5 46.5t49 21.5t46.5 5q29 0 48 -18.5t19 -47.5q0 -35 -18.5 -66.5t-57.5 -80.5l-75 -98q-31 -41 -50.5 -67t-28.5 -43t-12.5 -27.5t-3.5 -22.5q0 -31 29 -31q31 0 78 30.5t99.5 75t103.5 95.5t90 92q12 12 25.5 27.5t21.5 15.5t8 -12q0 -8 -12.5 -20.5l-18.5 -18.5 q-39 -41 -91 -96.5t-110.5 -106.5t-117.5 -86t-111 -35q-35 0 -58.5 25.5t-23.5 56.5q0 29 26 75t91 130l76 94q29 35 46 61.5t17 43.5q0 23 -22 22q-8 0 -17.5 -2t-28 -13.5t-49 -34t-81.5 -63.5q-41 -35 -91.5 -90t-98.5 -111.5t-88 -106.5t-60 -70z" />
<glyph unicode="o" d="M-154 121q0 43 33 110.5t103 133.5q37 35 80.5 67.5t91 59t92.5 42t86 15.5q43 0 66.5 -24.5t23.5 -67.5q0 -16 -3 -32.5t-11.5 -39.5t-23.5 -53.5t-42 -73.5q29 0 54.5 2t52 9t54 22.5t62.5 42.5q16 12 28.5 25.5t18.5 13.5q10 0 11 -8q0 -6 -10.5 -17.5t-24 -23 t-27.5 -21.5t-20 -16q-20 -14 -44 -25.5t-45.5 -18.5t-37 -10.5t-21.5 -3.5h-35.5t-35.5 4q-41 -45 -87.5 -87t-94.5 -74.5t-95 -52t-86 -19.5q-47 0 -80 37t-33 84zM-84 88q0 -27 17 -42t42 -15q39 0 117 47t158 125q31 31 57.5 67.5t46 72.5t29.5 66.5t10 51.5 q0 23 -15.5 35t-31.5 12q-47 0 -126 -49t-191 -187q-39 -47 -61.5 -78.5t-34 -52t-14.5 -33t-3 -20.5z" />
<glyph unicode="p" d="M-504 -369l852 1254l125 8l-340 -492q18 12 51 35t70 46.5t74 41t63 17.5q33 0 52.5 -16.5t19.5 -51.5q0 -49 -107 -176l-88 -107q-29 -35 -44 -54t-22 -30.5t-9.5 -17.5t-2.5 -12q0 -27 27 -27q41 0 138.5 82t226.5 217q16 16 22 21.5t10 5.5q10 0 11 -8q0 -10 -21 -30 t-33 -34q-141 -160 -233 -231.5t-145 -71.5q-35 0 -61 23.5t-26 58.5q0 27 12.5 54.5t63.5 86.5l88 103q33 39 54.5 65.5t34 43t17.5 26.5t5 18q0 20 -25 21q-18 0 -62 -24.5t-93 -60.5t-94.5 -75t-63.5 -68l-440 -637z" />
<glyph unicode="q" horiz-adv-x="681" d="M-340 -571q0 41 52 125t161 221l250 313q-39 -29 -67.5 -46t-51 -26.5t-42 -12.5t-40.5 -3q-41 0 -72.5 25.5t-31.5 68.5q0 59 52 135t130 143.5t165 115t159 47.5q82 0 82 -60q0 -6 -1.5 -17.5t-5.5 -21.5l74 88l107 8l-246 -303q-39 -49 -64.5 -78.5t-40 -49t-19.5 -33 t-5 -25.5q0 -10 11 -18.5t24 -8.5q18 0 48.5 17.5t67.5 44t77 60.5t78 68t68.5 63.5t51.5 49.5q6 6 14 15.5t17.5 18.5t17.5 16.5t12 7.5q8 0 8 -8q0 -10 -19.5 -30t-37.5 -36q-88 -86 -152.5 -146.5t-112.5 -97t-82 -53t-58 -16.5q-14 0 -33 10q2 -10 2 -17.5v-11.5 q0 -59 -56.5 -160.5t-150.5 -218.5q-37 -45 -77 -84.5t-76.5 -70.5t-69.5 -48.5t-56 -17.5q-33 0 -47 17.5t-14 40.5zM-307 -580q0 -24 18 -24h2q23 0 51.5 16.5t61.5 42t65.5 58t63.5 65.5q51 55 93 117.5t73 119t47 104.5t16 77q0 10 -8 33l-375 -449q-37 -45 -59.5 -71.5 t-32.5 -42t-13 -25.5t-3 -21zM-104 70q0 -43 47 -43q43 0 111.5 47t140.5 119q35 35 67.5 72.5t57 73.5t40 66.5t15.5 53.5q0 45 -47 45q-31 0 -75 -26.5t-92 -67.5t-95.5 -91.5t-85 -98.5t-61 -89t-23.5 -61z" />
<glyph unicode="r" horiz-adv-x="493" d="M-31 100q0 78 88 174.5t236 217.5q-23 -6 -35 -7.5t-27 -1.5q-16 0 -36.5 8.5t-34.5 18.5q-23 -27 -61 -67t-66 -68q-23 -23 -28 -27t-9 -4q-10 0 -10 10q0 2 3 7.5t13 15.5q10 8 30.5 29.5t43 46t43 49t33.5 39.5q0 39 17 74.5t52 35.5t35 -45q0 -29 -43 -71 q27 -14 53 -15q23 0 52.5 6t68.5 17q14 -12 14 -19q0 -6 -9 -15t-32 -30q-61 -61 -104 -105t-72.5 -79t-49 -62.5t-36.5 -56.5q-18 -31 -29.5 -58.5t-11.5 -41.5q0 -10 7.5 -19.5t21.5 -9.5q45 0 116.5 58.5t184.5 162.5l27.5 27.5l35 35t31 30t17.5 12.5q12 0 12 -11 q-1 -10 -64 -71q-29 -29 -78 -76t-104 -93t-110.5 -80t-94.5 -34q-41 0 -65.5 22.5t-24.5 69.5z" />
<glyph unicode="s" d="M-156 88q0 47 28 72.5t58 25.5q47 0 47 -32q0 -23 -15 -30t-46 -9q-41 -4 -41 -35q0 -18 17.5 -34.5t41.5 -16.5q53 0 108.5 43t99.5 105.5t73 132t29 124.5q0 43 -9.5 67.5t-27.5 51.5q-37 -41 -73 -77l-79 -79q-18 -18 -35.5 -38.5t-27.5 -20.5q-8 0 -8 10q0 6 5 10 t17 19q20 20 47 48t54.5 56.5t51 56t40.5 48.5q4 41 16 70.5t41 29.5q10 0 19.5 -9t9.5 -26q0 -20 -10.5 -38.5t-32.5 -43.5q45 -72 62.5 -110.5t17.5 -83.5q0 -109 -76 -196t-211 -152q61 0 136 33.5t143.5 77.5t121.5 86t72 59q47 41 71.5 65.5t32.5 24.5q10 0 11 -8 q0 -10 -29.5 -41t-97.5 -84q-41 -31 -95.5 -72t-119 -78t-136 -63.5t-147.5 -26.5q-74 0 -114 20.5t-40 67.5z" />
<glyph unicode="t" horiz-adv-x="378" d="M-176 88q0 23 6 48.5t24.5 57t50.5 74.5t83 103l258 299h-113l23 35h118l207 245l115 17l-219 -262h125l-21 -35h-129l-364 -443q-51 -63 -70.5 -94t-19.5 -59q0 -16 12 -28.5t31 -12.5q16 0 45.5 12t77 46t114 90.5t158.5 146.5q14 12 27.5 29.5t23.5 17.5t10 -8 q0 -6 -15.5 -24t-23.5 -26q-162 -164 -265 -240.5t-175 -76.5q-41 0 -67.5 22.5t-26.5 65.5z" />
<glyph unicode="u" d="M-197 84q0 18 7.5 38.5t29 55.5t63.5 89.5t111 140.5l107 129l119 8l-111 -129q-49 -57 -94 -115.5t-81 -108t-56.5 -84t-20.5 -42.5q0 -33 31 -33q23 0 58.5 26.5t88.5 73.5q47 39 96.5 89t98.5 103.5t94 107.5t82 104l119 6l-176 -215q-84 -102 -137.5 -174t-53.5 -97 t21 -24q23 0 64.5 26.5t96 71.5t113.5 103.5t115 119.5q12 12 17 17.5t16 5.5q6 0 6 -8q0 -12 -13.5 -26.5t-17.5 -18.5q-135 -152 -243.5 -238t-176.5 -86q-61 0 -61 68q0 16 10 47.5t37 77.5q-59 -59 -99 -96.5t-70 -59t-54.5 -28.5t-53.5 -7q-33 0 -57.5 22.5t-24.5 59.5 z" />
<glyph unicode="v" horiz-adv-x="681" d="M-18 346q0 4 11 16.5t25 28.5q47 47 81 78t59.5 49.5t47 25.5t42.5 7q41 0 61.5 -21.5t20.5 -52.5q0 -41 -28 -86t-75 -100q-66 -78 -111.5 -132.5t-45.5 -84.5q0 -16 9 -26.5t23 -10.5q27 0 72 29.5t92 71.5t91 87t71 78q-16 23 -22.5 45.5t-6.5 34.5q0 29 10.5 57.5 t26 51t36 37t42.5 14.5q23 0 36 -16.5t13 -39.5q0 -45 -23.5 -85t-70.5 -93q16 -8 29.5 -11t31.5 -3q33 0 69 14.5t71 50.5q23 23 28 23q8 0 9 -8q0 -10 -11.5 -21.5t-38.5 -34.5q-29 -27 -64.5 -38t-64.5 -11q-20 0 -35 3.5t-42 13.5q-49 -61 -102.5 -113.5t-103.5 -91.5 t-96.5 -61.5t-82.5 -22.5q-31 0 -52.5 22.5t-21.5 57.5q0 45 31.5 97t113.5 142q39 43 60.5 70t33 44.5t13.5 28.5t2 21q0 33 -29 33q-16 0 -36.5 -13.5t-44 -32.5t-47 -43t-44.5 -42q-20 -20 -34.5 -32.5t-20.5 -12.5q-8 0 -8 8zM426 383q0 -32 20 -59q41 45 66 83.5 t25 73.5q0 33 -29 33q-14 0 -28.5 -12.5t-27 -30.5t-19.5 -41.5t-7 -46.5z" />
<glyph unicode="w" horiz-adv-x="757" d="M-182 84q0 16 3 32.5t14 38t29.5 50t49.5 69.5l199 258l118 13l-231 -299q-39 -49 -61.5 -80t-33.5 -49.5t-14.5 -29.5t-3.5 -19t7.5 -19.5t23.5 -11.5q27 0 70 28.5t95 76.5t109.5 111.5t112.5 133.5l117 148l113 10l-244 -312q-51 -66 -72.5 -99.5t-21.5 -57.5 q0 -39 34 -39q27 0 69 26.5t87 65.5t87 83t71 81q-14 23 -18.5 37t-4.5 45q0 20 10.5 49t29 54.5t42 43t49.5 17.5q37 0 37 -43q0 -16 -3 -33t-14 -39.5t-31.5 -53t-55.5 -73.5q10 -8 21 -10t22 -2q18 0 41.5 13t74.5 64l15.5 15.5t13.5 5.5t8 -8q0 -4 -11 -18.5t-21 -24.5 q-23 -25 -55.5 -47.5t-63.5 -22.5q-10 0 -24.5 2t-37.5 10q-39 -47 -86 -96t-95 -88t-93 -63.5t-78 -24.5q-31 0 -57.5 20.5t-26.5 59.5q0 16 3 34.5t18 55.5q-59 -53 -97.5 -86t-66 -53.5t-48 -27.5t-40.5 -7q-33 0 -58.5 22.5t-25.5 63.5zM549 358q0 -16 14 -43 q45 55 73 100.5t28 76.5q0 22 -17 22h-2q-14 0 -30.5 -14.5t-31 -36t-24.5 -50t-10 -55.5z" />
<glyph unicode="x" d="M-242 53q0 16 11.5 28.5t27.5 12.5t24.5 -10t8.5 -25q0 -10 -4 -22q6 -4 11 -4h9q25 0 73 33.5t144 136.5q98 106 141.5 170.5t43.5 99.5t-33 35q-29 0 -65.5 -29.5t-102.5 -93.5q-27 -25 -38 -36t-19 -11t-8 10q0 6 53 60q43 41 70.5 67.5t49 41.5t39 20.5t39.5 5.5 q39 0 60.5 -19.5t21.5 -54.5q0 -10 -4 -25.5t-18 -44.5q72 68 128 105t105 37q23 0 38.5 -13.5t15.5 -31.5q0 -16 -13.5 -28.5t-29.5 -12.5q-14 0 -21.5 6t-12.5 14t-9.5 14.5t-12.5 6.5q-12 0 -34.5 -12.5t-48 -31t-52.5 -41t-45 -44.5q-119 -137 -166 -210t-47 -87 q0 -16 11.5 -29.5t31.5 -13.5q18 0 51 11t80 44t132 100.5t169 149.5q33 31 45.5 42t16.5 11q6 0 6 -8q-1 -13 -17 -29q-27 -27 -67.5 -64.5t-87.5 -77.5t-95.5 -80t-91.5 -69q-29 -20 -50 -31.5t-37.5 -17.5t-31 -7t-28.5 -1q-43 0 -67.5 21.5t-24.5 64.5q0 10 6 45 q-49 -41 -80 -66.5t-54.5 -40t-42 -19.5t-40.5 -5q-27 0 -45.5 15.5t-18.5 37.5z" />
<glyph unicode="y" horiz-adv-x="796" d="M-461 -541q0 23 13.5 55.5t37 68.5t58.5 74t78 71q63 49 128.5 90t126 71.5t110.5 52t85 31.5l115 170q-18 -12 -45 -33.5t-57.5 -42t-63.5 -35t-62 -14.5t-51 16.5t-22 53.5q0 12 3 29.5t18.5 46.5t47 73t86.5 109q61 72 76 99.5t15 43.5q0 23 -27 23q-10 0 -19.5 -3 t-27 -15.5t-43 -35t-66.5 -61.5q-29 -27 -38 -40t-19 -13q-8 0 -8 8q0 6 10 18.5t33 35.5q76 82 123 114.5t90 32.5q27 0 50 -18.5t23 -47.5q0 -37 -29.5 -86t-70.5 -100q-25 -31 -51.5 -61.5t-48 -58t-35.5 -52.5t-14 -43q0 -12 6 -21.5t22 -9.5q23 0 75 34t138 112 t163 168t136 166l113 12l-408 -518q80 31 142.5 62.5t117 69.5t102.5 83t97 102q10 10 19.5 20.5t13.5 10.5q10 0 10 -10q0 -6 -11.5 -18.5t-15.5 -16.5q-57 -63 -111 -113.5t-113.5 -91.5t-128 -76t-154.5 -67q-113 -139 -213.5 -249t-185.5 -187.5t-152.5 -118.5 t-114.5 -41q-29 0 -52.5 19.5t-23.5 51.5zM-432 -537q0 -23 13 -36t36 -13q39 0 99.5 41t130 110.5t146.5 164t150 198.5q-55 -23 -111.5 -49t-105.5 -53t-86 -50.5t-53 -37.5q-123 -100 -171 -170t-48 -105z" />
<glyph unicode="z" horiz-adv-x="681" d="M-508 -545q0 53 40 127t105.5 148.5t147.5 143.5t166 110l-4 24q-41 -12 -64.5 -16t-34.5 -4q-25 0 -42 12t-17 33q0 20 23.5 40.5t58.5 20.5q18 0 50 -8t56 -18l80 48t64 42.5t55.5 45t54.5 54.5q68 72 98.5 124t30.5 87q0 20 -14 33.5t-41 13.5q-33 0 -66.5 -11 t-66.5 -28.5t-60.5 -38t-45.5 -39.5q-41 -41 -59.5 -54t-22.5 -13q-8 0 -9 8q0 2 2.5 5t9.5 11.5t21.5 21.5t36.5 36q78 72 147.5 103.5t133.5 31.5q47 0 79.5 -24.5t32.5 -88.5q0 -117 -113.5 -213t-310.5 -182l13 -39q125 35 221 79t170 88t127 87t92 76q25 20 41 37.5 t24 17.5q12 0 13 -8q0 -10 -24 -31t-38 -35q-121 -123 -285.5 -209t-338.5 -137q2 -8 2 -17v-13q0 -82 -49.5 -182.5t-137.5 -198.5q-94 -104 -163.5 -145.5t-112.5 -41.5q-29 0 -52.5 22.5t-23.5 63.5zM-473 -545q0 -25 14.5 -39t26.5 -14t28.5 5t38 21.5t51 47.5t70.5 84 q104 131 149.5 233.5t45.5 145.5q-74 -37 -149.5 -100.5t-137 -134.5t-99.5 -137.5t-38 -111.5zM-170 35q0 -19 29 -19q12 0 26.5 6.5t44.5 24.5q-39 16 -55 16q-18 0 -31.5 -9t-13.5 -19z" />
<glyph unicode="{" horiz-adv-x="1062" d="M401 514v51q57 31 100.5 60.5t72 60.5t42 66.5t13.5 81.5q0 20 -3 46.5t-10 55.5q-27 123 -34 179t-7 81q0 63 35 131t84 109q27 20 55.5 36.5t65.5 30t83 25.5t106 24v-57q-111 -39 -162 -104q-18 -27 -38 -84.5t-20 -114.5q0 -12 4.5 -59.5t9.5 -101.5t9 -100t4 -57 q0 -94 -72.5 -176t-244.5 -155q178 -74 247.5 -167.5t69.5 -193.5q0 -23 -5 -76t-20 -163q-2 -23 -3 -46.5t-1 -46.5q0 -59 14.5 -101t55.5 -95q23 -29 54.5 -47.5t97.5 -38.5v-51q-51 6 -92.5 13t-76 19.5t-67.5 32t-70 47.5q-72 59 -100.5 115.5t-28.5 120.5 q0 45 8.5 103.5t22.5 117.5q16 63 21.5 104t5.5 64q0 100 -65.5 161.5t-160.5 98.5z" />
<glyph unicode="|" horiz-adv-x="645" d="M47 145q0 74 42 141.5t106 125.5q33 27 70.5 50t77.5 39.5t77 27t67 10.5q33 0 56.5 -19.5t23.5 -48.5q0 -23 -17.5 -38t-39.5 -15q-37 0 -37 31q0 14 7 20t16.5 10t16.5 6t7 7q0 10 -9 14t-19 4q-18 0 -47 -11.5t-62 -33t-66.5 -50t-64.5 -63.5q-53 -59 -90 -129.5 t-37 -126.5q0 -63 53 -63q43 0 104.5 33.5t125 82t122 102.5t93.5 95q20 29 32 29t13 -10q0 -4 -12.5 -17.5t-16.5 -17.5q-59 -66 -120.5 -125.5t-122 -105.5t-115 -73.5t-99.5 -27.5q-59 0 -97 39t-38 108zM279 1243q0 10 16 26.5t45 47.5t63.5 78t59.5 102 q-12 12 -18.5 24.5t-6.5 30.5q0 31 17.5 49.5t40.5 18.5q18 0 31.5 -11.5t13.5 -31.5q0 -23 -28 -83t-81 -122q-61 -74 -94 -106.5t-47 -32.5q-12 0 -12 10z" />
<glyph unicode="}" horiz-adv-x="1062" d="M367 -428q121 43 170 115.5t49 199.5q0 57 -13 148q-10 66 -12 97.5t-2 47.5q0 49 16.5 96.5t53.5 90.5t98 82.5t152 76.5q-96 35 -159 78t-99.5 91t-51 98.5t-14.5 97.5q0 29 3 62.5t7 68.5q12 90 16.5 137t4.5 66q0 98 -72 188q-29 33 -57.5 50.5t-89.5 35.5v55 q96 -12 175 -43.5t135 -79t87 -107.5t31 -130q0 -29 -1 -50.5t-6.5 -49l-13.5 -67.5t-20 -101q-12 -68 -13 -109q0 -78 53.5 -146.5t172.5 -115.5v-53q-111 -53 -168.5 -112.5t-57.5 -143.5q0 -18 2 -37t6.5 -44.5t11.5 -64.5t19 -98q10 -41 13.5 -73.5t3.5 -55.5 q0 -29 -9.5 -61.5t-24.5 -64.5t-36.5 -61.5t-46.5 -50.5q-59 -49 -137 -74.5t-176 -41.5v53z" />
<glyph unicode="~" horiz-adv-x="872" d="M-135 12q0 8 24 27q76 51 136.5 100t124 110.5t138 142.5t177.5 198q4 41 17.5 67.5t39.5 26.5q33 0 33 -33q0 -16 -9 -31.5t-38 -46.5q8 -16 21.5 -38.5t25.5 -49t21.5 -54.5t9.5 -54q0 -111 -78 -203t-215 -147q78 8 161 47t154.5 84t124.5 88t74 61q23 23 43 44.5 t29 21.5q12 0 12 -13q0 -10 -41 -51q-37 -39 -105.5 -92t-151.5 -102t-172 -84t-167 -35q-70 0 -105.5 28.5t-35.5 73.5q0 35 26.5 65t61.5 30q45 0 45 -39q0 -29 -33 -33q-29 -4 -47.5 -10.5t-18.5 -28.5q0 -20 19.5 -33.5t44.5 -13.5q39 0 91 32.5t112 118.5 q33 47 62.5 116t29.5 144q0 23 -6 44.5t-27 62.5q-80 -92 -139.5 -158.5t-109.5 -118t-96 -92.5t-101 -80q-16 -12 -38 -29.5t-44.5 -33.5t-41 -28.5t-26.5 -12.5q-12 0 -12 12zM436 1243q0 10 16.5 26.5t45.5 47.5t63.5 78t59.5 102q-12 12 -18.5 24.5t-6.5 30.5 q0 31 17.5 49.5t39.5 18.5q18 0 31.5 -11.5t13.5 -31.5q0 -23 -27.5 -83t-80.5 -122q-61 -74 -94 -106.5t-47 -32.5q-12 0 -13 10z" />
<glyph unicode="&#xa1;" horiz-adv-x="796" d="M205 -33l129 656q4 16 6 30.5t2 18.5q0 47 -63 53l4 25h227l-6 -27q-45 -2 -63.5 -24.5t-28.5 -75.5l-101 -504l447 491q27 29 37 44.5t10 29.5q0 35 -62 35l9 31h227l-6 -29q-27 -4 -43.5 -8t-33.5 -15.5t-36.5 -33t-52.5 -56.5l-580 -635z" />
<glyph unicode="&#xa2;" d="M2 -137q0 10 5 15t16 22l90 118q-25 27 -38.5 55.5t-13.5 69.5q0 59 31 117.5t92 124.5q43 45 89 74.5t87 46t76 23t58 6.5l47 61q18 25 28 25q12 0 13 -13q0 -2 -6.5 -11t-8.5 -11l-43 -60q33 -14 44.5 -27.5t11.5 -29.5t-15.5 -33.5t-38.5 -17.5q-14 0 -21 7t-7 15 q0 20 41 41q-10 10 -14.5 13.5t-24.5 3.5l-336 -463q12 -2 26.5 -4t24.5 -2q20 0 40.5 8t40 20.5t38 24.5t35.5 20q6 2 12 7.5t12 5.5q10 0 10 -9q0 -4 -16 -20.5t-45 -34.5q-31 -23 -68.5 -37t-78.5 -14h-23.5t-30.5 2l-92 -121q-6 -10 -14 -20.5t-21 -10.5q-12 0 -12 13z M135 125q0 -23 3 -36t7 -26l322 435q-23 -8 -44.5 -17.5t-45 -26t-52 -42t-65.5 -64.5q-78 -86 -101.5 -144.5t-23.5 -78.5z" />
<glyph unicode="&#xa3;" horiz-adv-x="720" d="M-158 45q0 29 27 47.5t74 18.5q33 0 72.5 -9.5t109.5 -38.5q27 33 44 58.5t31.5 54.5t29 63.5t34.5 86.5h-139l14 36h146l43 103q66 160 149.5 238.5t161.5 78.5q59 0 105.5 -40t46.5 -101q0 -53 -41 -97t-113 -44q-23 0 -23 14q0 10 17 12q51 10 88 36t37 79 q0 47 -34 74.5t-65 27.5q-119 0 -239 -280l-43 -101h184l-14 -36h-185q-18 -47 -37.5 -86t-44 -73t-53 -65.5t-63.5 -64.5q53 -23 83.5 -30t63.5 -7q82 0 143.5 31.5t112.5 93.5q4 4 9.5 9t9.5 5q12 0 12 -10t-12.5 -25.5t-32 -34t-42 -36t-40.5 -27.5q-33 -16 -70 -26.5 t-82 -10.5q-43 0 -80.5 8.5t-103.5 34.5q-35 -23 -69.5 -36t-88.5 -13q-57 0 -95 23.5t-38 58.5zM-127 43q0 -20 24.5 -34.5t77.5 -14.5q35 0 63 8t68 31q-61 29 -97 38t-72 9q-63 0 -64 -37z" />
<glyph unicode="&#xa4;" d="M-156 88q0 47 28 72.5t58 25.5q47 0 47 -32q0 -23 -15 -30t-46 -9q-41 -4 -41 -35q0 -18 17.5 -34.5t41.5 -16.5q53 0 108.5 43t99.5 105.5t73 132t29 124.5q0 43 -9.5 67.5t-27.5 51.5q-37 -41 -73 -77l-79 -79q-18 -18 -35.5 -38.5t-27.5 -20.5q-8 0 -8 10q0 6 5 10 t17 19q20 20 47 48t54.5 56.5t51 56t40.5 48.5q4 41 16 70.5t41 29.5q10 0 19.5 -9t9.5 -26q0 -20 -10.5 -38.5t-32.5 -43.5q45 -72 62.5 -110.5t17.5 -83.5q0 -109 -76 -196t-211 -152q61 0 136 33.5t143.5 77.5t121.5 86t72 59q47 41 71.5 65.5t32.5 24.5q10 0 11 -8 q0 -10 -29.5 -41t-97.5 -84q-41 -31 -95.5 -72t-119 -78t-136 -63.5t-147.5 -26.5q-74 0 -114 20.5t-40 67.5zM187 854q0 8 5 15.5t11 7.5q8 0 16.5 -9.5t18.5 -31.5l47 -107l176 127q23 16 29 19.5t12 3.5q20 0 20 -19q0 -10 -6 -18t-28 -27l-140 -121q-31 -29 -46 -38 t-40 -9t-29.5 10.5t-11.5 38.5l-28 125q-6 25 -6 33z" />
<glyph unicode="&#xa5;" horiz-adv-x="948" d="M244 303l20 45h185q6 8 11 23.5t11 38.5h-192l20 45h182q6 25 10.5 43t7.5 37.5t5 42t2 57.5q0 57 -28.5 100t-82.5 43q-16 0 -30.5 -4t-42.5 -14q-10 -4 -17.5 -9.5t-13.5 -5.5q-10 0 -10 9q0 10 16 20t37.5 18.5t43 13.5t32.5 5q39 0 72.5 -23.5t58 -60.5t39 -84 t14.5 -94q0 -35 -6 -67.5t-17 -69.5q76 113 131.5 189.5t99.5 123.5t80 68.5t70 21.5q8 0 26.5 -4t37 -12t32 -17.5t13.5 -21.5t-12 -12q-2 0 -7.5 1t-21.5 11q-25 14 -36 18t-28 4q-29 0 -56.5 -12t-62 -48t-83.5 -100.5t-123 -166.5h180l-20 -45h-191q-10 -18 -21.5 -35 t-17.5 -27h215l-20 -45h-215l-144 -303h-114l145 303h-184z" />
<glyph unicode="&#xa7;" horiz-adv-x="1099" d="M-20 229q0 4 6 11.5t28 25.5q33 27 75 67t85 83l83 83t65 68q2 29 12 51.5t35 22.5t24 -23q0 -25 -37 -51q16 -8 27.5 -11t30.5 -3q33 0 55 8q4 0 7 3t5 3q2 -2 6 -4q6 -6 7 -10q0 -2 -9.5 -10t-19.5 -19q-23 -23 -56.5 -58.5t-64.5 -72.5t-53.5 -67.5t-22.5 -42.5 t8.5 -19.5t18.5 -7.5q14 0 47 18.5t86 53.5q18 12 30.5 21t23 21.5t24.5 29t39 40.5q72 72 126 103.5t107 31.5q43 0 52.5 -14t9.5 -39l270 361h57l-411 -549q-31 -43 -31 -64q0 -20 18 -20q20 0 65.5 36t96.5 95q16 18 24.5 26.5t14.5 8.5q10 0 10 -10t-12.5 -26t-28.5 -34 q-18 -20 -40.5 -42.5t-47 -41t-49 -31t-45.5 -12.5q-25 0 -42 13.5t-17 33.5q0 6 2 16.5t8 24.5q-57 -49 -91 -71.5t-67 -22.5q-29 0 -47 16.5t-18 44.5q0 20 12 56q-86 -63 -133 -86t-82 -23q-23 0 -38 13.5t-15 35.5q0 59 63.5 128t159.5 128h-35t-20.5 2t-15.5 5.5 t-17 9.5q-61 -66 -108.5 -113t-83 -81t-61.5 -56.5t-44 -38.5q-25 -23 -33 -30t-16 -7q-12 0 -12 12zM158 6q0 4 3 9t7 10l59 94q6 10 11.5 15t27.5 5q27 0 33 -1t6 -5q0 -8 -14 -20l-105 -103q-14 -14 -18 -14q-10 0 -10 10zM315 6q0 4 3.5 9t7.5 10l59 94q6 10 11 15t28 5 q27 0 33 -1t6 -5q0 -8 -14 -20l-105 -103q-14 -14 -18 -14q-10 0 -11 10zM512 279q0 -33 29 -33q37 0 88 45t114 125q6 6 17.5 19.5t23 30.5t19.5 33.5t8 28.5q0 14 -9 21.5t-20 7.5q-31 0 -79 -39t-119 -115q-29 -33 -50.5 -67.5t-21.5 -56.5z" />
<glyph unicode="&#xa8;" horiz-adv-x="409" d="M117 700q0 33 26.5 56.5t55.5 23.5q49 0 49 -39q0 -35 -26.5 -62.5t-61.5 -27.5q-18 0 -30.5 14.5t-12.5 34.5zM362 698q0 31 27 55.5t57 24.5q23 0 36.5 -12.5t13.5 -28.5q0 -35 -27 -61.5t-61 -26.5q-20 0 -33 13.5t-13 35.5z" />
<glyph unicode="&#xa9;" horiz-adv-x="0" d="M-418 12q0 10 21 21q49 27 99 63.5t93 73.5t77 69.5t54 55.5q35 35 53.5 54.5t28.5 19.5t10 -11q0 -6 -9 -16.5t-23 -26.5q-23 -27 -64 -66.5t-90 -82.5t-97 -80t-85 -57q-16 -14 -32.5 -22.5t-23.5 -8.5q-12 0 -12 14z" />
<glyph unicode="&#xab;" horiz-adv-x="757" d="M100 295l181 207h75l-186 -213l74 -258h-64zM287 283l198 219h76l-205 -226l74 -258h-63z" />
<glyph unicode="&#xac;" horiz-adv-x="796" d="M-18 0l8 23q18 4 33.5 10t35 18t46 32.5t65.5 57.5l260 242l-29 258q-6 49 -18 66.5t-55 17.5l10 25h199v-23q-39 -6 -53.5 -19.5t-14.5 -39.5q0 -6 1 -17.5t1 -19.5l21 -191l198 183q31 29 43 45t12 28q0 27 -45 27l7 27h217l-4 -19q-23 -4 -39.5 -9t-31.5 -14.5 t-31.5 -23.5t-41.5 -39l-278 -254l26 -260q4 -31 8.5 -50.5t11.5 -30.5t21.5 -17t36.5 -13v-20h-213l4 23q35 4 51.5 14t16.5 37v13t-2 26l-23 221l-254 -234q-35 -35 -35 -45q0 -18 20.5 -25t49.5 -7l-6 -23h-229z" />
<glyph unicode="&#xad;" horiz-adv-x="681" d="M86 270l39 68h426l-45 -68h-420z" />
<glyph unicode="&#xae;" horiz-adv-x="1214" d="M-43 215q0 6 11.5 17.5t42 39t82.5 77.5t132 134q43 43 70 62.5t57 19.5q45 0 45 -41q0 -8 -2 -17t-8 -34q59 51 100 71.5t68 20.5q51 0 51 -47q0 -16 -4 -29.5t-16.5 -33t-33 -46t-52.5 -65.5q-29 -35 -39 -51.5t-10 -32.5q0 -20 18 -20q23 0 51.5 20.5t59 51t63.5 65.5 t62 63q72 72 126 103.5t107 31.5q43 0 52 -14t9 -39l271 361h57l-412 -549q-31 -43 -30 -64q0 -20 18 -20q20 0 65.5 36t96.5 95q16 18 24.5 26.5t14.5 8.5q10 0 10 -10t-12.5 -26t-28.5 -34q-18 -20 -40.5 -42.5t-47 -41t-49.5 -31t-45 -12.5q-25 0 -42.5 13.5t-17.5 33.5 q0 6 2.5 16.5t8.5 24.5q-57 -49 -91 -71.5t-67 -22.5q-29 0 -47.5 16.5t-18.5 44.5v15.5t-2 19.5q-57 -55 -95 -79.5t-79 -24.5q-25 0 -42 16.5t-17 38.5q0 27 23.5 63.5t52.5 73.5t54.5 70t25.5 49t-17 16q-20 0 -63 -33.5t-84 -74.5q-16 -16 -29.5 -30.5t-32 -36 t-47 -55.5t-76.5 -91l-79 -12l178 217q41 47 52 63.5t11 26.5q0 20 -22 20q-10 0 -27.5 -11t-54.5 -50l-22.5 -22.5t-48 -50.5t-61.5 -62.5t-63.5 -60t-52.5 -46t-31 -18.5q-12 0 -12 10zM242 6q0 4 3 9t7 10l59 94q6 10 11.5 15t27.5 5q27 0 33 -1t6 -5q0 -8 -14 -20 l-105 -103q-14 -14 -18 -14q-10 0 -10 10zM399 6q0 4 3.5 9t7.5 10l59 94q6 10 11 15t28 5q27 0 33 -1t6 -5q0 -8 -15 -20l-104 -103q-14 -14 -18 -14q-10 0 -11 10zM672 279q-1 -33 28 -33q37 0 88.5 45t114.5 125q6 6 17.5 19.5t22.5 30.5t19.5 33.5t8.5 28.5 q0 14 -9.5 21.5t-19.5 7.5q-31 0 -79 -39t-120 -115q-29 -33 -50 -67.5t-21 -56.5z" />
<glyph unicode="&#xb0;" horiz-adv-x="796" d="M160 739q0 63 41 133t104.5 126.5t140 93t146.5 36.5q31 0 54.5 -13t23.5 -40q0 -23 -23.5 -44t-48.5 -21q-33 0 -33 28q0 23 31 39q4 2 9 6t5 9q0 4 -4 7t-20 3q-20 0 -49 -12.5t-60 -34t-63.5 -49t-59.5 -58.5q-66 -72 -93.5 -129t-27.5 -104q0 -41 20.5 -67.5 t55.5 -26.5q27 0 50.5 10t44 24.5t38 29.5t29.5 26q27 23 35 28.5t16 5.5q12 0 13 -10q0 -4 -21.5 -25t-52.5 -46q-37 -31 -78 -50.5t-88 -19.5q-63 0 -99 40t-36 105z" />
<glyph unicode="&#xb4;" horiz-adv-x="409" d="M229 674q0 10 8.5 17t49.5 36l139 98q33 23 46 30t22 7q12 0 22 -10t10 -25q0 -16 -12 -24t-41 -25l-168 -92q-33 -18 -42 -23.5t-19 -5.5q-14 0 -15 17z" />
<glyph unicode="&#xb6;" horiz-adv-x="1366" d="M252 340q0 4 63 115q31 53 69 115.5t91 131.5q-29 -31 -57.5 -63.5t-57.5 -58.5q-25 -25 -43 -25q-8 0 -8 8q0 6 9.5 17.5t37.5 35.5l131 132q37 39 46.5 46t19.5 7q23 0 22 -10q0 -6 -4 -14.5t-8 -12.5q-51 -72 -115.5 -176.5t-119.5 -222.5q-10 -20 -19.5 -28.5 t-29.5 -8.5q-27 0 -27 12zM293 -55l678 899l65 12l-680 -903zM766 49q0 27 14.5 51.5t36 43t49 29.5t56.5 11q33 0 49 -17t16 -40q0 -35 -32.5 -58.5t-73.5 -23.5q-12 0 -13 6q0 4 2 4t7 4q31 18 51 28.5t20 49.5q0 10 -9 18.5t-24 8.5q-18 0 -37.5 -10.5t-36 -26.5 t-26.5 -36.5t-10 -39.5q0 -27 20.5 -45t42.5 -18q39 0 79 28.5t69 61.5q20 23 31.5 50.5t11.5 43.5q0 4 -1 10t-3 17q-49 0 -75 4t-26 26q0 10 14.5 18.5t35.5 8.5q18 0 33.5 -4t43.5 -21q39 31 70 68t31 72q0 4 -1 9t-10 15q-33 -53 -60.5 -73.5t-55.5 -20.5 q-18 0 -34.5 11.5t-16.5 27.5q0 33 38.5 58.5t94.5 37.5q0 10 -9.5 25.5t-37.5 15.5q-10 0 -23.5 -2t-19.5 -2q-10 0 -11 8q0 10 17.5 15.5t44.5 5.5q18 0 43.5 -11.5t40.5 -58.5q31 -10 41 -26.5t10 -34.5q0 -63 -37 -101.5t-92 -60.5q12 -23 14 -37t2 -20q0 -35 -21.5 -69 t-55 -61.5t-74.5 -44t-80 -16.5q-49 0 -86 25.5t-37 62.5zM999 227q1 -8 19 -8q8 0 20 6q-14 8 -26 8t-13 -6zM1042 348q0 -4 4.5 -11t14.5 -7q27 0 47 21.5t27 58.5q-16 0 -32 -7.5t-30 -16.5t-22.5 -19.5t-8.5 -18.5z" />
<glyph unicode="&#xb7;" horiz-adv-x="681" d="M-508 -545q0 53 40 127t105.5 148.5t147.5 143.5t166 110l-4 24q-41 -12 -64.5 -16t-34.5 -4q-25 0 -42 12t-17 33q0 20 23.5 40.5t58.5 20.5q18 0 50 -8t56 -18l80 48t64 42.5t55.5 45t54.5 54.5q68 72 98.5 124t30.5 87q0 20 -14 33.5t-41 13.5q-33 0 -66.5 -11 t-66.5 -28.5t-60.5 -38t-45.5 -39.5q-41 -41 -59.5 -54t-22.5 -13q-8 0 -9 8q0 2 2.5 5t9.5 11.5t21.5 21.5t36.5 36q78 72 147.5 103.5t133.5 31.5q47 0 79.5 -24.5t32.5 -88.5q0 -117 -113.5 -213t-310.5 -182l13 -39q125 35 221 79t170 88t127 87t92 76q25 20 41 37.5 t24 17.5q12 0 13 -8q0 -10 -24 -31t-38 -35q-121 -123 -285.5 -209t-338.5 -137q2 -8 2 -17v-13q0 -82 -49.5 -182.5t-137.5 -198.5q-94 -104 -163.5 -145.5t-112.5 -41.5q-29 0 -52.5 22.5t-23.5 63.5zM-473 -545q0 -25 14.5 -39t26.5 -14t28.5 5t38 21.5t51 47.5t70.5 84 q104 131 149.5 233.5t45.5 145.5q-74 -37 -149.5 -100.5t-137 -134.5t-99.5 -137.5t-38 -111.5zM-170 35q0 -19 29 -19q12 0 26.5 6.5t44.5 24.5q-39 16 -55 16q-18 0 -31.5 -9t-13.5 -19zM287 854q0 8 5 15.5t11 7.5q8 0 16.5 -9.5t18.5 -31.5l47 -107l176 127 q23 16 29 19.5t12 3.5q20 0 20 -19q0 -10 -6 -18t-28 -27l-140 -121q-31 -29 -46 -38t-40 -9t-29.5 10.5t-11.5 38.5l-28 125q-6 25 -6 33z" />
<glyph unicode="&#xbb;" horiz-adv-x="757" d="M37 18l205 226l-74 258h63l80 -264l-198 -220h-76zM242 18l186 213l-74 258h64l80 -264l-181 -207h-75z" />
<glyph unicode="&#xbf;" horiz-adv-x="417" d="M-129 0l14 27q25 0 40.5 4t29.5 13t28.5 27.5t32.5 47.5l332 493q37 53 37 76t-17.5 30t-41.5 7l16 23h242l-15 -27q-37 -4 -55 -19.5t-51 -60.5l-369 -539q-23 -35 -22 -49q0 -12 15 -21t46 -12l-14 -20h-248z" />
<glyph unicode="&#xc0;" horiz-adv-x="2238" d="M6 569q0 117 58.5 226.5t175.5 193.5q49 35 98 60.5t108.5 45t134 33t173.5 23.5q119 59 225 90t223 31q74 0 136.5 -16.5t108.5 -47t72.5 -78t26.5 -108.5q0 -78 -25.5 -151.5t-71.5 -143.5t-109.5 -134.5t-139.5 -121.5q-160 -123 -331 -190.5t-367 -67.5q-49 0 -87 4 t-104 16q61 -86 137 -125.5t189 -39.5q211 0 428 114.5t463 354.5h-152q-29 0 -28 14q0 18 28 18h183q23 18 70.5 63.5t110 104t133.5 125t137.5 129t123.5 115.5t94 86q156 139 248 201.5t147 62.5q51 0 52 -39q0 -16 -13.5 -41.5t-33.5 -48.5q-14 -18 -50 -65.5 t-81.5 -111t-95.5 -134t-95 -134t-80 -113.5t-49 -71q-82 -123 -145.5 -226t-107.5 -182t-66.5 -130t-22.5 -70q0 -35 27 -35q20 0 52 18.5t68.5 49.5t77.5 69.5t82 79.5t71 72t34 31t4 -6q0 -10 -19.5 -36t-52.5 -61q-37 -41 -87 -88t-100 -88t-97.5 -68.5t-79.5 -27.5 q-39 0 -59.5 27.5t-20.5 64.5q0 45 16 102.5t43 117t58.5 117.5t60.5 108h-215q-86 -90 -151.5 -151.5t-121 -107t-103.5 -77t-99 -58.5q-137 -76 -263 -110.5t-249 -34.5q-78 0 -140.5 12.5t-117 42t-99.5 76.5t-86 115q-53 18 -100 49t-83 72t-57.5 92t-21.5 112zM33 569 q0 -53 17.5 -97t48 -80t71.5 -62.5t86 -46.5q-10 39 -12 61t-2 53q0 86 29.5 181.5t85 189.5t136 182t183.5 160q-113 -10 -219.5 -45t-198.5 -100q-35 -25 -75 -66t-73.5 -93t-55 -112.5t-21.5 -124.5zM270 406q0 -39 5.5 -66t17.5 -68q61 -14 109.5 -21t123.5 -7 q117 0 241 37t230 94q154 80 254.5 173t158.5 181t82 164t24 125q0 109 -85 168t-214 59q-102 0 -195.5 -23.5t-198.5 -70.5q41 -4 104.5 -14.5t114.5 -26.5q31 -10 53.5 -21.5t22.5 -25.5q0 -10 -10 -10q-14 0 -33.5 9t-54.5 19q-41 12 -103.5 22.5t-162.5 14.5 q-111 -66 -200 -150.5t-152.5 -178t-97.5 -192.5t-34 -191zM1726 569h203q180 250 321.5 415t225.5 257q20 23 46 50.5t48.5 51t37.5 42t15 22.5q0 10 -14 10q-25 0 -55.5 -15.5t-65 -39t-68.5 -53t-65 -58.5q-25 -23 -72 -74t-107 -115.5t-127 -138t-129 -141t-113.5 -125 t-80.5 -88.5zM2531 1816q0 14 10.5 25.5t24.5 11.5q10 0 17.5 -4t35.5 -27l177 -133q14 -10 20 -16t6 -16q0 -16 -20 -17q-10 4 -19.5 9.5t-13.5 9.5l-191 110q-29 16 -38 23.5t-9 23.5z" />
<glyph unicode="&#xc1;" horiz-adv-x="2238" d="M6 569q0 117 58.5 226.5t175.5 193.5q49 35 98 60.5t108.5 45t134 33t173.5 23.5q119 59 225 90t223 31q74 0 136.5 -16.5t108.5 -47t72.5 -78t26.5 -108.5q0 -78 -25.5 -151.5t-71.5 -143.5t-109.5 -134.5t-139.5 -121.5q-160 -123 -331 -190.5t-367 -67.5q-49 0 -87 4 t-104 16q61 -86 137 -125.5t189 -39.5q211 0 428 114.5t463 354.5h-152q-29 0 -28 14q0 18 28 18h183q23 18 70.5 63.5t110 104t133.5 125t137.5 129t123.5 115.5t94 86q156 139 248 201.5t147 62.5q51 0 52 -39q0 -16 -13.5 -41.5t-33.5 -48.5q-14 -18 -50 -65.5 t-81.5 -111t-95.5 -134t-95 -134t-80 -113.5t-49 -71q-82 -123 -145.5 -226t-107.5 -182t-66.5 -130t-22.5 -70q0 -35 27 -35q20 0 52 18.5t68.5 49.5t77.5 69.5t82 79.5t71 72t34 31t4 -6q0 -10 -19.5 -36t-52.5 -61q-37 -41 -87 -88t-100 -88t-97.5 -68.5t-79.5 -27.5 q-39 0 -59.5 27.5t-20.5 64.5q0 45 16 102.5t43 117t58.5 117.5t60.5 108h-215q-86 -90 -151.5 -151.5t-121 -107t-103.5 -77t-99 -58.5q-137 -76 -263 -110.5t-249 -34.5q-78 0 -140.5 12.5t-117 42t-99.5 76.5t-86 115q-53 18 -100 49t-83 72t-57.5 92t-21.5 112zM33 569 q0 -53 17.5 -97t48 -80t71.5 -62.5t86 -46.5q-10 39 -12 61t-2 53q0 86 29.5 181.5t85 189.5t136 182t183.5 160q-113 -10 -219.5 -45t-198.5 -100q-35 -25 -75 -66t-73.5 -93t-55 -112.5t-21.5 -124.5zM270 406q0 -39 5.5 -66t17.5 -68q61 -14 109.5 -21t123.5 -7 q117 0 241 37t230 94q154 80 254.5 173t158.5 181t82 164t24 125q0 109 -85 168t-214 59q-102 0 -195.5 -23.5t-198.5 -70.5q41 -4 104.5 -14.5t114.5 -26.5q31 -10 53.5 -21.5t22.5 -25.5q0 -10 -10 -10q-14 0 -33.5 9t-54.5 19q-41 12 -103.5 22.5t-162.5 14.5 q-111 -66 -200 -150.5t-152.5 -178t-97.5 -192.5t-34 -191zM1726 569h203q180 250 321.5 415t225.5 257q20 23 46 50.5t48.5 51t37.5 42t15 22.5q0 10 -14 10q-25 0 -55.5 -15.5t-65 -39t-68.5 -53t-65 -58.5q-25 -23 -72 -74t-107 -115.5t-127 -138t-129 -141t-113.5 -125 t-80.5 -88.5zM2594 1657q0 10 8.5 17t49.5 36l139 98q33 23 46 30t22 7q12 0 22 -10t10 -25q0 -16 -12 -24t-41 -25l-168 -92q-33 -18 -42 -23.5t-19 -5.5q-14 0 -15 17z" />
<glyph unicode="&#xc2;" horiz-adv-x="2238" d="M6 569q0 117 58.5 226.5t175.5 193.5q49 35 98 60.5t108.5 45t134 33t173.5 23.5q119 59 225 90t223 31q74 0 136.5 -16.5t108.5 -47t72.5 -78t26.5 -108.5q0 -78 -25.5 -151.5t-71.5 -143.5t-109.5 -134.5t-139.5 -121.5q-160 -123 -331 -190.5t-367 -67.5q-49 0 -87 4 t-104 16q61 -86 137 -125.5t189 -39.5q211 0 428 114.5t463 354.5h-152q-29 0 -28 14q0 18 28 18h183q23 18 70.5 63.5t110 104t133.5 125t137.5 129t123.5 115.5t94 86q156 139 248 201.5t147 62.5q51 0 52 -39q0 -16 -13.5 -41.5t-33.5 -48.5q-14 -18 -50 -65.5 t-81.5 -111t-95.5 -134t-95 -134t-80 -113.5t-49 -71q-82 -123 -145.5 -226t-107.5 -182t-66.5 -130t-22.5 -70q0 -35 27 -35q20 0 52 18.5t68.5 49.5t77.5 69.5t82 79.5t71 72t34 31t4 -6q0 -10 -19.5 -36t-52.5 -61q-37 -41 -87 -88t-100 -88t-97.5 -68.5t-79.5 -27.5 q-39 0 -59.5 27.5t-20.5 64.5q0 45 16 102.5t43 117t58.5 117.5t60.5 108h-215q-86 -90 -151.5 -151.5t-121 -107t-103.5 -77t-99 -58.5q-137 -76 -263 -110.5t-249 -34.5q-78 0 -140.5 12.5t-117 42t-99.5 76.5t-86 115q-53 18 -100 49t-83 72t-57.5 92t-21.5 112zM33 569 q0 -53 17.5 -97t48 -80t71.5 -62.5t86 -46.5q-10 39 -12 61t-2 53q0 86 29.5 181.5t85 189.5t136 182t183.5 160q-113 -10 -219.5 -45t-198.5 -100q-35 -25 -75 -66t-73.5 -93t-55 -112.5t-21.5 -124.5zM270 406q0 -39 5.5 -66t17.5 -68q61 -14 109.5 -21t123.5 -7 q117 0 241 37t230 94q154 80 254.5 173t158.5 181t82 164t24 125q0 109 -85 168t-214 59q-102 0 -195.5 -23.5t-198.5 -70.5q41 -4 104.5 -14.5t114.5 -26.5q31 -10 53.5 -21.5t22.5 -25.5q0 -10 -10 -10q-14 0 -33.5 9t-54.5 19q-41 12 -103.5 22.5t-162.5 14.5 q-111 -66 -200 -150.5t-152.5 -178t-97.5 -192.5t-34 -191zM1726 569h203q180 250 321.5 415t225.5 257q20 23 46 50.5t48.5 51t37.5 42t15 22.5q0 10 -14 10q-25 0 -55.5 -15.5t-65 -39t-68.5 -53t-65 -58.5q-25 -23 -72 -74t-107 -115.5t-127 -138t-129 -141t-113.5 -125 t-80.5 -88.5zM2462 1657q0 10 17.5 25.5t33.5 29.5l156 135l24.5 17.5t26.5 7.5q25 0 33 -9.5t14 -37.5l27 -121q4 -16 6 -25.5t2 -13.5q0 -27 -18 -27q-12 0 -19.5 10.5t-13.5 26.5l-49 113l-168 -125q-20 -16 -29.5 -20.5t-19.5 -4.5q-23 0 -23 19z" />
<glyph unicode="&#xc3;" horiz-adv-x="2238" d="M6 569q0 117 58.5 226.5t175.5 193.5q49 35 98 60.5t108.5 45t134 33t173.5 23.5q119 59 225 90t223 31q74 0 136.5 -16.5t108.5 -47t72.5 -78t26.5 -108.5q0 -78 -25.5 -151.5t-71.5 -143.5t-109.5 -134.5t-139.5 -121.5q-160 -123 -331 -190.5t-367 -67.5q-49 0 -87 4 t-104 16q61 -86 137 -125.5t189 -39.5q211 0 428 114.5t463 354.5h-152q-29 0 -28 14q0 18 28 18h183q23 18 70.5 63.5t110 104t133.5 125t137.5 129t123.5 115.5t94 86q156 139 248 201.5t147 62.5q51 0 52 -39q0 -16 -13.5 -41.5t-33.5 -48.5q-14 -18 -50 -65.5 t-81.5 -111t-95.5 -134t-95 -134t-80 -113.5t-49 -71q-82 -123 -145.5 -226t-107.5 -182t-66.5 -130t-22.5 -70q0 -35 27 -35q20 0 52 18.5t68.5 49.5t77.5 69.5t82 79.5t71 72t34 31t4 -6q0 -10 -19.5 -36t-52.5 -61q-37 -41 -87 -88t-100 -88t-97.5 -68.5t-79.5 -27.5 q-39 0 -59.5 27.5t-20.5 64.5q0 45 16 102.5t43 117t58.5 117.5t60.5 108h-215q-86 -90 -151.5 -151.5t-121 -107t-103.5 -77t-99 -58.5q-137 -76 -263 -110.5t-249 -34.5q-78 0 -140.5 12.5t-117 42t-99.5 76.5t-86 115q-53 18 -100 49t-83 72t-57.5 92t-21.5 112zM33 569 q0 -53 17.5 -97t48 -80t71.5 -62.5t86 -46.5q-10 39 -12 61t-2 53q0 86 29.5 181.5t85 189.5t136 182t183.5 160q-113 -10 -219.5 -45t-198.5 -100q-35 -25 -75 -66t-73.5 -93t-55 -112.5t-21.5 -124.5zM270 406q0 -39 5.5 -66t17.5 -68q61 -14 109.5 -21t123.5 -7 q117 0 241 37t230 94q154 80 254.5 173t158.5 181t82 164t24 125q0 109 -85 168t-214 59q-102 0 -195.5 -23.5t-198.5 -70.5q41 -4 104.5 -14.5t114.5 -26.5q31 -10 53.5 -21.5t22.5 -25.5q0 -10 -10 -10q-14 0 -33.5 9t-54.5 19q-41 12 -103.5 22.5t-162.5 14.5 q-111 -66 -200 -150.5t-152.5 -178t-97.5 -192.5t-34 -191zM1726 569h203q180 250 321.5 415t225.5 257q20 23 46 50.5t48.5 51t37.5 42t15 22.5q0 10 -14 10q-25 0 -55.5 -15.5t-65 -39t-68.5 -53t-65 -58.5q-25 -23 -72 -74t-107 -115.5t-127 -138t-129 -141t-113.5 -125 t-80.5 -88.5zM2485 1751q0 18 11 35.5t29.5 31t40 20.5t42.5 7q31 0 61.5 -8t59 -17.5t51 -17.5t34.5 -8q31 0 62 30q18 18 24 19q17 -1 17 -21q0 -6 -12.5 -26.5t-34.5 -40.5q-23 -20 -72 -21q-16 0 -35.5 4.5t-64.5 18.5q-43 16 -67.5 21t-39.5 5q-20 0 -35.5 -8 t-40.5 -32q-8 -8 -11 -9.5t-5 -1.5q-14 0 -14 19z" />
<glyph unicode="&#xc4;" horiz-adv-x="2238" d="M6 569q0 117 58.5 226.5t175.5 193.5q49 35 98 60.5t108.5 45t134 33t173.5 23.5q119 59 225 90t223 31q74 0 136.5 -16.5t108.5 -47t72.5 -78t26.5 -108.5q0 -78 -25.5 -151.5t-71.5 -143.5t-109.5 -134.5t-139.5 -121.5q-160 -123 -331 -190.5t-367 -67.5q-49 0 -87 4 t-104 16q61 -86 137 -125.5t189 -39.5q211 0 428 114.5t463 354.5h-152q-29 0 -28 14q0 18 28 18h183q23 18 70.5 63.5t110 104t133.5 125t137.5 129t123.5 115.5t94 86q156 139 248 201.5t147 62.5q51 0 52 -39q0 -16 -13.5 -41.5t-33.5 -48.5q-14 -18 -50 -65.5 t-81.5 -111t-95.5 -134t-95 -134t-80 -113.5t-49 -71q-82 -123 -145.5 -226t-107.5 -182t-66.5 -130t-22.5 -70q0 -35 27 -35q20 0 52 18.5t68.5 49.5t77.5 69.5t82 79.5t71 72t34 31t4 -6q0 -10 -19.5 -36t-52.5 -61q-37 -41 -87 -88t-100 -88t-97.5 -68.5t-79.5 -27.5 q-39 0 -59.5 27.5t-20.5 64.5q0 45 16 102.5t43 117t58.5 117.5t60.5 108h-215q-86 -90 -151.5 -151.5t-121 -107t-103.5 -77t-99 -58.5q-137 -76 -263 -110.5t-249 -34.5q-78 0 -140.5 12.5t-117 42t-99.5 76.5t-86 115q-53 18 -100 49t-83 72t-57.5 92t-21.5 112zM33 569 q0 -53 17.5 -97t48 -80t71.5 -62.5t86 -46.5q-10 39 -12 61t-2 53q0 86 29.5 181.5t85 189.5t136 182t183.5 160q-113 -10 -219.5 -45t-198.5 -100q-35 -25 -75 -66t-73.5 -93t-55 -112.5t-21.5 -124.5zM270 406q0 -39 5.5 -66t17.5 -68q61 -14 109.5 -21t123.5 -7 q117 0 241 37t230 94q154 80 254.5 173t158.5 181t82 164t24 125q0 109 -85 168t-214 59q-102 0 -195.5 -23.5t-198.5 -70.5q41 -4 104.5 -14.5t114.5 -26.5q31 -10 53.5 -21.5t22.5 -25.5q0 -10 -10 -10q-14 0 -33.5 9t-54.5 19q-41 12 -103.5 22.5t-162.5 14.5 q-111 -66 -200 -150.5t-152.5 -178t-97.5 -192.5t-34 -191zM1726 569h203q180 250 321.5 415t225.5 257q20 23 46 50.5t48.5 51t37.5 42t15 22.5q0 10 -14 10q-25 0 -55.5 -15.5t-65 -39t-68.5 -53t-65 -58.5q-25 -23 -72 -74t-107 -115.5t-127 -138t-129 -141t-113.5 -125 t-80.5 -88.5zM2484 1691q0 33 26.5 56.5t55.5 23.5q49 0 49 -39q0 -35 -26.5 -62.5t-61.5 -27.5q-18 0 -30.5 14.5t-12.5 34.5zM2729 1689q0 31 27 55.5t57 24.5q23 0 36.5 -12.5t13.5 -28.5q0 -35 -27 -61.5t-61 -26.5q-20 0 -33 13.5t-13 35.5z" />
<glyph unicode="&#xc5;" horiz-adv-x="2238" d="M6 569q0 117 58.5 226.5t175.5 193.5q49 35 98 60.5t108.5 45t134 33t173.5 23.5q119 59 225 90t223 31q74 0 136.5 -16.5t108.5 -47t72.5 -78t26.5 -108.5q0 -78 -25.5 -151.5t-71.5 -143.5t-109.5 -134.5t-139.5 -121.5q-160 -123 -331 -190.5t-367 -67.5q-49 0 -87 4 t-104 16q61 -86 137 -125.5t189 -39.5q211 0 428 114.5t463 354.5h-152q-29 0 -28 14q0 18 28 18h183q23 18 70.5 63.5t110 104t133.5 125t137.5 129t123.5 115.5t94 86q156 139 248 201.5t147 62.5q51 0 52 -39q0 -16 -13.5 -41.5t-33.5 -48.5q-14 -18 -50 -65.5 t-81.5 -111t-95.5 -134t-95 -134t-80 -113.5t-49 -71q-82 -123 -145.5 -226t-107.5 -182t-66.5 -130t-22.5 -70q0 -35 27 -35q20 0 52 18.5t68.5 49.5t77.5 69.5t82 79.5t71 72t34 31t4 -6q0 -10 -19.5 -36t-52.5 -61q-37 -41 -87 -88t-100 -88t-97.5 -68.5t-79.5 -27.5 q-39 0 -59.5 27.5t-20.5 64.5q0 45 16 102.5t43 117t58.5 117.5t60.5 108h-215q-86 -90 -151.5 -151.5t-121 -107t-103.5 -77t-99 -58.5q-137 -76 -263 -110.5t-249 -34.5q-78 0 -140.5 12.5t-117 42t-99.5 76.5t-86 115q-53 18 -100 49t-83 72t-57.5 92t-21.5 112zM33 569 q0 -53 17.5 -97t48 -80t71.5 -62.5t86 -46.5q-10 39 -12 61t-2 53q0 86 29.5 181.5t85 189.5t136 182t183.5 160q-113 -10 -219.5 -45t-198.5 -100q-35 -25 -75 -66t-73.5 -93t-55 -112.5t-21.5 -124.5zM270 406q0 -39 5.5 -66t17.5 -68q61 -14 109.5 -21t123.5 -7 q117 0 241 37t230 94q154 80 254.5 173t158.5 181t82 164t24 125q0 109 -85 168t-214 59q-102 0 -195.5 -23.5t-198.5 -70.5q41 -4 104.5 -14.5t114.5 -26.5q31 -10 53.5 -21.5t22.5 -25.5q0 -10 -10 -10q-14 0 -33.5 9t-54.5 19q-41 12 -103.5 22.5t-162.5 14.5 q-111 -66 -200 -150.5t-152.5 -178t-97.5 -192.5t-34 -191zM1726 569h203q180 250 321.5 415t225.5 257q20 23 46 50.5t48.5 51t37.5 42t15 22.5q0 10 -14 10q-25 0 -55.5 -15.5t-65 -39t-68.5 -53t-65 -58.5q-25 -23 -72 -74t-107 -115.5t-127 -138t-129 -141t-113.5 -125 t-80.5 -88.5zM2568 1753q0 49 36 83t81 34q49 0 83 -34t34 -81t-35 -81.5t-82 -34.5q-49 0 -83 33.5t-34 80.5zM2620 1758q0 -27 18 -45.5t47 -18.5q27 0 46.5 16.5t19.5 47.5q0 29 -18.5 46t-47.5 17q-25 0 -45 -18.5t-20 -44.5z" />
<glyph unicode="&#xc6;" horiz-adv-x="872" d="M-18 209q0 4 30 35q123 115 199 194.5t106 126.5q0 41 13.5 65.5t38.5 24.5q14 0 21 -7t7 -17q0 -25 -24 -58q37 -47 51 -77.5t14 -63.5q0 -57 -36.5 -110.5t-90.5 -85.5q43 12 76 28.5t64.5 43t69.5 68.5t91 109l113 144h-92l26 35h93l110 139l76 12l-119 -151h123 l-35 -35h-116l-238 -307q-16 -20 -23.5 -36t-7.5 -26t7.5 -17t17.5 -7t27.5 7t45 23.5t67.5 46t95 72.5q35 27 47.5 36t20.5 9t8 -6q0 -10 -13 -19.5t-54 -44.5q-29 -25 -64 -52t-72 -51t-71.5 -39t-63.5 -15q-23 0 -36 13t-13 36v11t2 18q-66 -43 -118 -60.5t-111 -17.5 q-47 0 -75 16.5t-28 52.5q0 29 22.5 54.5t51.5 25.5q31 0 31 -26q0 -12 -7.5 -16.5t-27.5 -8.5q-39 -6 -39 -33q0 -14 12.5 -24.5t30.5 -10.5q27 0 55.5 17.5t53 46.5t40 67.5t15.5 81.5q0 23 -7 43.5t-26 55.5q-35 -41 -79 -87t-87 -89t-78.5 -78t-54.5 -53 q-23 -23 -36 -30t-17 -7q-12 0 -12 8zM168 6q0 4 3 9t7 10l60 94q6 10 11 15t27 5q27 0 33 -1t6 -5q0 -8 -14 -20l-104 -103q-14 -14 -19 -14q-10 0 -10 10zM326 6q0 4 3 9t7 10l59 94q6 10 11.5 15t27.5 5q27 0 33 -1t6 -5q0 -8 -14 -20l-105 -103q-14 -14 -18 -14 q-10 0 -10 10z" />
<glyph unicode="&#xc7;" horiz-adv-x="1972" d="M10 1243q0 70 42 137.5t102 106.5q72 45 171 65.5t224 20.5q74 0 152.5 -8.5t155.5 -25.5t147.5 -43t128.5 -60q6 -4 23.5 -15.5t34.5 -25t31.5 -26.5t14.5 -19q0 -8 -8 -9q-4 0 -15.5 7.5t-25.5 17.5t-29.5 20.5t-25.5 16.5q-117 72 -265.5 107.5t-308.5 35.5 q-129 0 -219 -17.5t-160 -60.5q-57 -37 -99 -91t-42 -132t64.5 -154.5t168.5 -129.5q59 -31 116.5 -50.5t119 -32t130.5 -17.5t155 -7q51 72 101 131t103.5 111.5t113.5 100.5t134 95q88 57 182.5 103.5t179.5 79t153.5 51t109.5 18.5q78 0 124 -33.5t46 -80.5 q0 -43 -31 -91.5t-84 -97.5t-122.5 -97t-149.5 -91q-84 -45 -163 -79t-164 -60.5t-180 -47t-212 -39.5q-78 -117 -129 -246.5t-51 -250.5q0 -27 3 -49.5t13 -57.5q63 143 144 250t194 203q51 45 115.5 80t129 59.5t125 37.5t105.5 13q117 0 173 -59t56 -152 q0 -86 -37.5 -169t-115.5 -175q-37 -43 -73 -76.5t-78 -63.5t-92 -57.5t-113 -56.5l-80 -114q63 -10 90.5 -28.5t27.5 -66.5q0 -51 -45 -79.5t-106 -28.5q-27 0 -60.5 4t-105.5 23l29 36q35 -10 63.5 -13t46.5 -3q47 0 80 17.5t33 41.5q0 31 -29.5 41.5t-103.5 18.5l96 131 l-20 -6q-92 -104 -169 -158.5t-167 -54.5q-68 0 -115 50t-47 150q0 18 3 40t11 57q-23 37 -40 69.5t-27.5 65.5t-15.5 68.5t-5 78.5q0 121 33 218.5t92 209.5q-86 2 -157.5 9.5t-135 20.5t-122 34.5t-119.5 54.5q-100 53 -164 133t-64 166zM750 10q0 -78 40 -121t93 -43 q70 0 141.5 44t142.5 126q-96 -18 -149 -18q-74 0 -133.5 22.5t-122.5 65.5q-6 -27 -9 -43t-3 -33zM784 195q47 -78 116 -117t190 -39q33 0 51 2t53 10q47 72 89 153t71 154q4 10 10 24.5t14 14.5t8 -14t-13 -51t-34.5 -83t-47 -95.5t-50.5 -92.5q111 41 201 96.5t178 149.5 q37 39 67.5 84t53 92t35 92.5t12.5 83.5q0 90 -56.5 136.5t-156.5 46.5q-102 0 -225 -51.5t-234 -145.5q-121 -104 -197.5 -211.5t-134.5 -238.5zM963 868q158 12 326.5 62.5t334.5 138.5q80 41 150.5 89t124 95t84 92.5t30.5 81.5q0 35 -26.5 58.5t-75.5 23.5 q-31 0 -79 -14t-103.5 -37.5t-112.5 -52.5t-105 -57q-174 -109 -304.5 -224t-243.5 -256z" />
<glyph unicode="&#xc8;" horiz-adv-x="1630" d="M12 1163q0 88 48.5 153.5t127.5 113.5q90 53 221.5 84.5t264.5 31.5q66 0 120 -6t105 -20.5t102.5 -35t108.5 -48.5q102 53 216 88t243 35q90 0 144 -32t54 -85q0 -66 -66.5 -136.5t-162.5 -127.5q-57 -35 -114.5 -63t-123 -53.5t-142.5 -49t-169 -47.5q8 -27 13.5 -38.5 t21.5 -33.5q45 6 75.5 9t65.5 3q86 0 134.5 -12t48.5 -41q0 -23 -34 -41t-89 -18q-43 0 -75 3t-57.5 11t-50 19.5t-53.5 27.5q-121 -37 -212 -86t-169 -129q-74 -78 -118 -168t-44 -168q0 -82 27 -127t72 -82q29 123 98.5 235.5t164.5 196.5t205.5 134.5t221.5 50.5t167 -51 t56 -123q0 -129 -94 -235.5t-244 -190.5q-98 -123 -206.5 -195t-194.5 -72t-131 50.5t-49 125.5q-96 39 -159 114t-63 198q0 86 47.5 177t133.5 165t200.5 124t262.5 83q-16 20 -24.5 30.5t-23.5 30.5q-129 -29 -230 -42t-202 -13q-236 0 -352.5 74.5t-116.5 201.5zM39 1161 q0 -109 114.5 -178.5t325.5 -69.5q129 0 232.5 17.5t189.5 40.5q-10 43 -14 69.5t-4 49.5q0 102 54 180t146 149q-59 27 -105 45.5t-92 29.5t-96.5 15t-113.5 4q-137 0 -254 -25.5t-202 -71.5t-133 -110.5t-48 -144.5zM563 18q0 -63 38 -105t118 -42q145 0 338 205 q-92 -39 -173 -58.5t-169 -19.5q-39 0 -70 4t-82 16zM565 82q31 -12 54.5 -20.5t46 -14.5t46 -8t52.5 -2q94 0 170 24.5t176 71.5q76 121 114 216t46 192q0 16 10 16t10 -31q0 -88 -38 -178t-81 -166q51 39 94.5 84t75 92.5t49 95.5t17.5 91q0 51 -44 95t-130 44 q-106 0 -216 -50t-203 -134t-160.5 -192.5t-88.5 -225.5zM983 993q141 33 278.5 83t249.5 116q47 27 89 59.5t73 64.5t49.5 63.5t18.5 58.5q0 39 -44 66.5t-116 27.5q-41 0 -90 -13.5t-98.5 -36t-96.5 -51t-86 -57.5q10 -10 27.5 -26.5t22.5 -20.5q12 -12 12 -20q0 -6 -6 -7 q-8 0 -21 13q-12 10 -25.5 20t-33.5 23q-59 -53 -99 -102.5t-63 -93.5t-32 -86t-9 -81zM1053 868q49 -31 81.5 -40t88.5 -9q37 0 64.5 9.5t27.5 23.5t-28.5 21.5t-67.5 7.5q-59 0 -107.5 -5.5t-58.5 -7.5zM1441 1816q0 14 10.5 25.5t24.5 11.5q10 0 17.5 -4t35.5 -27 l177 -133q14 -10 20 -16t6 -16q0 -16 -20 -17q-10 4 -19.5 9.5t-13.5 9.5l-191 110q-29 16 -38 23.5t-9 23.5z" />
<glyph unicode="&#xc9;" horiz-adv-x="1630" d="M12 1163q0 88 48.5 153.5t127.5 113.5q90 53 221.5 84.5t264.5 31.5q66 0 120 -6t105 -20.5t102.5 -35t108.5 -48.5q102 53 216 88t243 35q90 0 144 -32t54 -85q0 -66 -66.5 -136.5t-162.5 -127.5q-57 -35 -114.5 -63t-123 -53.5t-142.5 -49t-169 -47.5q8 -27 13.5 -38.5 t21.5 -33.5q45 6 75.5 9t65.5 3q86 0 134.5 -12t48.5 -41q0 -23 -34 -41t-89 -18q-43 0 -75 3t-57.5 11t-50 19.5t-53.5 27.5q-121 -37 -212 -86t-169 -129q-74 -78 -118 -168t-44 -168q0 -82 27 -127t72 -82q29 123 98.5 235.5t164.5 196.5t205.5 134.5t221.5 50.5t167 -51 t56 -123q0 -129 -94 -235.5t-244 -190.5q-98 -123 -206.5 -195t-194.5 -72t-131 50.5t-49 125.5q-96 39 -159 114t-63 198q0 86 47.5 177t133.5 165t200.5 124t262.5 83q-16 20 -24.5 30.5t-23.5 30.5q-129 -29 -230 -42t-202 -13q-236 0 -352.5 74.5t-116.5 201.5zM39 1161 q0 -109 114.5 -178.5t325.5 -69.5q129 0 232.5 17.5t189.5 40.5q-10 43 -14 69.5t-4 49.5q0 102 54 180t146 149q-59 27 -105 45.5t-92 29.5t-96.5 15t-113.5 4q-137 0 -254 -25.5t-202 -71.5t-133 -110.5t-48 -144.5zM563 18q0 -63 38 -105t118 -42q145 0 338 205 q-92 -39 -173 -58.5t-169 -19.5q-39 0 -70 4t-82 16zM565 82q31 -12 54.5 -20.5t46 -14.5t46 -8t52.5 -2q94 0 170 24.5t176 71.5q76 121 114 216t46 192q0 16 10 16t10 -31q0 -88 -38 -178t-81 -166q51 39 94.5 84t75 92.5t49 95.5t17.5 91q0 51 -44 95t-130 44 q-106 0 -216 -50t-203 -134t-160.5 -192.5t-88.5 -225.5zM983 993q141 33 278.5 83t249.5 116q47 27 89 59.5t73 64.5t49.5 63.5t18.5 58.5q0 39 -44 66.5t-116 27.5q-41 0 -90 -13.5t-98.5 -36t-96.5 -51t-86 -57.5q10 -10 27.5 -26.5t22.5 -20.5q12 -12 12 -20q0 -6 -6 -7 q-8 0 -21 13q-12 10 -25.5 20t-33.5 23q-59 -53 -99 -102.5t-63 -93.5t-32 -86t-9 -81zM1053 868q49 -31 81.5 -40t88.5 -9q37 0 64.5 9.5t27.5 23.5t-28.5 21.5t-67.5 7.5q-59 0 -107.5 -5.5t-58.5 -7.5zM1482 1657q0 10 8.5 17t49.5 36l139 98q33 23 46 30t22 7 q12 0 22 -10t10 -25q0 -16 -12 -24t-41 -25l-168 -92q-33 -18 -42 -23.5t-19 -5.5q-14 0 -15 17z" />
<glyph unicode="&#xca;" horiz-adv-x="1630" d="M12 1163q0 88 48.5 153.5t127.5 113.5q90 53 221.5 84.5t264.5 31.5q66 0 120 -6t105 -20.5t102.5 -35t108.5 -48.5q102 53 216 88t243 35q90 0 144 -32t54 -85q0 -66 -66.5 -136.5t-162.5 -127.5q-57 -35 -114.5 -63t-123 -53.5t-142.5 -49t-169 -47.5q8 -27 13.5 -38.5 t21.5 -33.5q45 6 75.5 9t65.5 3q86 0 134.5 -12t48.5 -41q0 -23 -34 -41t-89 -18q-43 0 -75 3t-57.5 11t-50 19.5t-53.5 27.5q-121 -37 -212 -86t-169 -129q-74 -78 -118 -168t-44 -168q0 -82 27 -127t72 -82q29 123 98.5 235.5t164.5 196.5t205.5 134.5t221.5 50.5t167 -51 t56 -123q0 -129 -94 -235.5t-244 -190.5q-98 -123 -206.5 -195t-194.5 -72t-131 50.5t-49 125.5q-96 39 -159 114t-63 198q0 86 47.5 177t133.5 165t200.5 124t262.5 83q-16 20 -24.5 30.5t-23.5 30.5q-129 -29 -230 -42t-202 -13q-236 0 -352.5 74.5t-116.5 201.5zM39 1161 q0 -109 114.5 -178.5t325.5 -69.5q129 0 232.5 17.5t189.5 40.5q-10 43 -14 69.5t-4 49.5q0 102 54 180t146 149q-59 27 -105 45.5t-92 29.5t-96.5 15t-113.5 4q-137 0 -254 -25.5t-202 -71.5t-133 -110.5t-48 -144.5zM563 18q0 -63 38 -105t118 -42q145 0 338 205 q-92 -39 -173 -58.5t-169 -19.5q-39 0 -70 4t-82 16zM565 82q31 -12 54.5 -20.5t46 -14.5t46 -8t52.5 -2q94 0 170 24.5t176 71.5q76 121 114 216t46 192q0 16 10 16t10 -31q0 -88 -38 -178t-81 -166q51 39 94.5 84t75 92.5t49 95.5t17.5 91q0 51 -44 95t-130 44 q-106 0 -216 -50t-203 -134t-160.5 -192.5t-88.5 -225.5zM983 993q141 33 278.5 83t249.5 116q47 27 89 59.5t73 64.5t49.5 63.5t18.5 58.5q0 39 -44 66.5t-116 27.5q-41 0 -90 -13.5t-98.5 -36t-96.5 -51t-86 -57.5q10 -10 27.5 -26.5t22.5 -20.5q12 -12 12 -20q0 -6 -6 -7 q-8 0 -21 13q-12 10 -25.5 20t-33.5 23q-59 -53 -99 -102.5t-63 -93.5t-32 -86t-9 -81zM1053 868q49 -31 81.5 -40t88.5 -9q37 0 64.5 9.5t27.5 23.5t-28.5 21.5t-67.5 7.5q-59 0 -107.5 -5.5t-58.5 -7.5zM1397 1657q0 10 17.5 25.5t33.5 29.5l156 135l24.5 17.5t26.5 7.5 q25 0 33 -9.5t14 -37.5l27 -121q4 -16 6 -25.5t2 -13.5q0 -27 -18 -27q-12 0 -19.5 10.5t-13.5 26.5l-49 113l-168 -125q-20 -16 -29.5 -20.5t-19.5 -4.5q-23 0 -23 19z" />
<glyph unicode="&#xcb;" horiz-adv-x="1630" d="M12 1163q0 88 48.5 153.5t127.5 113.5q90 53 221.5 84.5t264.5 31.5q66 0 120 -6t105 -20.5t102.5 -35t108.5 -48.5q102 53 216 88t243 35q90 0 144 -32t54 -85q0 -66 -66.5 -136.5t-162.5 -127.5q-57 -35 -114.5 -63t-123 -53.5t-142.5 -49t-169 -47.5q8 -27 13.5 -38.5 t21.5 -33.5q45 6 75.5 9t65.5 3q86 0 134.5 -12t48.5 -41q0 -23 -34 -41t-89 -18q-43 0 -75 3t-57.5 11t-50 19.5t-53.5 27.5q-121 -37 -212 -86t-169 -129q-74 -78 -118 -168t-44 -168q0 -82 27 -127t72 -82q29 123 98.5 235.5t164.5 196.5t205.5 134.5t221.5 50.5t167 -51 t56 -123q0 -129 -94 -235.5t-244 -190.5q-98 -123 -206.5 -195t-194.5 -72t-131 50.5t-49 125.5q-96 39 -159 114t-63 198q0 86 47.5 177t133.5 165t200.5 124t262.5 83q-16 20 -24.5 30.5t-23.5 30.5q-129 -29 -230 -42t-202 -13q-236 0 -352.5 74.5t-116.5 201.5zM39 1161 q0 -109 114.5 -178.5t325.5 -69.5q129 0 232.5 17.5t189.5 40.5q-10 43 -14 69.5t-4 49.5q0 102 54 180t146 149q-59 27 -105 45.5t-92 29.5t-96.5 15t-113.5 4q-137 0 -254 -25.5t-202 -71.5t-133 -110.5t-48 -144.5zM563 18q0 -63 38 -105t118 -42q145 0 338 205 q-92 -39 -173 -58.5t-169 -19.5q-39 0 -70 4t-82 16zM565 82q31 -12 54.5 -20.5t46 -14.5t46 -8t52.5 -2q94 0 170 24.5t176 71.5q76 121 114 216t46 192q0 16 10 16t10 -31q0 -88 -38 -178t-81 -166q51 39 94.5 84t75 92.5t49 95.5t17.5 91q0 51 -44 95t-130 44 q-106 0 -216 -50t-203 -134t-160.5 -192.5t-88.5 -225.5zM983 993q141 33 278.5 83t249.5 116q47 27 89 59.5t73 64.5t49.5 63.5t18.5 58.5q0 39 -44 66.5t-116 27.5q-41 0 -90 -13.5t-98.5 -36t-96.5 -51t-86 -57.5q10 -10 27.5 -26.5t22.5 -20.5q12 -12 12 -20q0 -6 -6 -7 q-8 0 -21 13q-12 10 -25.5 20t-33.5 23q-59 -53 -99 -102.5t-63 -93.5t-32 -86t-9 -81zM1053 868q49 -31 81.5 -40t88.5 -9q37 0 64.5 9.5t27.5 23.5t-28.5 21.5t-67.5 7.5q-59 0 -107.5 -5.5t-58.5 -7.5zM1420 1691q0 33 26.5 56.5t55.5 23.5q49 0 49 -39 q0 -35 -26.5 -62.5t-61.5 -27.5q-18 0 -30.5 14.5t-12.5 34.5zM1665 1689q0 31 27 55.5t57 24.5q23 0 36.5 -12.5t13.5 -28.5q0 -35 -27 -61.5t-61 -26.5q-20 0 -33 13.5t-13 35.5z" />
<glyph unicode="&#xcc;" horiz-adv-x="1175" d="M8 182q0 33 12.5 69t34 65.5t51 49t64.5 19.5q20 0 36.5 -14.5t16.5 -34.5q0 -23 -20.5 -41.5t-44.5 -18.5q-4 0 -10.5 1.5t-16.5 3.5q-8 4 -19.5 5t-19.5 1q-16 0 -34.5 -37t-18.5 -76q0 -72 49 -108.5t131 -36.5q170 0 321.5 132t305.5 376q-92 -33 -181.5 -55.5 t-193.5 -35.5q-2 -18 -3 -39.5t-1 -31.5q0 -4 1 -17.5t1 -31t1 -31.5t1 -19q0 -16 -8 -16t-15.5 23.5t-7.5 95.5q0 12 1 29.5t3 33.5h-71q-154 0 -244 71t-90 204q0 74 36 151.5t101.5 151.5t156.5 141.5t202 124.5q80 41 179 75t207.5 61.5t223.5 48t221.5 35t201.5 21.5 t169 7q35 0 40 -1t5 -9q0 -14 -19 -21q-68 -31 -137.5 -84t-136.5 -131q45 -16 73.5 -48t28.5 -83q0 -61 -37.5 -130t-105.5 -137.5t-163 -133t-210 -117.5q-193 -305 -401.5 -472t-448.5 -167q-109 0 -163 47t-54 135zM70 719q0 -115 80.5 -182.5t218.5 -67.5h35t42 4 q33 168 130.5 317.5t231.5 262t294 180t319 72.5q20 20 40 37.5t40.5 33t43 31.5t50.5 37q-285 -14 -529.5 -58.5t-473.5 -140.5q-115 -49 -211 -109.5t-166 -129t-107.5 -141t-37.5 -146.5zM477 475q55 6 104.5 15.5t97.5 21.5t96.5 30t101.5 38q111 174 180 281.5 t121.5 178t97.5 120.5t104 112q-154 -10 -304 -81t-275 -180.5t-211 -248.5t-113 -287zM1112 692q49 18 125 66.5t148.5 113t125 139t52.5 144.5q0 43 -23.5 66.5t-69.5 40.5q-43 -53 -93 -131t-99 -160t-92 -157t-74 -122zM1482 1816q0 14 10.5 25.5t24.5 11.5 q10 0 17.5 -4t35.5 -27l177 -133q14 -10 20 -16t6 -16q0 -16 -20 -17q-10 4 -19.5 9.5t-13.5 9.5l-191 110q-29 16 -38 23.5t-9 23.5z" />
<glyph unicode="&#xcd;" horiz-adv-x="1175" d="M8 182q0 33 12.5 69t34 65.5t51 49t64.5 19.5q20 0 36.5 -14.5t16.5 -34.5q0 -23 -20.5 -41.5t-44.5 -18.5q-4 0 -10.5 1.5t-16.5 3.5q-8 4 -19.5 5t-19.5 1q-16 0 -34.5 -37t-18.5 -76q0 -72 49 -108.5t131 -36.5q170 0 321.5 132t305.5 376q-92 -33 -181.5 -55.5 t-193.5 -35.5q-2 -18 -3 -39.5t-1 -31.5q0 -4 1 -17.5t1 -31t1 -31.5t1 -19q0 -16 -8 -16t-15.5 23.5t-7.5 95.5q0 12 1 29.5t3 33.5h-71q-154 0 -244 71t-90 204q0 74 36 151.5t101.5 151.5t156.5 141.5t202 124.5q80 41 179 75t207.5 61.5t223.5 48t221.5 35t201.5 21.5 t169 7q35 0 40 -1t5 -9q0 -14 -19 -21q-68 -31 -137.5 -84t-136.5 -131q45 -16 73.5 -48t28.5 -83q0 -61 -37.5 -130t-105.5 -137.5t-163 -133t-210 -117.5q-193 -305 -401.5 -472t-448.5 -167q-109 0 -163 47t-54 135zM70 719q0 -115 80.5 -182.5t218.5 -67.5h35t42 4 q33 168 130.5 317.5t231.5 262t294 180t319 72.5q20 20 40 37.5t40.5 33t43 31.5t50.5 37q-285 -14 -529.5 -58.5t-473.5 -140.5q-115 -49 -211 -109.5t-166 -129t-107.5 -141t-37.5 -146.5zM477 475q55 6 104.5 15.5t97.5 21.5t96.5 30t101.5 38q111 174 180 281.5 t121.5 178t97.5 120.5t104 112q-154 -10 -304 -81t-275 -180.5t-211 -248.5t-113 -287zM1112 692q49 18 125 66.5t148.5 113t125 139t52.5 144.5q0 43 -23.5 66.5t-69.5 40.5q-43 -53 -93 -131t-99 -160t-92 -157t-74 -122zM1548 1657q0 10 8.5 17t49.5 36l139 98 q33 23 46 30t22 7q12 0 22 -10t10 -25q0 -16 -12 -24t-41 -25l-168 -92q-33 -18 -42 -23.5t-19 -5.5q-14 0 -15 17z" />
<glyph unicode="&#xce;" horiz-adv-x="1175" d="M8 182q0 33 12.5 69t34 65.5t51 49t64.5 19.5q20 0 36.5 -14.5t16.5 -34.5q0 -23 -20.5 -41.5t-44.5 -18.5q-4 0 -10.5 1.5t-16.5 3.5q-8 4 -19.5 5t-19.5 1q-16 0 -34.5 -37t-18.5 -76q0 -72 49 -108.5t131 -36.5q170 0 321.5 132t305.5 376q-92 -33 -181.5 -55.5 t-193.5 -35.5q-2 -18 -3 -39.5t-1 -31.5q0 -4 1 -17.5t1 -31t1 -31.5t1 -19q0 -16 -8 -16t-15.5 23.5t-7.5 95.5q0 12 1 29.5t3 33.5h-71q-154 0 -244 71t-90 204q0 74 36 151.5t101.5 151.5t156.5 141.5t202 124.5q80 41 179 75t207.5 61.5t223.5 48t221.5 35t201.5 21.5 t169 7q35 0 40 -1t5 -9q0 -14 -19 -21q-68 -31 -137.5 -84t-136.5 -131q45 -16 73.5 -48t28.5 -83q0 -61 -37.5 -130t-105.5 -137.5t-163 -133t-210 -117.5q-193 -305 -401.5 -472t-448.5 -167q-109 0 -163 47t-54 135zM70 719q0 -115 80.5 -182.5t218.5 -67.5h35t42 4 q33 168 130.5 317.5t231.5 262t294 180t319 72.5q20 20 40 37.5t40.5 33t43 31.5t50.5 37q-285 -14 -529.5 -58.5t-473.5 -140.5q-115 -49 -211 -109.5t-166 -129t-107.5 -141t-37.5 -146.5zM477 475q55 6 104.5 15.5t97.5 21.5t96.5 30t101.5 38q111 174 180 281.5 t121.5 178t97.5 120.5t104 112q-154 -10 -304 -81t-275 -180.5t-211 -248.5t-113 -287zM1112 692q49 18 125 66.5t148.5 113t125 139t52.5 144.5q0 43 -23.5 66.5t-69.5 40.5q-43 -53 -93 -131t-99 -160t-92 -157t-74 -122zM1397 1657q0 10 17.5 25.5t33.5 29.5l156 135 l24.5 17.5t26.5 7.5q25 0 33 -9.5t14 -37.5l27 -121q4 -16 6 -25.5t2 -13.5q0 -27 -18 -27q-12 0 -19.5 10.5t-13.5 26.5l-49 113l-168 -125q-20 -16 -29.5 -20.5t-19.5 -4.5q-23 0 -23 19z" />
<glyph unicode="&#xcf;" horiz-adv-x="1175" d="M8 182q0 33 12.5 69t34 65.5t51 49t64.5 19.5q20 0 36.5 -14.5t16.5 -34.5q0 -23 -20.5 -41.5t-44.5 -18.5q-4 0 -10.5 1.5t-16.5 3.5q-8 4 -19.5 5t-19.5 1q-16 0 -34.5 -37t-18.5 -76q0 -72 49 -108.5t131 -36.5q170 0 321.5 132t305.5 376q-92 -33 -181.5 -55.5 t-193.5 -35.5q-2 -18 -3 -39.5t-1 -31.5q0 -4 1 -17.5t1 -31t1 -31.5t1 -19q0 -16 -8 -16t-15.5 23.5t-7.5 95.5q0 12 1 29.5t3 33.5h-71q-154 0 -244 71t-90 204q0 74 36 151.5t101.5 151.5t156.5 141.5t202 124.5q80 41 179 75t207.5 61.5t223.5 48t221.5 35t201.5 21.5 t169 7q35 0 40 -1t5 -9q0 -14 -19 -21q-68 -31 -137.5 -84t-136.5 -131q45 -16 73.5 -48t28.5 -83q0 -61 -37.5 -130t-105.5 -137.5t-163 -133t-210 -117.5q-193 -305 -401.5 -472t-448.5 -167q-109 0 -163 47t-54 135zM70 719q0 -115 80.5 -182.5t218.5 -67.5h35t42 4 q33 168 130.5 317.5t231.5 262t294 180t319 72.5q20 20 40 37.5t40.5 33t43 31.5t50.5 37q-285 -14 -529.5 -58.5t-473.5 -140.5q-115 -49 -211 -109.5t-166 -129t-107.5 -141t-37.5 -146.5zM477 475q55 6 104.5 15.5t97.5 21.5t96.5 30t101.5 38q111 174 180 281.5 t121.5 178t97.5 120.5t104 112q-154 -10 -304 -81t-275 -180.5t-211 -248.5t-113 -287zM1112 692q49 18 125 66.5t148.5 113t125 139t52.5 144.5q0 43 -23.5 66.5t-69.5 40.5q-43 -53 -93 -131t-99 -160t-92 -157t-74 -122zM1420 1691q0 33 26.5 56.5t55.5 23.5q49 0 49 -39 q0 -35 -26.5 -62.5t-61.5 -27.5q-18 0 -30.5 14.5t-12.5 34.5zM1665 1689q0 31 27 55.5t57 24.5q23 0 36.5 -12.5t13.5 -28.5q0 -35 -27 -61.5t-61 -26.5q-20 0 -33 13.5t-13 35.5z" />
<glyph unicode="&#xd1;" horiz-adv-x="2199" d="M-500 707q0 92 49.5 181t129 159.5t183 113.5t212.5 43q53 0 66.5 -3t13.5 -11q0 -10 -29 -10q-111 -4 -204 -31t-181 -88q-111 -78 -163 -173t-52 -188q0 -100 52 -162.5t157 -97.5q12 80 36.5 156t67.5 150.5t105.5 148.5t152.5 149q72 61 157 111.5t174 85.5t179 54.5 t174 19.5q147 0 213 -57.5t66 -141.5q0 -59 -25.5 -123.5t-75 -129t-120 -128t-158.5 -121.5q-70 -47 -157 -87t-184 -70.5t-199.5 -48t-205.5 -17.5q-43 0 -78.5 3t-95.5 14q2 -82 22.5 -140.5t80.5 -115.5q57 -55 125.5 -81t148.5 -26q154 0 359.5 94t423.5 264 q84 66 174 148t180 174t178 188.5t169 188.5t150.5 176t124.5 152q74 92 109 92q41 0 41 -52q0 -20 -12.5 -64t-32 -101.5t-44 -122t-48.5 -123.5q-12 -31 -35 -80t-59.5 -127t-92 -188.5t-133.5 -264.5q-18 -37 -38.5 -81t-39 -83.5t-30 -69.5t-11.5 -38q0 -25 5 -25 q12 0 149 150.5t385 472.5q-31 -4 -50.5 -7t-34.5 -5t-28.5 -2h-33.5q-14 0 -15 8q0 10 21 10q23 0 51.5 4t53 9.5t43 9.5t22.5 6q18 18 54 63t83 104.5t100.5 127t108.5 133t107.5 121t95.5 92.5q35 29 71.5 56.5t69.5 49t60.5 34.5t45.5 13q27 0 45.5 -18t18.5 -45 q0 -33 -25.5 -83t-69.5 -110.5t-103.5 -127t-125.5 -130.5q-70 -68 -132 -117t-123.5 -82.5t-125 -58t-137.5 -43.5q-20 -27 -38.5 -49t-50.5 -60t-85 -101.5t-141 -172.5q-86 -104 -143.5 -172.5t-95.5 -108.5t-61.5 -56.5t-39.5 -16.5q-39 0 -39 66q0 76 40 195.5 t103 258.5q45 100 98.5 204.5t103.5 203t96 183.5t79 151q27 53 41 86.5t14 46.5q0 12 -10 12q-8 0 -42 -40t-87 -106.5t-123.5 -154.5t-152.5 -183.5t-172 -193.5t-181 -184q-287 -287 -528.5 -416t-454.5 -129q-94 0 -181 30.5t-150 90.5q-68 61 -93.5 126.5t-29.5 164.5 q-111 41 -171.5 105.5t-60.5 189.5zM-240 436q59 -10 93 -13t77 -3q100 0 198.5 15.5t191 42t174 63.5t147.5 77q195 121 293 253.5t98 234.5q0 78 -61.5 130t-198.5 52q-82 0 -171 -20.5t-178 -57t-174 -89t-159 -113.5q-147 -125 -228 -270.5t-102 -301.5zM2077 766 q61 20 115.5 41.5t108.5 51.5t110.5 73t123.5 104q63 59 124 124t107 126.5t73.5 114.5t27.5 88q0 16 -10 27.5t-27 11.5q-20 0 -60 -24.5t-88 -62.5t-95 -82t-84 -83q-61 -66 -159.5 -188.5t-266.5 -321.5zM2284 1751q0 18 11 35.5t29.5 31t40 20.5t42.5 7q31 0 61.5 -8 t59 -17.5t51 -17.5t34.5 -8q31 0 62 30q18 18 24 19q17 -1 17 -21q0 -6 -12.5 -26.5t-34.5 -40.5q-23 -20 -72 -21q-16 0 -35.5 4.5t-64.5 18.5q-43 16 -67.5 21t-39.5 5q-20 0 -35.5 -8t-40.5 -32q-8 -8 -11 -9.5t-5 -1.5q-14 0 -14 19z" />
<glyph unicode="&#xd2;" horiz-adv-x="1517" d="M10 438q0 160 70 335t219 355q53 63 115.5 122t127 109t130 90t125.5 64q41 16 77.5 24.5t55.5 8.5q10 0 10 -8q-2 -8 -38 -25.5t-62 -33.5q-84 -51 -149.5 -103.5t-119 -108t-97.5 -112.5t-87 -119q-135 -188 -200.5 -352t-65.5 -305q0 -72 21.5 -136.5t60.5 -112.5 t90 -75.5t110 -27.5q35 0 70 9t90 32q-102 59 -148 146t-46 224q0 96 24.5 198.5t65.5 204t97 198t122 180.5q72 94 149.5 171.5t156.5 133t157 85t149 29.5q131 0 202 -96t71 -264q0 -78 -13.5 -136.5t-40.5 -133.5q0 -45 -9 -118t-35.5 -159t-73.5 -178t-123 -172 q-63 -68 -133 -127t-145 -104.5t-157.5 -71t-173.5 -25.5q-53 -16 -87.5 -26.5t-62.5 -16.5t-52.5 -8t-53.5 -2q-78 0 -149.5 26.5t-125.5 80t-86 136.5t-32 195zM401 432q0 -139 49.5 -221t153.5 -125q123 63 244 161.5t230.5 228.5t205.5 291t172 351q-41 41 -73.5 60.5 t-82.5 19.5q-41 0 -78.5 -16.5t-71.5 -42t-60.5 -54t-47.5 -53.5q-35 -45 -46 -70.5t-27 -25.5q-2 0 -4 4t-2 6q0 6 6 20.5t14 29t17.5 27.5t13.5 19q78 102 148.5 144.5t137.5 42.5q51 0 90.5 -18.5t75.5 -47.5q16 59 23.5 98t7.5 82q0 127 -51 196t-152 69 q-131 0 -266 -88t-295 -283q-82 -100 -143.5 -208.5t-103.5 -215t-63.5 -205t-21.5 -176.5zM733 84q125 20 261 99t284 255q90 104 131 211t59 240q-59 -139 -139 -263t-176 -227.5t-202.5 -184.5t-217.5 -130zM1204 1915q0 14 10.5 25.5t24.5 11.5q10 0 17.5 -4t35.5 -27 l177 -133q14 -10 20 -16t6 -16q0 -16 -20 -17q-10 4 -19.5 9.5t-13.5 9.5l-191 110q-29 16 -38 23.5t-9 23.5z" />
<glyph unicode="&#xd3;" horiz-adv-x="1517" d="M10 438q0 160 70 335t219 355q53 63 115.5 122t127 109t130 90t125.5 64q41 16 77.5 24.5t55.5 8.5q10 0 10 -8q-2 -8 -38 -25.5t-62 -33.5q-84 -51 -149.5 -103.5t-119 -108t-97.5 -112.5t-87 -119q-135 -188 -200.5 -352t-65.5 -305q0 -72 21.5 -136.5t60.5 -112.5 t90 -75.5t110 -27.5q35 0 70 9t90 32q-102 59 -148 146t-46 224q0 96 24.5 198.5t65.5 204t97 198t122 180.5q72 94 149.5 171.5t156.5 133t157 85t149 29.5q131 0 202 -96t71 -264q0 -78 -13.5 -136.5t-40.5 -133.5q0 -45 -9 -118t-35.5 -159t-73.5 -178t-123 -172 q-63 -68 -133 -127t-145 -104.5t-157.5 -71t-173.5 -25.5q-53 -16 -87.5 -26.5t-62.5 -16.5t-52.5 -8t-53.5 -2q-78 0 -149.5 26.5t-125.5 80t-86 136.5t-32 195zM401 432q0 -139 49.5 -221t153.5 -125q123 63 244 161.5t230.5 228.5t205.5 291t172 351q-41 41 -73.5 60.5 t-82.5 19.5q-41 0 -78.5 -16.5t-71.5 -42t-60.5 -54t-47.5 -53.5q-35 -45 -46 -70.5t-27 -25.5q-2 0 -4 4t-2 6q0 6 6 20.5t14 29t17.5 27.5t13.5 19q78 102 148.5 144.5t137.5 42.5q51 0 90.5 -18.5t75.5 -47.5q16 59 23.5 98t7.5 82q0 127 -51 196t-152 69 q-131 0 -266 -88t-295 -283q-82 -100 -143.5 -208.5t-103.5 -215t-63.5 -205t-21.5 -176.5zM733 84q125 20 261 99t284 255q90 104 131 211t59 240q-59 -139 -139 -263t-176 -227.5t-202.5 -184.5t-217.5 -130zM1228 1755q0 10 8.5 17t49.5 36l139 98q33 23 46 30t22 7 q12 0 22 -10t10 -25q0 -16 -12 -24t-41 -25l-168 -92q-33 -18 -42 -23.5t-19 -5.5q-14 0 -15 17z" />
<glyph unicode="&#xd4;" horiz-adv-x="1517" d="M10 438q0 160 70 335t219 355q53 63 115.5 122t127 109t130 90t125.5 64q41 16 77.5 24.5t55.5 8.5q10 0 10 -8q-2 -8 -38 -25.5t-62 -33.5q-84 -51 -149.5 -103.5t-119 -108t-97.5 -112.5t-87 -119q-135 -188 -200.5 -352t-65.5 -305q0 -72 21.5 -136.5t60.5 -112.5 t90 -75.5t110 -27.5q35 0 70 9t90 32q-102 59 -148 146t-46 224q0 96 24.5 198.5t65.5 204t97 198t122 180.5q72 94 149.5 171.5t156.5 133t157 85t149 29.5q131 0 202 -96t71 -264q0 -78 -13.5 -136.5t-40.5 -133.5q0 -45 -9 -118t-35.5 -159t-73.5 -178t-123 -172 q-63 -68 -133 -127t-145 -104.5t-157.5 -71t-173.5 -25.5q-53 -16 -87.5 -26.5t-62.5 -16.5t-52.5 -8t-53.5 -2q-78 0 -149.5 26.5t-125.5 80t-86 136.5t-32 195zM401 432q0 -139 49.5 -221t153.5 -125q123 63 244 161.5t230.5 228.5t205.5 291t172 351q-41 41 -73.5 60.5 t-82.5 19.5q-41 0 -78.5 -16.5t-71.5 -42t-60.5 -54t-47.5 -53.5q-35 -45 -46 -70.5t-27 -25.5q-2 0 -4 4t-2 6q0 6 6 20.5t14 29t17.5 27.5t13.5 19q78 102 148.5 144.5t137.5 42.5q51 0 90.5 -18.5t75.5 -47.5q16 59 23.5 98t7.5 82q0 127 -51 196t-152 69 q-131 0 -266 -88t-295 -283q-82 -100 -143.5 -208.5t-103.5 -215t-63.5 -205t-21.5 -176.5zM733 84q125 20 261 99t284 255q90 104 131 211t59 240q-59 -139 -139 -263t-176 -227.5t-202.5 -184.5t-217.5 -130zM1143 1755q0 10 17.5 25.5t33.5 29.5l156 135l24.5 17.5 t26.5 7.5q25 0 33 -9.5t14 -37.5l27 -121q4 -16 6 -25.5t2 -13.5q0 -27 -18 -27q-12 0 -19.5 10.5t-13.5 26.5l-49 113l-168 -125q-20 -16 -29.5 -20.5t-19.5 -4.5q-23 0 -23 19z" />
<glyph unicode="&#xd5;" horiz-adv-x="1517" d="M10 438q0 160 70 335t219 355q53 63 115.5 122t127 109t130 90t125.5 64q41 16 77.5 24.5t55.5 8.5q10 0 10 -8q-2 -8 -38 -25.5t-62 -33.5q-84 -51 -149.5 -103.5t-119 -108t-97.5 -112.5t-87 -119q-135 -188 -200.5 -352t-65.5 -305q0 -72 21.5 -136.5t60.5 -112.5 t90 -75.5t110 -27.5q35 0 70 9t90 32q-102 59 -148 146t-46 224q0 96 24.5 198.5t65.5 204t97 198t122 180.5q72 94 149.5 171.5t156.5 133t157 85t149 29.5q131 0 202 -96t71 -264q0 -78 -13.5 -136.5t-40.5 -133.5q0 -45 -9 -118t-35.5 -159t-73.5 -178t-123 -172 q-63 -68 -133 -127t-145 -104.5t-157.5 -71t-173.5 -25.5q-53 -16 -87.5 -26.5t-62.5 -16.5t-52.5 -8t-53.5 -2q-78 0 -149.5 26.5t-125.5 80t-86 136.5t-32 195zM401 432q0 -139 49.5 -221t153.5 -125q123 63 244 161.5t230.5 228.5t205.5 291t172 351q-41 41 -73.5 60.5 t-82.5 19.5q-41 0 -78.5 -16.5t-71.5 -42t-60.5 -54t-47.5 -53.5q-35 -45 -46 -70.5t-27 -25.5q-2 0 -4 4t-2 6q0 6 6 20.5t14 29t17.5 27.5t13.5 19q78 102 148.5 144.5t137.5 42.5q51 0 90.5 -18.5t75.5 -47.5q16 59 23.5 98t7.5 82q0 127 -51 196t-152 69 q-131 0 -266 -88t-295 -283q-82 -100 -143.5 -208.5t-103.5 -215t-63.5 -205t-21.5 -176.5zM733 84q125 20 261 99t284 255q90 104 131 211t59 240q-59 -139 -139 -263t-176 -227.5t-202.5 -184.5t-217.5 -130zM1112 1751q0 18 11 35.5t29.5 31t40 20.5t42.5 7q31 0 61.5 -8 t59 -17.5t51 -17.5t34.5 -8q31 0 62 30q18 18 24 19q17 -1 17 -21q0 -6 -12.5 -26.5t-34.5 -40.5q-23 -20 -72 -21q-16 0 -35.5 4.5t-64.5 18.5q-43 16 -67.5 21t-39.5 5q-20 0 -35.5 -8t-40.5 -32q-8 -8 -11 -9.5t-5 -1.5q-14 0 -14 19z" />
<glyph unicode="&#xd6;" horiz-adv-x="1517" d="M10 438q0 160 70 335t219 355q53 63 115.5 122t127 109t130 90t125.5 64q41 16 77.5 24.5t55.5 8.5q10 0 10 -8q-2 -8 -38 -25.5t-62 -33.5q-84 -51 -149.5 -103.5t-119 -108t-97.5 -112.5t-87 -119q-135 -188 -200.5 -352t-65.5 -305q0 -72 21.5 -136.5t60.5 -112.5 t90 -75.5t110 -27.5q35 0 70 9t90 32q-102 59 -148 146t-46 224q0 96 24.5 198.5t65.5 204t97 198t122 180.5q72 94 149.5 171.5t156.5 133t157 85t149 29.5q131 0 202 -96t71 -264q0 -78 -13.5 -136.5t-40.5 -133.5q0 -45 -9 -118t-35.5 -159t-73.5 -178t-123 -172 q-63 -68 -133 -127t-145 -104.5t-157.5 -71t-173.5 -25.5q-53 -16 -87.5 -26.5t-62.5 -16.5t-52.5 -8t-53.5 -2q-78 0 -149.5 26.5t-125.5 80t-86 136.5t-32 195zM401 432q0 -139 49.5 -221t153.5 -125q123 63 244 161.5t230.5 228.5t205.5 291t172 351q-41 41 -73.5 60.5 t-82.5 19.5q-41 0 -78.5 -16.5t-71.5 -42t-60.5 -54t-47.5 -53.5q-35 -45 -46 -70.5t-27 -25.5q-2 0 -4 4t-2 6q0 6 6 20.5t14 29t17.5 27.5t13.5 19q78 102 148.5 144.5t137.5 42.5q51 0 90.5 -18.5t75.5 -47.5q16 59 23.5 98t7.5 82q0 127 -51 196t-152 69 q-131 0 -266 -88t-295 -283q-82 -100 -143.5 -208.5t-103.5 -215t-63.5 -205t-21.5 -176.5zM733 84q125 20 261 99t284 255q90 104 131 211t59 240q-59 -139 -139 -263t-176 -227.5t-202.5 -184.5t-217.5 -130zM1166 1790q0 33 26.5 56.5t55.5 23.5q49 0 49 -39 q0 -35 -26.5 -62.5t-61.5 -27.5q-18 0 -30.5 14.5t-12.5 34.5zM1411 1788q0 31 27 55.5t57 24.5q23 0 36.5 -12.5t13.5 -28.5q0 -35 -27 -61.5t-61 -26.5q-20 0 -33 13.5t-13 35.5z" />
<glyph unicode="&#xd8;" horiz-adv-x="1138" d="M39 219q0 4 2 7t12 10q72 41 131.5 92t118.5 127l141 178h-96l31 33h90l111 141l75 10l-123 -151h127l-34 -33h-115l-207 -264q-35 -45 -50 -67.5t-15 -39.5q0 -23 26 -22q23 0 91.5 47t189.5 141q35 27 60.5 50.5t49 49t48 57t59.5 74.5q53 68 111.5 132.5t113.5 113.5 t102.5 80t77.5 31q20 0 35 -14.5t15 -30.5q0 -39 -39 -90.5t-103.5 -105.5t-148.5 -107.5t-172 -96.5l-84 -104q61 53 100 79.5t66 26.5q23 0 35 -12t12 -31q0 -20 -10.5 -40.5t-49.5 -77.5q-12 -18 -26.5 -41t-27.5 -43.5t-21.5 -36t-8.5 -21.5q0 -23 23 -22q12 0 25.5 7 t33 25.5t47 51.5t68.5 84q16 20 25 20q12 0 12 -12q0 -14 -15 -31.5t-38 -44.5q-57 -72 -102.5 -106.5t-88.5 -34.5q-25 0 -42 9t-17 32q0 35 23.5 67.5t64.5 98.5q27 41 43 71.5t16 40.5t-10 11q-16 0 -57 -33t-78 -68q-29 -31 -52.5 -56.5t-44 -52t-41 -55t-42.5 -61.5 h-56l148 213q-74 -59 -128.5 -101t-92 -68t-64.5 -37t-47 -11q-66 0 -66 53q0 12 7 41q-63 -49 -99.5 -71.5t-42.5 -22.5q-12 0 -12 12zM242 6q0 4 2 7t10 18l43 78q10 18 17.5 23t29.5 5q37 0 37 -8q0 -2 -2 -4t-4 -5t-4 -5l-88 -97l-22.5 -20t-8.5 -4q-10 0 -10 12zM387 8 q0 4 3 9.5t11 21.5l50 82q10 14 15 16t34 2q27 0 26 -10q0 -2 -3 -4t-15 -19l-78 -86q-20 -23 -31 -22q-12 0 -12 10zM784 618q41 20 75 41t63.5 40.5t58.5 42t59 49.5q63 53 104.5 104t41.5 72q0 25 -29 24q-16 0 -56 -30.5t-92.5 -82t-111 -119t-113.5 -141.5z" />
<glyph unicode="&#xd9;" horiz-adv-x="2048" d="M-10 649q0 70 20.5 146.5t58 154.5t91 153t116.5 140q121 123 278 213t368 148q-78 27 -134.5 38t-121.5 11q-102 0 -183.5 -20.5t-142.5 -55.5t-105.5 -79t-72.5 -91q-16 -25 -23.5 -46.5t-12.5 -37.5t-10 -25.5t-16 -9.5q-8 0 -8 10q0 12 8.5 34t21.5 47.5t28.5 50 t27.5 40.5q29 39 75 76t108.5 65.5t139.5 47t167 18.5q78 0 142 -14t161 -49q55 8 93 11t79 3q104 0 190 -26.5t147.5 -75.5t96.5 -118t35 -153q0 -74 -26.5 -152.5t-82 -166.5t-142.5 -186.5t-208 -214.5q-147 -141 -235.5 -255t-88.5 -182q0 -27 18.5 -46t41.5 -19 q33 0 91 27.5t149.5 94t220.5 175t303 268.5q8 8 46 45t91 89t114.5 110.5t116 112t94 93l52.5 52.5q49 49 77.5 76.5t47 41t31 16.5t30.5 3q31 0 43 -4t12 -14q0 -6 -34.5 -45t-89.5 -109t-127 -160t-148 -187t-148.5 -194.5t-129 -182.5t-91 -149.5t-34.5 -95.5 q0 -18 10 -32.5t26 -14.5q37 0 120 59.5t210 188.5q4 6 14.5 16.5l21.5 21.5t20.5 19t13.5 8q8 0 8 -10q0 -4 -8 -15t-20.5 -24.5t-27 -29t-26.5 -27.5q-127 -139 -226.5 -197.5t-137.5 -58.5q-35 0 -61.5 31.5t-26.5 91.5q0 68 36.5 155t85 168.5t94.5 147t62 90.5 q-84 -72 -145.5 -126t-110.5 -98t-91 -81t-85 -74q-102 -86 -178 -144.5t-132.5 -94t-97.5 -51t-71 -15.5q-53 0 -84 46t-31 99q0 109 75 222.5t206 250.5q92 96 154.5 162t105.5 114t72.5 84t56.5 75q47 70 72.5 135t25.5 117q0 76 -29.5 132t-83 93t-127 55.5t-161.5 18.5 q-41 0 -67 -2.5t-60 -10.5q78 -53 122 -125.5t44 -185.5q0 -137 -75 -293t-227 -317q-158 -168 -305 -247t-276 -79q-135 0 -218 78t-83 227zM16 645q0 -137 73 -207.5t202 -70.5q88 0 186 42t193.5 112.5t181.5 163.5t151.5 194.5t104.5 205t39 197.5q0 115 -46 185.5 t-130 117.5q-188 -41 -360.5 -129t-295.5 -209q-147 -143 -223 -296.5t-76 -305.5zM1974 1816q0 14 10.5 25.5t24.5 11.5q10 0 17.5 -4t35.5 -27l177 -133q14 -10 20 -16t6 -16q0 -16 -20 -17q-10 4 -19.5 9.5t-13.5 9.5l-191 110q-29 16 -38 23.5t-9 23.5z" />
<glyph unicode="&#xda;" horiz-adv-x="2048" d="M-10 649q0 70 20.5 146.5t58 154.5t91 153t116.5 140q121 123 278 213t368 148q-78 27 -134.5 38t-121.5 11q-102 0 -183.5 -20.5t-142.5 -55.5t-105.5 -79t-72.5 -91q-16 -25 -23.5 -46.5t-12.5 -37.5t-10 -25.5t-16 -9.5q-8 0 -8 10q0 12 8.5 34t21.5 47.5t28.5 50 t27.5 40.5q29 39 75 76t108.5 65.5t139.5 47t167 18.5q78 0 142 -14t161 -49q55 8 93 11t79 3q104 0 190 -26.5t147.5 -75.5t96.5 -118t35 -153q0 -74 -26.5 -152.5t-82 -166.5t-142.5 -186.5t-208 -214.5q-147 -141 -235.5 -255t-88.5 -182q0 -27 18.5 -46t41.5 -19 q33 0 91 27.5t149.5 94t220.5 175t303 268.5q8 8 46 45t91 89t114.5 110.5t116 112t94 93l52.5 52.5q49 49 77.5 76.5t47 41t31 16.5t30.5 3q31 0 43 -4t12 -14q0 -6 -34.5 -45t-89.5 -109t-127 -160t-148 -187t-148.5 -194.5t-129 -182.5t-91 -149.5t-34.5 -95.5 q0 -18 10 -32.5t26 -14.5q37 0 120 59.5t210 188.5q4 6 14.5 16.5l21.5 21.5t20.5 19t13.5 8q8 0 8 -10q0 -4 -8 -15t-20.5 -24.5t-27 -29t-26.5 -27.5q-127 -139 -226.5 -197.5t-137.5 -58.5q-35 0 -61.5 31.5t-26.5 91.5q0 68 36.5 155t85 168.5t94.5 147t62 90.5 q-84 -72 -145.5 -126t-110.5 -98t-91 -81t-85 -74q-102 -86 -178 -144.5t-132.5 -94t-97.5 -51t-71 -15.5q-53 0 -84 46t-31 99q0 109 75 222.5t206 250.5q92 96 154.5 162t105.5 114t72.5 84t56.5 75q47 70 72.5 135t25.5 117q0 76 -29.5 132t-83 93t-127 55.5t-161.5 18.5 q-41 0 -67 -2.5t-60 -10.5q78 -53 122 -125.5t44 -185.5q0 -137 -75 -293t-227 -317q-158 -168 -305 -247t-276 -79q-135 0 -218 78t-83 227zM16 645q0 -137 73 -207.5t202 -70.5q88 0 186 42t193.5 112.5t181.5 163.5t151.5 194.5t104.5 205t39 197.5q0 115 -46 185.5 t-130 117.5q-188 -41 -360.5 -129t-295.5 -209q-147 -143 -223 -296.5t-76 -305.5zM2056 1657q0 10 8.5 17t49.5 36l139 98q33 23 46 30t22 7q12 0 22 -10t10 -25q0 -16 -12 -24t-41 -25l-168 -92q-33 -18 -42 -23.5t-19 -5.5q-14 0 -15 17z" />
<glyph unicode="&#xdb;" horiz-adv-x="2048" d="M-10 649q0 70 20.5 146.5t58 154.5t91 153t116.5 140q121 123 278 213t368 148q-78 27 -134.5 38t-121.5 11q-102 0 -183.5 -20.5t-142.5 -55.5t-105.5 -79t-72.5 -91q-16 -25 -23.5 -46.5t-12.5 -37.5t-10 -25.5t-16 -9.5q-8 0 -8 10q0 12 8.5 34t21.5 47.5t28.5 50 t27.5 40.5q29 39 75 76t108.5 65.5t139.5 47t167 18.5q78 0 142 -14t161 -49q55 8 93 11t79 3q104 0 190 -26.5t147.5 -75.5t96.5 -118t35 -153q0 -74 -26.5 -152.5t-82 -166.5t-142.5 -186.5t-208 -214.5q-147 -141 -235.5 -255t-88.5 -182q0 -27 18.5 -46t41.5 -19 q33 0 91 27.5t149.5 94t220.5 175t303 268.5q8 8 46 45t91 89t114.5 110.5t116 112t94 93l52.5 52.5q49 49 77.5 76.5t47 41t31 16.5t30.5 3q31 0 43 -4t12 -14q0 -6 -34.5 -45t-89.5 -109t-127 -160t-148 -187t-148.5 -194.5t-129 -182.5t-91 -149.5t-34.5 -95.5 q0 -18 10 -32.5t26 -14.5q37 0 120 59.5t210 188.5q4 6 14.5 16.5l21.5 21.5t20.5 19t13.5 8q8 0 8 -10q0 -4 -8 -15t-20.5 -24.5t-27 -29t-26.5 -27.5q-127 -139 -226.5 -197.5t-137.5 -58.5q-35 0 -61.5 31.5t-26.5 91.5q0 68 36.5 155t85 168.5t94.5 147t62 90.5 q-84 -72 -145.5 -126t-110.5 -98t-91 -81t-85 -74q-102 -86 -178 -144.5t-132.5 -94t-97.5 -51t-71 -15.5q-53 0 -84 46t-31 99q0 109 75 222.5t206 250.5q92 96 154.5 162t105.5 114t72.5 84t56.5 75q47 70 72.5 135t25.5 117q0 76 -29.5 132t-83 93t-127 55.5t-161.5 18.5 q-41 0 -67 -2.5t-60 -10.5q78 -53 122 -125.5t44 -185.5q0 -137 -75 -293t-227 -317q-158 -168 -305 -247t-276 -79q-135 0 -218 78t-83 227zM16 645q0 -137 73 -207.5t202 -70.5q88 0 186 42t193.5 112.5t181.5 163.5t151.5 194.5t104.5 205t39 197.5q0 115 -46 185.5 t-130 117.5q-188 -41 -360.5 -129t-295.5 -209q-147 -143 -223 -296.5t-76 -305.5zM1913 1657q0 10 17.5 25.5t33.5 29.5l156 135l24.5 17.5t26.5 7.5q25 0 33 -9.5t14 -37.5l27 -121q4 -16 6 -25.5t2 -13.5q0 -27 -18 -27q-12 0 -19.5 10.5t-13.5 26.5l-49 113l-168 -125 q-20 -16 -29.5 -20.5t-19.5 -4.5q-23 0 -23 19z" />
<glyph unicode="&#xdc;" horiz-adv-x="2048" d="M-10 649q0 70 20.5 146.5t58 154.5t91 153t116.5 140q121 123 278 213t368 148q-78 27 -134.5 38t-121.5 11q-102 0 -183.5 -20.5t-142.5 -55.5t-105.5 -79t-72.5 -91q-16 -25 -23.5 -46.5t-12.5 -37.5t-10 -25.5t-16 -9.5q-8 0 -8 10q0 12 8.5 34t21.5 47.5t28.5 50 t27.5 40.5q29 39 75 76t108.5 65.5t139.5 47t167 18.5q78 0 142 -14t161 -49q55 8 93 11t79 3q104 0 190 -26.5t147.5 -75.5t96.5 -118t35 -153q0 -74 -26.5 -152.5t-82 -166.5t-142.5 -186.5t-208 -214.5q-147 -141 -235.5 -255t-88.5 -182q0 -27 18.5 -46t41.5 -19 q33 0 91 27.5t149.5 94t220.5 175t303 268.5q8 8 46 45t91 89t114.5 110.5t116 112t94 93l52.5 52.5q49 49 77.5 76.5t47 41t31 16.5t30.5 3q31 0 43 -4t12 -14q0 -6 -34.5 -45t-89.5 -109t-127 -160t-148 -187t-148.5 -194.5t-129 -182.5t-91 -149.5t-34.5 -95.5 q0 -18 10 -32.5t26 -14.5q37 0 120 59.5t210 188.5q4 6 14.5 16.5l21.5 21.5t20.5 19t13.5 8q8 0 8 -10q0 -4 -8 -15t-20.5 -24.5t-27 -29t-26.5 -27.5q-127 -139 -226.5 -197.5t-137.5 -58.5q-35 0 -61.5 31.5t-26.5 91.5q0 68 36.5 155t85 168.5t94.5 147t62 90.5 q-84 -72 -145.5 -126t-110.5 -98t-91 -81t-85 -74q-102 -86 -178 -144.5t-132.5 -94t-97.5 -51t-71 -15.5q-53 0 -84 46t-31 99q0 109 75 222.5t206 250.5q92 96 154.5 162t105.5 114t72.5 84t56.5 75q47 70 72.5 135t25.5 117q0 76 -29.5 132t-83 93t-127 55.5t-161.5 18.5 q-41 0 -67 -2.5t-60 -10.5q78 -53 122 -125.5t44 -185.5q0 -137 -75 -293t-227 -317q-158 -168 -305 -247t-276 -79q-135 0 -218 78t-83 227zM16 645q0 -137 73 -207.5t202 -70.5q88 0 186 42t193.5 112.5t181.5 163.5t151.5 194.5t104.5 205t39 197.5q0 115 -46 185.5 t-130 117.5q-188 -41 -360.5 -129t-295.5 -209q-147 -143 -223 -296.5t-76 -305.5zM1911 1691q0 33 26.5 56.5t55.5 23.5q49 0 49 -39q0 -35 -26.5 -62.5t-61.5 -27.5q-18 0 -30.5 14.5t-12.5 34.5zM2156 1689q0 31 27 55.5t57 24.5q23 0 36.5 -12.5t13.5 -28.5 q0 -35 -27 -61.5t-61 -26.5q-20 0 -33 13.5t-13 35.5z" />
<glyph unicode="&#xdf;" horiz-adv-x="909" d="M-408 -383q98 102 167 183t119 149.5t90 129t81 125t89 137.5t118 165q125 168 242.5 306t219 236.5t185.5 152.5t144 54q33 0 49 -18t16 -45q0 -43 -37 -108.5t-100.5 -141.5t-147.5 -153.5t-178 -147.5q53 -6 76 -30.5t23 -75.5q0 -70 -61.5 -175.5t-170.5 -216.5 q-90 -90 -175 -137t-157 -47q-33 0 -56.5 8t-51.5 31l18 22q23 -10 33 -12t20 -2q70 0 146 47t172 140q115 111 176 206t61 146q0 31 -17 49t-48 18q-16 0 -47 -8l-10 25q55 41 97 72.5t79 64.5t72.5 69.5t80.5 86.5q96 109 133 176t37 92q0 14 -10 22.5t-25 8.5 q-37 0 -115.5 -61.5t-176.5 -166.5q-47 -49 -79 -86t-75 -90t-107.5 -138t-175.5 -230q-55 -74 -91 -121t-59.5 -78t-38.5 -53.5t-30.5 -46t-37 -55.5t-54.5 -83q-49 -68 -93 -122t-87 -101t-87 -89t-91 -85z" />
<glyph unicode="&#xe0;" horiz-adv-x="720" d="M-166 113q0 66 52.5 139.5t131 136t167.5 103t163 40.5q33 0 55.5 -12t22.5 -35q0 -4 -4 -20l45 55l117 6l-267 -336q-35 -47 -57 -81.5t-22 -47.5q0 -14 11 -20t21 -6q23 0 64 22.5t89 58.5t100 80t100 87l71 65q2 2 14.5 13.5t16.5 11.5q8 0 8 -11q0 -10 -18 -26 l-72 -70q-135 -133 -240.5 -199.5t-166.5 -66.5q-35 0 -56.5 17.5t-21.5 48.5t18 79q-45 -41 -77.5 -69.5t-58.5 -45t-47.5 -23.5t-41.5 -7q-51 0 -84 31.5t-33 81.5zM-88 68q0 -14 11.5 -28.5t27.5 -14.5q20 0 61 25.5t89.5 66.5t98.5 91t91 98t67.5 90t26.5 67 q0 16 -12.5 28.5t-28.5 12.5q-41 0 -94 -35t-137 -119q-61 -61 -100.5 -108t-62 -81t-30.5 -57.5t-8 -35.5zM245 825q0 14 10.5 25.5t24.5 11.5q10 0 17.5 -4t35.5 -27l177 -133q14 -10 20 -16t6 -16q0 -16 -20 -17q-10 4 -19.5 9.5t-13.5 9.5l-191 110q-29 16 -38 23.5 t-9 23.5z" />
<glyph unicode="&#xe1;" horiz-adv-x="720" d="M-166 113q0 66 52.5 139.5t131 136t167.5 103t163 40.5q33 0 55.5 -12t22.5 -35q0 -4 -4 -20l45 55l117 6l-267 -336q-35 -47 -57 -81.5t-22 -47.5q0 -14 11 -20t21 -6q23 0 64 22.5t89 58.5t100 80t100 87l71 65q2 2 14.5 13.5t16.5 11.5q8 0 8 -11q0 -10 -18 -26 l-72 -70q-135 -133 -240.5 -199.5t-166.5 -66.5q-35 0 -56.5 17.5t-21.5 48.5t18 79q-45 -41 -77.5 -69.5t-58.5 -45t-47.5 -23.5t-41.5 -7q-51 0 -84 31.5t-33 81.5zM-88 68q0 -14 11.5 -28.5t27.5 -14.5q20 0 61 25.5t89.5 66.5t98.5 91t91 98t67.5 90t26.5 67 q0 16 -12.5 28.5t-28.5 12.5q-41 0 -94 -35t-137 -119q-61 -61 -100.5 -108t-62 -81t-30.5 -57.5t-8 -35.5zM331 674q0 10 8.5 17t49.5 36l139 98q33 23 46 30t22 7q12 0 22 -10t10 -25q0 -16 -12 -24t-41 -25l-168 -92q-33 -18 -42 -23.5t-19 -5.5q-14 0 -15 17z" />
<glyph unicode="&#xe2;" horiz-adv-x="720" d="M-166 113q0 66 52.5 139.5t131 136t167.5 103t163 40.5q33 0 55.5 -12t22.5 -35q0 -4 -4 -20l45 55l117 6l-267 -336q-35 -47 -57 -81.5t-22 -47.5q0 -14 11 -20t21 -6q23 0 64 22.5t89 58.5t100 80t100 87l71 65q2 2 14.5 13.5t16.5 11.5q8 0 8 -11q0 -10 -18 -26 l-72 -70q-135 -133 -240.5 -199.5t-166.5 -66.5q-35 0 -56.5 17.5t-21.5 48.5t18 79q-45 -41 -77.5 -69.5t-58.5 -45t-47.5 -23.5t-41.5 -7q-51 0 -84 31.5t-33 81.5zM-88 68q0 -14 11.5 -28.5t27.5 -14.5q20 0 61 25.5t89.5 66.5t98.5 91t91 98t67.5 90t26.5 67 q0 16 -12.5 28.5t-28.5 12.5q-41 0 -94 -35t-137 -119q-61 -61 -100.5 -108t-62 -81t-30.5 -57.5t-8 -35.5zM225 674q0 10 17.5 25.5t33.5 29.5l156 135l24.5 17.5t26.5 7.5q25 0 33 -9.5t14 -37.5l27 -121q4 -16 6 -25.5t2 -13.5q0 -27 -18 -27q-12 0 -19.5 10.5 t-13.5 26.5l-49 113l-168 -125q-20 -16 -29.5 -20.5t-19.5 -4.5q-23 0 -23 19z" />
<glyph unicode="&#xe3;" horiz-adv-x="720" d="M-166 113q0 66 52.5 139.5t131 136t167.5 103t163 40.5q33 0 55.5 -12t22.5 -35q0 -4 -4 -20l45 55l117 6l-267 -336q-35 -47 -57 -81.5t-22 -47.5q0 -14 11 -20t21 -6q23 0 64 22.5t89 58.5t100 80t100 87l71 65q2 2 14.5 13.5t16.5 11.5q8 0 8 -11q0 -10 -18 -26 l-72 -70q-135 -133 -240.5 -199.5t-166.5 -66.5q-35 0 -56.5 17.5t-21.5 48.5t18 79q-45 -41 -77.5 -69.5t-58.5 -45t-47.5 -23.5t-41.5 -7q-51 0 -84 31.5t-33 81.5zM-88 68q0 -14 11.5 -28.5t27.5 -14.5q20 0 61 25.5t89.5 66.5t98.5 91t91 98t67.5 90t26.5 67 q0 16 -12.5 28.5t-28.5 12.5q-41 0 -94 -35t-137 -119q-61 -61 -100.5 -108t-62 -81t-30.5 -57.5t-8 -35.5zM195 670q0 18 11 35.5t29.5 31t40 20.5t42.5 7q31 0 61.5 -8t59 -17.5t51 -17.5t34.5 -8q31 0 62 30q18 18 24 19q17 -1 17 -21q0 -6 -12.5 -26.5t-34.5 -40.5 q-23 -20 -72 -21q-16 0 -35.5 4.5t-64.5 18.5q-43 16 -67.5 21t-39.5 5q-20 0 -35.5 -8t-40.5 -32q-8 -8 -11 -9.5t-5 -1.5q-14 0 -14 19z" />
<glyph unicode="&#xe4;" horiz-adv-x="720" d="M-166 113q0 66 52.5 139.5t131 136t167.5 103t163 40.5q33 0 55.5 -12t22.5 -35q0 -4 -4 -20l45 55l117 6l-267 -336q-35 -47 -57 -81.5t-22 -47.5q0 -14 11 -20t21 -6q23 0 64 22.5t89 58.5t100 80t100 87l71 65q2 2 14.5 13.5t16.5 11.5q8 0 8 -11q0 -10 -18 -26 l-72 -70q-135 -133 -240.5 -199.5t-166.5 -66.5q-35 0 -56.5 17.5t-21.5 48.5t18 79q-45 -41 -77.5 -69.5t-58.5 -45t-47.5 -23.5t-41.5 -7q-51 0 -84 31.5t-33 81.5zM-88 68q0 -14 11.5 -28.5t27.5 -14.5q20 0 61 25.5t89.5 66.5t98.5 91t91 98t67.5 90t26.5 67 q0 16 -12.5 28.5t-28.5 12.5q-41 0 -94 -35t-137 -119q-61 -61 -100.5 -108t-62 -81t-30.5 -57.5t-8 -35.5zM223 700q0 33 26.5 56.5t55.5 23.5q49 0 49 -39q0 -35 -26.5 -62.5t-61.5 -27.5q-18 0 -30.5 14.5t-12.5 34.5zM468 698q0 31 27 55.5t57 24.5q23 0 36.5 -12.5 t13.5 -28.5q0 -35 -27 -61.5t-61 -26.5q-20 0 -33 13.5t-13 35.5z" />
<glyph unicode="&#xe5;" horiz-adv-x="720" d="M-166 113q0 66 52.5 139.5t131 136t167.5 103t163 40.5q33 0 55.5 -12t22.5 -35q0 -4 -4 -20l45 55l117 6l-267 -336q-35 -47 -57 -81.5t-22 -47.5q0 -14 11 -20t21 -6q23 0 64 22.5t89 58.5t100 80t100 87l71 65q2 2 14.5 13.5t16.5 11.5q8 0 8 -11q0 -10 -18 -26 l-72 -70q-135 -133 -240.5 -199.5t-166.5 -66.5q-35 0 -56.5 17.5t-21.5 48.5t18 79q-45 -41 -77.5 -69.5t-58.5 -45t-47.5 -23.5t-41.5 -7q-51 0 -84 31.5t-33 81.5zM-88 68q0 -14 11.5 -28.5t27.5 -14.5q20 0 61 25.5t89.5 66.5t98.5 91t91 98t67.5 90t26.5 67 q0 16 -12.5 28.5t-28.5 12.5q-41 0 -94 -35t-137 -119q-61 -61 -100.5 -108t-62 -81t-30.5 -57.5t-8 -35.5zM315 786q0 49 36 83t81 34q49 0 83 -34t34 -81t-35 -81.5t-82 -34.5q-49 0 -83 33.5t-34 80.5zM367 791q0 -27 18 -45.5t47 -18.5q27 0 46.5 16.5t19.5 47.5 q0 29 -18.5 46t-47.5 17q-25 0 -45 -18.5t-20 -44.5z" />
<glyph unicode="&#xe7;" horiz-adv-x="493" d="M-164 -184l23 32q23 -8 42 -11t29 -3q29 0 47.5 13.5t18.5 35.5q0 23 -19.5 29t-60.5 6l55 90q-47 25 -63.5 58.5t-16.5 78.5q0 68 41 139.5t107 125.5q70 55 149.5 92t145.5 37q31 0 54.5 -20.5t23.5 -47.5q0 -23 -14.5 -38t-43.5 -15q-16 0 -26.5 7t-10.5 24 q0 14 7.5 20t16.5 10t16.5 6t7.5 7q0 18 -27 18q-45 0 -102.5 -37t-110.5 -90q-66 -68 -111 -148.5t-45 -138.5q0 -35 15.5 -50t38.5 -15q39 0 99 32.5t122.5 79.5t122 102.5t100.5 98.5q10 10 17.5 20.5t17.5 10.5t10 -10q0 -6 -12.5 -18.5l-16.5 -16.5 q-143 -158 -256.5 -244t-216.5 -86l-30 -45q37 -10 56 -25.5t19 -44.5q0 -39 -35.5 -65.5t-89.5 -26.5q-16 0 -37.5 3t-56.5 20z" />
<glyph unicode="&#xe8;" horiz-adv-x="530" d="M-125 143q0 47 26.5 100.5t98.5 133.5q39 43 85 74.5t88 51t77 30t51 10.5q35 0 56.5 -16.5t21.5 -45.5q0 -80 -115 -162q-25 -18 -50.5 -33.5t-58 -29.5t-74.5 -29.5t-104 -36.5q-16 -25 -23 -41t-7 -38q0 -33 19.5 -54.5t56.5 -21.5q33 0 84 20.5t112.5 58.5t128 91 t131.5 119l32.5 32.5t27.5 16.5q8 0 8 -8q-10 -10 -19.5 -23t-19.5 -23q-158 -160 -288 -239.5t-202 -79.5q-59 0 -101 42t-42 101zM-4 223q51 20 88 34.5t64.5 28t48 27t41.5 29.5q49 41 74.5 79t25.5 66q0 16 -10.5 23.5t-24.5 7.5q-29 0 -65.5 -23.5t-78.5 -64.5 t-84 -94.5t-79 -112.5zM155 825q0 14 10.5 25.5t24.5 11.5q10 0 17.5 -4t35.5 -27l177 -133q14 -10 20 -16t6 -16q0 -16 -20 -17q-10 4 -19.5 9.5t-13.5 9.5l-191 110q-29 16 -38 23.5t-9 23.5z" />
<glyph unicode="&#xe9;" horiz-adv-x="530" d="M-125 143q0 47 26.5 100.5t98.5 133.5q39 43 85 74.5t88 51t77 30t51 10.5q35 0 56.5 -16.5t21.5 -45.5q0 -80 -115 -162q-25 -18 -50.5 -33.5t-58 -29.5t-74.5 -29.5t-104 -36.5q-16 -25 -23 -41t-7 -38q0 -33 19.5 -54.5t56.5 -21.5q33 0 84 20.5t112.5 58.5t128 91 t131.5 119l32.5 32.5t27.5 16.5q8 0 8 -8q-10 -10 -19.5 -23t-19.5 -23q-158 -160 -288 -239.5t-202 -79.5q-59 0 -101 42t-42 101zM-4 223q51 20 88 34.5t64.5 28t48 27t41.5 29.5q49 41 74.5 79t25.5 66q0 16 -10.5 23.5t-24.5 7.5q-29 0 -65.5 -23.5t-78.5 -64.5 t-84 -94.5t-79 -112.5zM194 674q0 10 8.5 17t49.5 36l139 98q33 23 46 30t22 7q12 0 22 -10t10 -25q0 -16 -12 -24t-41 -25l-168 -92q-33 -18 -42 -23.5t-19 -5.5q-14 0 -15 17z" />
<glyph unicode="&#xea;" horiz-adv-x="530" d="M-125 143q0 47 26.5 100.5t98.5 133.5q39 43 85 74.5t88 51t77 30t51 10.5q35 0 56.5 -16.5t21.5 -45.5q0 -80 -115 -162q-25 -18 -50.5 -33.5t-58 -29.5t-74.5 -29.5t-104 -36.5q-16 -25 -23 -41t-7 -38q0 -33 19.5 -54.5t56.5 -21.5q33 0 84 20.5t112.5 58.5t128 91 t131.5 119l32.5 32.5t27.5 16.5q8 0 8 -8q-10 -10 -19.5 -23t-19.5 -23q-158 -160 -288 -239.5t-202 -79.5q-59 0 -101 42t-42 101zM-4 223q51 20 88 34.5t64.5 28t48 27t41.5 29.5q49 41 74.5 79t25.5 66q0 16 -10.5 23.5t-24.5 7.5q-29 0 -65.5 -23.5t-78.5 -64.5 t-84 -94.5t-79 -112.5zM119 674q0 10 17.5 25.5t33.5 29.5l156 135l24.5 17.5t26.5 7.5q25 0 33 -9.5t14 -37.5l27 -121q4 -16 6 -25.5t2 -13.5q0 -27 -18 -27q-12 0 -19.5 10.5t-13.5 26.5l-49 113l-168 -125q-20 -16 -29.5 -20.5t-19.5 -4.5q-23 0 -23 19z" />
<glyph unicode="&#xeb;" horiz-adv-x="530" d="M-125 143q0 47 26.5 100.5t98.5 133.5q39 43 85 74.5t88 51t77 30t51 10.5q35 0 56.5 -16.5t21.5 -45.5q0 -80 -115 -162q-25 -18 -50.5 -33.5t-58 -29.5t-74.5 -29.5t-104 -36.5q-16 -25 -23 -41t-7 -38q0 -33 19.5 -54.5t56.5 -21.5q33 0 84 20.5t112.5 58.5t128 91 t131.5 119l32.5 32.5t27.5 16.5q8 0 8 -8q-10 -10 -19.5 -23t-19.5 -23q-158 -160 -288 -239.5t-202 -79.5q-59 0 -101 42t-42 101zM-4 223q51 20 88 34.5t64.5 28t48 27t41.5 29.5q49 41 74.5 79t25.5 66q0 16 -10.5 23.5t-24.5 7.5q-29 0 -65.5 -23.5t-78.5 -64.5 t-84 -94.5t-79 -112.5zM117 700q0 33 26.5 56.5t55.5 23.5q49 0 49 -39q0 -35 -26.5 -62.5t-61.5 -27.5q-18 0 -30.5 14.5t-12.5 34.5zM362 698q0 31 27 55.5t57 24.5q23 0 36.5 -12.5t13.5 -28.5q0 -35 -27 -61.5t-61 -26.5q-20 0 -33 13.5t-13 35.5z" />
<glyph unicode="&#xec;" horiz-adv-x="454" d="M-172 84q0 53 57.5 134t171.5 224l70 86l125 15l-197 -246q-72 -90 -112.5 -147.5t-40.5 -79.5q0 -16 13 -28.5t36 -12.5q37 0 101.5 33.5t134 83t135 105.5t108.5 101q16 16 24.5 22.5t14.5 6.5t6 -8q0 -6 -20 -27.5t-49 -50.5q-43 -41 -102.5 -93t-124 -97.5t-128 -76 t-112.5 -30.5q-47 0 -79 19.5t-32 66.5zM82 825q0 14 10.5 25.5t24.5 11.5q10 0 17.5 -4t35.5 -27l177 -133q14 -10 20 -16t6 -16q0 -16 -20 -17q-10 4 -19.5 9.5t-13.5 9.5l-191 110q-29 16 -38 23.5t-9 23.5z" />
<glyph unicode="&#xed;" horiz-adv-x="454" d="M-172 84q0 53 57.5 134t171.5 224l70 86l125 15l-197 -246q-72 -90 -112.5 -147.5t-40.5 -79.5q0 -16 13 -28.5t36 -12.5q37 0 101.5 33.5t134 83t135 105.5t108.5 101q16 16 24.5 22.5t14.5 6.5t6 -8q0 -6 -20 -27.5t-49 -50.5q-43 -41 -102.5 -93t-124 -97.5t-128 -76 t-112.5 -30.5q-47 0 -79 19.5t-32 66.5zM170 674q0 10 8.5 17t49.5 36l139 98q33 23 46 30t22 7q12 0 22 -10t10 -25q0 -16 -12 -24t-41 -25l-168 -92q-33 -18 -42 -23.5t-19 -5.5q-14 0 -15 17z" />
<glyph unicode="&#xee;" horiz-adv-x="454" d="M-172 84q0 53 57.5 134t171.5 224l70 86l125 15l-197 -246q-72 -90 -112.5 -147.5t-40.5 -79.5q0 -16 13 -28.5t36 -12.5q37 0 101.5 33.5t134 83t135 105.5t108.5 101q16 16 24.5 22.5t14.5 6.5t6 -8q0 -6 -20 -27.5t-49 -50.5q-43 -41 -102.5 -93t-124 -97.5t-128 -76 t-112.5 -30.5q-47 0 -79 19.5t-32 66.5zM68 674q0 10 17.5 25.5t33.5 29.5l156 135l24.5 17.5t26.5 7.5q25 0 33 -9.5t14 -37.5l27 -121q4 -16 6 -25.5t2 -13.5q0 -27 -18 -27q-12 0 -19.5 10.5t-13.5 26.5l-49 113l-168 -125q-20 -16 -29.5 -20.5t-19.5 -4.5q-23 0 -23 19z " />
<glyph unicode="&#xef;" horiz-adv-x="454" d="M-172 84q0 53 57.5 134t171.5 224l70 86l125 15l-197 -246q-72 -90 -112.5 -147.5t-40.5 -79.5q0 -16 13 -28.5t36 -12.5q37 0 101.5 33.5t134 83t135 105.5t108.5 101q16 16 24.5 22.5t14.5 6.5t6 -8q0 -6 -20 -27.5t-49 -50.5q-43 -41 -102.5 -93t-124 -97.5t-128 -76 t-112.5 -30.5q-47 0 -79 19.5t-32 66.5zM82 700q0 33 26.5 56.5t55.5 23.5q49 0 49 -39q0 -35 -26.5 -62.5t-61.5 -27.5q-18 0 -30.5 14.5t-12.5 34.5zM327 698q0 31 27 55.5t57 24.5q23 0 36.5 -12.5t13.5 -28.5q0 -35 -27 -61.5t-61 -26.5q-20 0 -33 13.5t-13 35.5z" />
<glyph unicode="&#xf1;" horiz-adv-x="796" d="M-121 16l227 277q45 53 71 88t39 56.5t17.5 32.5t4.5 19q0 29 -25 29q-31 0 -66.5 -37t-93.5 -88q-23 -23 -38 -36t-21 -13q-8 0 -8 10q0 4 16 21.5t29 30.5q51 51 80.5 81.5t50 46t37 19.5t41.5 4q29 0 48 -18.5t19 -53.5q0 -18 -5 -35.5t-21 -52.5q57 47 97 77 t67.5 46.5t49 21.5t46.5 5q29 0 48 -18.5t19 -47.5q0 -35 -18.5 -66.5t-57.5 -80.5l-75 -98q-31 -41 -50.5 -67t-28.5 -43t-12.5 -27.5t-3.5 -22.5q0 -31 29 -31q31 0 78 30.5t99.5 75t103.5 95.5t90 92q12 12 25.5 27.5t21.5 15.5t8 -12q0 -8 -12.5 -20.5l-18.5 -18.5 q-39 -41 -91 -96.5t-110.5 -106.5t-117.5 -86t-111 -35q-35 0 -58.5 25.5t-23.5 56.5q0 29 26 75t91 130l76 94q29 35 46 61.5t17 43.5q0 23 -22 22q-8 0 -17.5 -2t-28 -13.5t-49 -34t-81.5 -63.5q-41 -35 -91.5 -90t-98.5 -111.5t-88 -106.5t-60 -70zM244 670q0 18 11 35.5 t29.5 31t40 20.5t42.5 7q31 0 61.5 -8t59 -17.5t51 -17.5t34.5 -8q31 0 62 30q18 18 24 19q17 -1 17 -21q0 -6 -12.5 -26.5t-34.5 -40.5q-23 -20 -72 -21q-16 0 -35.5 4.5t-64.5 18.5q-43 16 -67.5 21t-39.5 5q-20 0 -35.5 -8t-40.5 -32q-8 -8 -11 -9.5t-5 -1.5 q-14 0 -14 19z" />
<glyph unicode="&#xf2;" d="M-154 121q0 43 33 110.5t103 133.5q37 35 80.5 67.5t91 59t92.5 42t86 15.5q43 0 66.5 -24.5t23.5 -67.5q0 -16 -3 -32.5t-11.5 -39.5t-23.5 -53.5t-42 -73.5q29 0 54.5 2t52 9t54 22.5t62.5 42.5q16 12 28.5 25.5t18.5 13.5q10 0 11 -8q0 -6 -10.5 -17.5t-24 -23 t-27.5 -21.5t-20 -16q-20 -14 -44 -25.5t-45.5 -18.5t-37 -10.5t-21.5 -3.5h-35.5t-35.5 4q-41 -45 -87.5 -87t-94.5 -74.5t-95 -52t-86 -19.5q-47 0 -80 37t-33 84zM-84 88q0 -27 17 -42t42 -15q39 0 117 47t158 125q31 31 57.5 67.5t46 72.5t29.5 66.5t10 51.5 q0 23 -15.5 35t-31.5 12q-47 0 -126 -49t-191 -187q-39 -47 -61.5 -78.5t-34 -52t-14.5 -33t-3 -20.5zM229 825q0 14 10.5 25.5t24.5 11.5q10 0 17.5 -4t35.5 -27l177 -133q14 -10 20 -16t6 -16q0 -16 -20 -17q-10 4 -19.5 9.5t-13.5 9.5l-191 110q-29 16 -38 23.5t-9 23.5z " />
<glyph unicode="&#xf3;" d="M-154 121q0 43 33 110.5t103 133.5q37 35 80.5 67.5t91 59t92.5 42t86 15.5q43 0 66.5 -24.5t23.5 -67.5q0 -16 -3 -32.5t-11.5 -39.5t-23.5 -53.5t-42 -73.5q29 0 54.5 2t52 9t54 22.5t62.5 42.5q16 12 28.5 25.5t18.5 13.5q10 0 11 -8q0 -6 -10.5 -17.5t-24 -23 t-27.5 -21.5t-20 -16q-20 -14 -44 -25.5t-45.5 -18.5t-37 -10.5t-21.5 -3.5h-35.5t-35.5 4q-41 -45 -87.5 -87t-94.5 -74.5t-95 -52t-86 -19.5q-47 0 -80 37t-33 84zM-84 88q0 -27 17 -42t42 -15q39 0 117 47t158 125q31 31 57.5 67.5t46 72.5t29.5 66.5t10 51.5 q0 23 -15.5 35t-31.5 12q-47 0 -126 -49t-191 -187q-39 -47 -61.5 -78.5t-34 -52t-14.5 -33t-3 -20.5zM280 674q0 10 8.5 17t49.5 36l139 98q33 23 46 30t22 7q12 0 22 -10t10 -25q0 -16 -12 -24t-41 -25l-168 -92q-33 -18 -42 -23.5t-19 -5.5q-14 0 -15 17z" />
<glyph unicode="&#xf4;" d="M-154 121q0 43 33 110.5t103 133.5q37 35 80.5 67.5t91 59t92.5 42t86 15.5q43 0 66.5 -24.5t23.5 -67.5q0 -16 -3 -32.5t-11.5 -39.5t-23.5 -53.5t-42 -73.5q29 0 54.5 2t52 9t54 22.5t62.5 42.5q16 12 28.5 25.5t18.5 13.5q10 0 11 -8q0 -6 -10.5 -17.5t-24 -23 t-27.5 -21.5t-20 -16q-20 -14 -44 -25.5t-45.5 -18.5t-37 -10.5t-21.5 -3.5h-35.5t-35.5 4q-41 -45 -87.5 -87t-94.5 -74.5t-95 -52t-86 -19.5q-47 0 -80 37t-33 84zM-84 88q0 -27 17 -42t42 -15q39 0 117 47t158 125q31 31 57.5 67.5t46 72.5t29.5 66.5t10 51.5 q0 23 -15.5 35t-31.5 12q-47 0 -126 -49t-191 -187q-39 -47 -61.5 -78.5t-34 -52t-14.5 -33t-3 -20.5zM184 674q0 10 17.5 25.5t33.5 29.5l156 135l24.5 17.5t26.5 7.5q25 0 33 -9.5t14 -37.5l27 -121q4 -16 6 -25.5t2 -13.5q0 -27 -18 -27q-12 0 -19.5 10.5t-13.5 26.5 l-49 113l-168 -125q-20 -16 -29.5 -20.5t-19.5 -4.5q-23 0 -23 19z" />
<glyph unicode="&#xf5;" d="M-154 121q0 43 33 110.5t103 133.5q37 35 80.5 67.5t91 59t92.5 42t86 15.5q43 0 66.5 -24.5t23.5 -67.5q0 -16 -3 -32.5t-11.5 -39.5t-23.5 -53.5t-42 -73.5q29 0 54.5 2t52 9t54 22.5t62.5 42.5q16 12 28.5 25.5t18.5 13.5q10 0 11 -8q0 -6 -10.5 -17.5t-24 -23 t-27.5 -21.5t-20 -16q-20 -14 -44 -25.5t-45.5 -18.5t-37 -10.5t-21.5 -3.5h-35.5t-35.5 4q-41 -45 -87.5 -87t-94.5 -74.5t-95 -52t-86 -19.5q-47 0 -80 37t-33 84zM-84 88q0 -27 17 -42t42 -15q39 0 117 47t158 125q31 31 57.5 67.5t46 72.5t29.5 66.5t10 51.5 q0 23 -15.5 35t-31.5 12q-47 0 -126 -49t-191 -187q-39 -47 -61.5 -78.5t-34 -52t-14.5 -33t-3 -20.5zM154 670q0 18 11 35.5t29.5 31t40 20.5t42.5 7q31 0 61.5 -8t59 -17.5t51 -17.5t34.5 -8q31 0 62 30q18 18 24 19q17 -1 17 -21q0 -6 -12.5 -26.5t-34.5 -40.5 q-23 -20 -72 -21q-16 0 -35.5 4.5t-64.5 18.5q-43 16 -67.5 21t-39.5 5q-20 0 -35.5 -8t-40.5 -32q-8 -8 -11 -9.5t-5 -1.5q-14 0 -14 19z" />
<glyph unicode="&#xf6;" d="M-154 121q0 43 33 110.5t103 133.5q37 35 80.5 67.5t91 59t92.5 42t86 15.5q43 0 66.5 -24.5t23.5 -67.5q0 -16 -3 -32.5t-11.5 -39.5t-23.5 -53.5t-42 -73.5q29 0 54.5 2t52 9t54 22.5t62.5 42.5q16 12 28.5 25.5t18.5 13.5q10 0 11 -8q0 -6 -10.5 -17.5t-24 -23 t-27.5 -21.5t-20 -16q-20 -14 -44 -25.5t-45.5 -18.5t-37 -10.5t-21.5 -3.5h-35.5t-35.5 4q-41 -45 -87.5 -87t-94.5 -74.5t-95 -52t-86 -19.5q-47 0 -80 37t-33 84zM-84 88q0 -27 17 -42t42 -15q39 0 117 47t158 125q31 31 57.5 67.5t46 72.5t29.5 66.5t10 51.5 q0 23 -15.5 35t-31.5 12q-47 0 -126 -49t-191 -187q-39 -47 -61.5 -78.5t-34 -52t-14.5 -33t-3 -20.5zM191 700q0 33 26.5 56.5t55.5 23.5q49 0 49 -39q0 -35 -26.5 -62.5t-61.5 -27.5q-18 0 -30.5 14.5t-12.5 34.5zM436 698q0 31 27 55.5t57 24.5q23 0 36.5 -12.5 t13.5 -28.5q0 -35 -27 -61.5t-61 -26.5q-20 0 -33 13.5t-13 35.5z" />
<glyph unicode="&#xf9;" d="M-129 3.5q-53 23.5 42 213t144 195.5q8 6 21.5 10t24 2t14.5 -10t-6 -25q-152 -131 -202 -255t-1 -103.5t127 117t102 118.5q84 100 156 170q51 43 96 82t193 21q-184 -217 -274 -349l-91 -133q0 -10 3 -15t7 -5t31 29.5t67 78t96 109.5t113.5 123.5t112.5 107t131 56.5 l156 -2l-203 -215q-94 -102 -156.5 -174t-64.5 -95q0 -27 22 -26q27 0 73 26.5t106.5 72.5t127 103.5t132.5 118.5q12 14 18 19.5t19 5.5q6 0 4 -8q0 -14 -15.5 -28.5t-17.5 -19.5q-156 -150 -277.5 -235.5t-195.5 -85.5q-66 0 -72 70q4 27 21.5 60.5t64.5 100t105.5 135 t128.5 140.5q-23 4 -60 -19.5t-71 -50.5q-31 -29 -125.5 -130t-112.5 -126q-8 -12 -32.5 -39.5t-51.5 -58.5t-51.5 -54.5t-34.5 -23.5q-29 -8 -48.5 15.5t-8.5 66.5q66 184 233 403q-61 -59 -94 -87.5t-63.5 -63.5t-51 -59.5t-35.5 -36.5q-41 -47 -132 -153.5t-144 -83z M205 825q0 14 10 25.5t25 11.5q10 0 17 -4t36 -27l176 -133q14 -10 20.5 -16t6.5 -16q0 -16 -21 -17q-10 4 -19.5 9.5t-13.5 9.5l-190 110q-29 16 -38 23.5t-9 23.5z" />
<glyph unicode="&#xfa;" d="M-129 3.5q-53 23.5 42 213t144 195.5q8 6 21.5 10t24 2t14.5 -10t-6 -25q-152 -131 -202 -255t-1 -103.5t127 117t102 118.5q84 100 156 170q51 43 96 82t193 21q-184 -217 -274 -349l-91 -133q0 -10 3 -15t7 -5t31 29.5t67 78t96 109.5t113.5 123.5t112.5 107t131 56.5 l156 -2l-203 -215q-94 -102 -156.5 -174t-64.5 -95q0 -27 22 -26q27 0 73 26.5t106.5 72.5t127 103.5t132.5 118.5q12 14 18 19.5t19 5.5q6 0 4 -8q0 -14 -15.5 -28.5t-17.5 -19.5q-156 -150 -277.5 -235.5t-195.5 -85.5q-66 0 -72 70q4 27 21.5 60.5t64.5 100t105.5 135 t128.5 140.5q-23 4 -60 -19.5t-71 -50.5q-31 -29 -125.5 -130t-112.5 -126q-8 -12 -32.5 -39.5t-51.5 -58.5t-51.5 -54.5t-34.5 -23.5q-29 -8 -48.5 15.5t-8.5 66.5q66 184 233 403q-61 -59 -94 -87.5t-63.5 -63.5t-51 -59.5t-35.5 -36.5q-41 -47 -132 -153.5t-144 -83z M279 674q0 10 8 17t49 36l139 98q33 23 46.5 30t21.5 7q12 0 22 -10t10 -25q0 -16 -12 -24t-41 -25l-168 -92q-33 -18 -42 -23.5t-19 -5.5q-14 0 -14 17z" />
<glyph unicode="&#xfb;" d="M-129 3.5q-53 23.5 42 213t144 195.5q8 6 21.5 10t24 2t14.5 -10t-6 -25q-152 -131 -202 -255t-1 -103.5t127 117t102 118.5q84 100 156 170q51 43 96 82t193 21q-184 -217 -274 -349l-91 -133q0 -10 3 -15t7 -5t31 29.5t67 78t96 109.5t113.5 123.5t112.5 107t131 56.5 l156 -2l-203 -215q-94 -102 -156.5 -174t-64.5 -95q0 -27 22 -26q27 0 73 26.5t106.5 72.5t127 103.5t132.5 118.5q12 14 18 19.5t19 5.5q6 0 4 -8q0 -14 -15.5 -28.5t-17.5 -19.5q-156 -150 -277.5 -235.5t-195.5 -85.5q-66 0 -72 70q4 27 21.5 60.5t64.5 100t105.5 135 t128.5 140.5q-23 4 -60 -19.5t-71 -50.5q-31 -29 -125.5 -130t-112.5 -126q-8 -12 -32.5 -39.5t-51.5 -58.5t-51.5 -54.5t-34.5 -23.5q-29 -8 -48.5 15.5t-8.5 66.5q66 184 233 403q-61 -59 -94 -87.5t-63.5 -63.5t-51 -59.5t-35.5 -36.5q-41 -47 -132 -153.5t-144 -83z M201 674q0 10 17.5 25.5t33.5 29.5l156 135q14 10 24 17.5t27 7.5q25 0 33 -9.5t14 -37.5l26 -121q4 -16 6.5 -25.5t2.5 -13.5q0 -27 -19 -27q-12 0 -19 10.5t-14 26.5l-49 113l-168 -125q-20 -16 -29.5 -20.5t-19.5 -4.5q-23 0 -22 19z" />
<glyph unicode="&#xfc;" d="M-129 3.5q-53 23.5 42 213t144 195.5q8 6 21.5 10t24 2t14.5 -10t-6 -25q-152 -131 -202 -255t-1 -103.5t127 117t102 118.5q84 100 156 170q51 43 96 82t193 21q-184 -217 -274 -349l-91 -133q0 -10 3 -15t7 -5t31 29.5t67 78t96 109.5t113.5 123.5t112.5 107t131 56.5 l156 -2l-203 -215q-94 -102 -156.5 -174t-64.5 -95q0 -27 22 -26q27 0 73 26.5t106.5 72.5t127 103.5t132.5 118.5q12 14 18 19.5t19 5.5q6 0 4 -8q0 -14 -15.5 -28.5t-17.5 -19.5q-156 -150 -277.5 -235.5t-195.5 -85.5q-66 0 -72 70q4 27 21.5 60.5t64.5 100t105.5 135 t128.5 140.5q-23 4 -60 -19.5t-71 -50.5q-31 -29 -125.5 -130t-112.5 -126q-8 -12 -32.5 -39.5t-51.5 -58.5t-51.5 -54.5t-34.5 -23.5q-29 -8 -48.5 15.5t-8.5 66.5q66 184 233 403q-61 -59 -94 -87.5t-63.5 -63.5t-51 -59.5t-35.5 -36.5q-41 -47 -132 -153.5t-144 -83z M199 700q0 33 26.5 56.5t55.5 23.5q49 0 49 -39q0 -35 -27 -62.5t-61 -27.5q-18 0 -30.5 14.5t-12.5 34.5zM444 698q0 31 27 55.5t57 24.5q23 0 36.5 -12.5t13.5 -28.5q0 -35 -27 -61.5t-62 -26.5q-20 0 -32.5 13.5t-12.5 35.5z" />
<glyph unicode="&#xff;" horiz-adv-x="796" d="M-461 -541q0 23 13.5 55.5t37 68.5t58.5 74t78 71q63 49 128.5 90t126 71.5t110.5 52t85 31.5l115 170q-18 -12 -45 -33.5t-57.5 -42t-63.5 -35t-62 -14.5t-51 16.5t-22 53.5q0 12 3 29.5t18.5 46.5t47 73t86.5 109q61 72 76 99.5t15 43.5q0 23 -27 23q-10 0 -19.5 -3 t-27 -15.5t-43 -35t-66.5 -61.5q-29 -27 -38 -40t-19 -13q-8 0 -8 8q0 6 10 18.5t33 35.5q76 82 123 114.5t90 32.5q27 0 50 -18.5t23 -47.5q0 -37 -29.5 -86t-70.5 -100q-25 -31 -51.5 -61.5t-48 -58t-35.5 -52.5t-14 -43q0 -12 6 -21.5t22 -9.5q23 0 75 34t138 112 t163 168t136 166l113 12l-408 -518q80 31 142.5 62.5t117 69.5t102.5 83t97 102q10 10 19.5 20.5t13.5 10.5q10 0 10 -10q0 -6 -11.5 -18.5t-15.5 -16.5q-57 -63 -111 -113.5t-113.5 -91.5t-128 -76t-154.5 -67q-113 -139 -213.5 -249t-185.5 -187.5t-152.5 -118.5 t-114.5 -41q-29 0 -52.5 19.5t-23.5 51.5zM-432 -537q0 -23 13 -36t36 -13q39 0 99.5 41t130 110.5t146.5 164t150 198.5q-55 -23 -111.5 -49t-105.5 -53t-86 -50.5t-53 -37.5q-123 -100 -171 -170t-48 -105zM297 700q0 33 26.5 56.5t55.5 23.5q49 0 49 -39 q0 -35 -26.5 -62.5t-61.5 -27.5q-18 0 -30.5 14.5t-12.5 34.5zM542 698q0 31 27 55.5t57 24.5q23 0 36.5 -12.5t13.5 -28.5q0 -35 -27 -61.5t-61 -26.5q-20 0 -33 13.5t-13 35.5z" />
<glyph unicode="&#x131;" horiz-adv-x="454" d="M-172 84q0 53 57.5 134t171.5 224l70 86l125 15l-197 -246q-72 -90 -112.5 -147.5t-40.5 -79.5q0 -16 13 -28.5t36 -12.5q37 0 101.5 33.5t134 83t135 105.5t108.5 101q16 16 24.5 22.5t14.5 6.5t6 -8q0 -6 -20 -27.5t-49 -50.5q-43 -41 -102.5 -93t-124 -97.5t-128 -76 t-112.5 -30.5q-47 0 -79 19.5t-32 66.5z" />
<glyph unicode="&#x178;" horiz-adv-x="2048" d="M8 852q0 63 16.5 134t48 139.5t79 134t106.5 118.5q55 49 127 91t149.5 73t157.5 47.5t154 16.5q57 0 100 -6.5t78 -17.5t64.5 -29.5t64.5 -43.5q190 -20 288.5 -126.5t98.5 -270.5q0 -121 -46 -229.5t-132 -239.5q-66 -98 -129.5 -181t-115.5 -153.5t-84 -130 t-32 -108.5q0 -35 39 -35q14 0 39 10t64 37t93 72t126 116q84 82 168 172t160.5 177.5t143.5 165t114 137.5q49 61 78.5 97t52 56.5t44 26.5t54.5 6q14 0 14 -10q0 -23 -36.5 -80t-114.5 -180q-98 -158 -187.5 -306.5t-175.5 -282.5t-171 -252t-173 -214 q-72 -80 -148.5 -148.5t-153.5 -119t-149.5 -80t-138.5 -29.5q-76 0 -119.5 39t-43.5 100q0 59 32.5 97.5t77.5 38.5q23 0 40.5 -13.5t17.5 -34.5q0 -23 -19.5 -39t-48.5 -20q-39 -4 -54.5 -9t-15.5 -34q0 -39 35 -68.5t88 -29.5q94 0 202.5 75.5t225.5 217.5 q47 57 106.5 137t129 187.5t151.5 245.5t176 312q-150 -164 -262 -279.5t-196 -188t-143.5 -106.5t-102.5 -34q-41 0 -67.5 33t-26.5 92t21.5 119.5t60.5 128t93 143.5t120 164q72 94 118.5 166t74.5 129t39 103t11 93q0 111 -68.5 193t-205.5 106q31 -53 45 -100t14 -106 q0 -68 -24.5 -147t-70.5 -164t-110.5 -174t-146.5 -175q-139 -147 -286.5 -237.5t-297.5 -90.5q-125 0 -194.5 78t-69.5 199q0 39 6 104q-14 27 -23 49.5t-14.5 44t-7.5 46t-2 55.5zM41 854q0 -43 5 -74.5t20 -77.5q23 90 57.5 169t83.5 151t115.5 140t154.5 138 q115 88 268.5 148.5t352.5 64.5q-55 31 -107.5 48.5t-124.5 17.5q-76 0 -154.5 -15.5t-152.5 -43t-138.5 -64.5t-113.5 -80q-129 -115 -197.5 -245t-68.5 -277zM76 557q0 -115 66.5 -182.5t170.5 -67.5q94 0 198.5 46t206 124t192.5 178.5t162 208t112 214t41 198.5 q0 70 -23.5 116t-68.5 91q-180 0 -350.5 -59.5t-310.5 -168t-241.5 -260t-142.5 -333.5q16 -27 30.5 -42.5t47.5 -37.5q20 -14 20 -25q0 -6 -12 -6q-16 0 -40.5 18.5t-53.5 51.5q-2 -18 -3 -36t-1 -28zM1837 1691q0 33 26.5 56.5t55.5 23.5q49 0 49 -39q0 -35 -26.5 -62.5 t-61.5 -27.5q-18 0 -30.5 14.5t-12.5 34.5zM2082 1689q0 31 27 55.5t57 24.5q23 0 36.5 -12.5t13.5 -28.5q0 -35 -27 -61.5t-61 -26.5q-20 0 -33 13.5t-13 35.5z" />
<glyph unicode="&#x192;" d="M-211 -539q0 25 12.5 45.5t32.5 20.5q10 0 17.5 -8t7.5 -23q0 -20 -19 -33q-14 -8 -14 -22q0 -23 22 -23q47 0 91.5 79t103.5 247l143 403h-135l12 35h136l61 164q37 98 69.5 175t78.5 143q33 47 75.5 79.5t77.5 32.5q31 0 47.5 -20.5t16.5 -53.5q0 -66 -45 -65 q-10 0 -17.5 8t-7.5 21q0 18 18 34q14 10 15 21q0 25 -23 24q-20 0 -42.5 -18t-49.5 -64.5t-58.5 -123t-72.5 -193.5l-57 -164h149l-12 -35h-150l-149 -421q-53 -152 -127 -246t-143 -94q-31 0 -47.5 21.5t-16.5 53.5z" />
<glyph unicode="&#x2c6;" horiz-adv-x="409" d="M86 674q0 10 17.5 25.5t33.5 29.5l156 135l24.5 17.5t26.5 7.5q25 0 33 -9.5t14 -37.5l27 -121q4 -16 6 -25.5t2 -13.5q0 -27 -18 -27q-12 0 -19.5 10.5t-13.5 26.5l-49 113l-168 -125q-20 -16 -29.5 -20.5t-19.5 -4.5q-23 0 -23 19z" />
<glyph unicode="&#x2d9;" horiz-adv-x="409" d="M197 854q0 8 5 15.5t11 7.5q8 0 16.5 -9.5t18.5 -31.5l47 -107l176 127q23 16 29 19.5t12 3.5q20 0 20 -19q0 -10 -6 -18t-28 -27l-140 -121q-31 -29 -46 -38t-40 -9t-29.5 10.5t-11.5 38.5l-28 125q-6 25 -6 33z" />
<glyph unicode="&#x2da;" horiz-adv-x="409" d="M184 786q0 49 36 83t81 34q49 0 83 -34t34 -81t-35 -81.5t-82 -34.5q-49 0 -83 33.5t-34 80.5zM236 791q0 -27 18 -45.5t47 -18.5q27 0 46.5 16.5t19.5 47.5q0 29 -18.5 46t-47.5 17q-25 0 -45 -18.5t-20 -44.5z" />
<glyph unicode="&#x2dc;" horiz-adv-x="409" d="M72 670q0 18 11 35.5t29.5 31t40 20.5t42.5 7q31 0 61.5 -8t59 -17.5t51 -17.5t34.5 -8q31 0 62 30q18 18 24 19q17 -1 17 -21q0 -6 -12.5 -26.5t-34.5 -40.5q-23 -20 -72 -21q-16 0 -35.5 4.5t-64.5 18.5q-43 16 -67.5 21t-39.5 5q-20 0 -35.5 -8t-40.5 -32 q-8 -8 -11 -9.5t-5 -1.5q-14 0 -14 19z" />
<glyph unicode="&#x401;" horiz-adv-x="1630" d="M12 1163q0 88 48.5 153.5t127.5 113.5q90 53 221.5 84.5t264.5 31.5q66 0 120 -6t105 -20.5t102.5 -35t108.5 -48.5q102 53 216 88t243 35q90 0 144 -32t54 -85q0 -66 -66.5 -136.5t-162.5 -127.5q-57 -35 -114.5 -63t-123 -53.5t-142.5 -49t-169 -47.5q8 -27 13.5 -38.5 t21.5 -33.5q45 6 75.5 9t65.5 3q86 0 134.5 -12t48.5 -41q0 -23 -34 -41t-89 -18q-43 0 -75 3t-57.5 11t-50 19.5t-53.5 27.5q-121 -37 -212 -86t-169 -129q-74 -78 -118 -168t-44 -168q0 -82 27 -127t72 -82q29 123 98.5 235.5t164.5 196.5t205.5 134.5t221.5 50.5t167 -51 t56 -123q0 -129 -94 -235.5t-244 -190.5q-98 -123 -206.5 -195t-194.5 -72t-131 50.5t-49 125.5q-96 39 -159 114t-63 198q0 86 47.5 177t133.5 165t200.5 124t262.5 83q-16 20 -24.5 30.5t-23.5 30.5q-129 -29 -230 -42t-202 -13q-236 0 -352.5 74.5t-116.5 201.5zM39 1161 q0 -109 114.5 -178.5t325.5 -69.5q129 0 232.5 17.5t189.5 40.5q-10 43 -14 69.5t-4 49.5q0 102 54 180t146 149q-59 27 -105 45.5t-92 29.5t-96.5 15t-113.5 4q-137 0 -254 -25.5t-202 -71.5t-133 -110.5t-48 -144.5zM563 18q0 -63 38 -105t118 -42q145 0 338 205 q-92 -39 -173 -58.5t-169 -19.5q-39 0 -70 4t-82 16zM565 82q31 -12 54.5 -20.5t46 -14.5t46 -8t52.5 -2q94 0 170 24.5t176 71.5q76 121 114 216t46 192q0 16 10 16t10 -31q0 -88 -38 -178t-81 -166q51 39 94.5 84t75 92.5t49 95.5t17.5 91q0 51 -44 95t-130 44 q-106 0 -216 -50t-203 -134t-160.5 -192.5t-88.5 -225.5zM983 993q141 33 278.5 83t249.5 116q47 27 89 59.5t73 64.5t49.5 63.5t18.5 58.5q0 39 -44 66.5t-116 27.5q-41 0 -90 -13.5t-98.5 -36t-96.5 -51t-86 -57.5q10 -10 27.5 -26.5t22.5 -20.5q12 -12 12 -20q0 -6 -6 -7 q-8 0 -21 13q-12 10 -25.5 20t-33.5 23q-59 -53 -99 -102.5t-63 -93.5t-32 -86t-9 -81zM1053 868q49 -31 81.5 -40t88.5 -9q37 0 64.5 9.5t27.5 23.5t-28.5 21.5t-67.5 7.5q-59 0 -107.5 -5.5t-58.5 -7.5zM1420 1691q0 33 26.5 56.5t55.5 23.5q49 0 49 -39 q0 -35 -26.5 -62.5t-61.5 -27.5q-18 0 -30.5 14.5t-12.5 34.5zM1665 1689q0 31 27 55.5t57 24.5q23 0 36.5 -12.5t13.5 -28.5q0 -35 -27 -61.5t-61 -26.5q-20 0 -33 13.5t-13 35.5z" />
<glyph unicode="&#x404;" horiz-adv-x="1355" d="M-1 302q-1 36 1 79q10 121 51 218t174 327q266 420 760 598q197 37 358 16q61 -12 109 -43q66 -45 84 -123q109 -63 92 -207l-12 -45q-51 -152 -240 -223q-16 -4 -20 2q-8 8 0 12q193 76 237 215l4 35q18 135 -65 183q-18 -141 -86 -236.5t-197 -157.5q-98 -41 -182 -37 q-84 2 -124 49.5t-28 127.5q8 88 74 157.5t176.5 117.5t209 43t132.5 -24q-47 102 -164 119q-291 0 -495.5 -159.5t-272.5 -237.5q-55 -63 -167 -213l2 2l352 -6q55 -2 53 -23q0 -18 -55 -16l-379 6l-16 -20q-129 -147 -191.5 -275.5t-75.5 -249.5q-2 -27 -1 -49t7 -59 q35 70 83.5 137.5t98.5 125.5t102 105.5t93 77.5q119 84 252 133.5t242 44.5q115 -2 166 -62t41 -151q-8 -86 -61.5 -182t-153.5 -192q-113 -102 -224.5 -162t-210.5 -76q-51 -49 -96 -86t-87 -64.5t-84 -41t-85 -9.5q-68 0 -109.5 51.5t-31.5 147.5q0 18 4 38.5t18 55.5 q-20 39 -32.5 73t-20.5 65.5t-9 67.5zM66 -4q-10 -76 26.5 -120t89.5 -44q70 -2 141.5 36t157.5 126q-96 -16 -149 -14q-74 2 -131.5 23.5t-116.5 66.5q-8 -27 -13 -43.5t-5 -30.5zM117 176q41 -78 104.5 -119t184.5 -43q33 0 53 2t57 9q23 29 49.5 67.5t51 81.5t45 83 t36.5 71q4 10 12.5 24.5t16.5 14.5t6 -15q-2 -14 -17.5 -51t-42 -82t-56 -94t-58.5 -90q115 37 209 90t193 145q37 39 72.5 85t62 91.5t43 90.5t18.5 84q10 90 -41 137t-151 47q-37 2 -91.5 -8.5t-114 -28.5t-118.5 -48t-106 -67q-84 -63 -144.5 -118.5t-107.5 -111.5 t-86 -115.5t-80 -131.5zM946.5 1093.5q-14.5 -69.5 29.5 -114.5t101 -37q55 -10 177 44t192 177q51 82 59 195q-37 25 -108 28q-125 6 -223.5 -40t-155.5 -114.5t-71.5 -138z" />
<glyph unicode="&#x406;" horiz-adv-x="1175" d="M8 182q0 33 12.5 69t34 65.5t51 49t64.5 19.5q20 0 36.5 -14.5t16.5 -34.5q0 -23 -20.5 -41.5t-44.5 -18.5q-4 0 -10.5 1.5t-16.5 3.5q-8 4 -19.5 5t-19.5 1q-16 0 -34.5 -37t-18.5 -76q0 -72 49 -108.5t131 -36.5q170 0 321.5 132t305.5 376q-92 -33 -181.5 -55.5 t-193.5 -35.5q-2 -18 -3 -39.5t-1 -31.5q0 -4 1 -17.5t1 -31t1 -31.5t1 -19q0 -16 -8 -16t-15.5 23.5t-7.5 95.5q0 12 1 29.5t3 33.5h-71q-154 0 -244 71t-90 204q0 74 36 151.5t101.5 151.5t156.5 141.5t202 124.5q80 41 179 75t207.5 61.5t223.5 48t221.5 35t201.5 21.5 t169 7q35 0 40 -1t5 -9q0 -14 -19 -21q-68 -31 -137.5 -84t-136.5 -131q45 -16 73.5 -48t28.5 -83q0 -61 -37.5 -130t-105.5 -137.5t-163 -133t-210 -117.5q-193 -305 -401.5 -472t-448.5 -167q-109 0 -163 47t-54 135zM70 719q0 -115 80.5 -182.5t218.5 -67.5h35t42 4 q33 168 130.5 317.5t231.5 262t294 180t319 72.5q20 20 40 37.5t40.5 33t43 31.5t50.5 37q-285 -14 -529.5 -58.5t-473.5 -140.5q-115 -49 -211 -109.5t-166 -129t-107.5 -141t-37.5 -146.5zM477 475q55 6 104.5 15.5t97.5 21.5t96.5 30t101.5 38q111 174 180 281.5 t121.5 178t97.5 120.5t104 112q-154 -10 -304 -81t-275 -180.5t-211 -248.5t-113 -287zM1112 692q49 18 125 66.5t148.5 113t125 139t52.5 144.5q0 43 -23.5 66.5t-69.5 40.5q-43 -53 -93 -131t-99 -160t-92 -157t-74 -122z" />
<glyph unicode="&#x407;" horiz-adv-x="1175" d="M8 182q0 33 12.5 69t34 65.5t51 49t64.5 19.5q20 0 36.5 -14.5t16.5 -34.5q0 -23 -20.5 -41.5t-44.5 -18.5q-4 0 -10.5 1.5t-16.5 3.5q-8 4 -19.5 5t-19.5 1q-16 0 -34.5 -37t-18.5 -76q0 -72 49 -108.5t131 -36.5q170 0 321.5 132t305.5 376q-92 -33 -181.5 -55.5 t-193.5 -35.5q-2 -18 -3 -39.5t-1 -31.5q0 -4 1 -17.5t1 -31t1 -31.5t1 -19q0 -16 -8 -16t-15.5 23.5t-7.5 95.5q0 12 1 29.5t3 33.5h-71q-154 0 -244 71t-90 204q0 74 36 151.5t101.5 151.5t156.5 141.5t202 124.5q80 41 179 75t207.5 61.5t223.5 48t221.5 35t201.5 21.5 t169 7q35 0 40 -1t5 -9q0 -14 -19 -21q-68 -31 -137.5 -84t-136.5 -131q45 -16 73.5 -48t28.5 -83q0 -61 -37.5 -130t-105.5 -137.5t-163 -133t-210 -117.5q-193 -305 -401.5 -472t-448.5 -167q-109 0 -163 47t-54 135zM70 719q0 -115 80.5 -182.5t218.5 -67.5h35t42 4 q33 168 130.5 317.5t231.5 262t294 180t319 72.5q20 20 40 37.5t40.5 33t43 31.5t50.5 37q-285 -14 -529.5 -58.5t-473.5 -140.5q-115 -49 -211 -109.5t-166 -129t-107.5 -141t-37.5 -146.5zM477 475q55 6 104.5 15.5t97.5 21.5t96.5 30t101.5 38q111 174 180 281.5 t121.5 178t97.5 120.5t104 112q-154 -10 -304 -81t-275 -180.5t-211 -248.5t-113 -287zM1112 692q49 18 125 66.5t148.5 113t125 139t52.5 144.5q0 43 -23.5 66.5t-69.5 40.5q-43 -53 -93 -131t-99 -160t-92 -157t-74 -122zM1420 1691q0 33 26.5 56.5t55.5 23.5q49 0 49 -39 q0 -35 -26.5 -62.5t-61.5 -27.5q-18 0 -30.5 14.5t-12.5 34.5zM1665 1689q0 31 27 55.5t57 24.5q23 0 36.5 -12.5t13.5 -28.5q0 -35 -27 -61.5t-61 -26.5q-20 0 -33 13.5t-13 35.5z" />
<glyph unicode="&#x40e;" horiz-adv-x="2048" d="M8 852q0 63 16.5 134t48 139.5t79 134t106.5 118.5q55 49 127 91t149.5 73t157.5 47.5t154 16.5q57 0 100 -6.5t78 -17.5t64.5 -29.5t64.5 -43.5q190 -20 288.5 -126.5t98.5 -270.5q0 -121 -46 -229.5t-132 -239.5q-66 -98 -129.5 -181t-115.5 -153.5t-84 -130 t-32 -108.5q0 -35 39 -35q14 0 39 10t64 37t93 72t126 116q84 82 168 172t160.5 177.5t143.5 165t114 137.5q49 61 78.5 97t52 56.5t44 26.5t54.5 6q14 0 14 -10q0 -23 -36.5 -80t-114.5 -180q-98 -158 -187.5 -306.5t-175.5 -282.5t-171 -252t-173 -214 q-72 -80 -148.5 -148.5t-153.5 -119t-149.5 -80t-138.5 -29.5q-76 0 -119.5 39t-43.5 100q0 59 32.5 97.5t77.5 38.5q23 0 40.5 -13.5t17.5 -34.5q0 -23 -19.5 -39t-48.5 -20q-39 -4 -54.5 -9t-15.5 -34q0 -39 35 -68.5t88 -29.5q94 0 202.5 75.5t225.5 217.5 q47 57 106.5 137t129 187.5t151.5 245.5t176 312q-150 -164 -262 -279.5t-196 -188t-143.5 -106.5t-102.5 -34q-41 0 -67.5 33t-26.5 92t21.5 119.5t60.5 128t93 143.5t120 164q72 94 118.5 166t74.5 129t39 103t11 93q0 111 -68.5 193t-205.5 106q31 -53 45 -100t14 -106 q0 -68 -24.5 -147t-70.5 -164t-110.5 -174t-146.5 -175q-139 -147 -286.5 -237.5t-297.5 -90.5q-125 0 -194.5 78t-69.5 199q0 39 6 104q-14 27 -23 49.5t-14.5 44t-7.5 46t-2 55.5zM41 854q0 -43 5 -74.5t20 -77.5q23 90 57.5 169t83.5 151t115.5 140t154.5 138 q115 88 268.5 148.5t352.5 64.5q-55 31 -107.5 48.5t-124.5 17.5q-76 0 -154.5 -15.5t-152.5 -43t-138.5 -64.5t-113.5 -80q-129 -115 -197.5 -245t-68.5 -277zM76 557q0 -115 66.5 -182.5t170.5 -67.5q94 0 198.5 46t206 124t192.5 178.5t162 208t112 214t41 198.5 q0 70 -23.5 116t-68.5 91q-180 0 -350.5 -59.5t-310.5 -168t-241.5 -260t-142.5 -333.5q16 -27 30.5 -42.5t47.5 -37.5q20 -14 20 -25q0 -6 -12 -6q-16 0 -40.5 18.5t-53.5 51.5q-2 -18 -3 -36t-1 -28zM1948 1307l16 71q29 156 -4 285l14 4q61 -59 68 -211q225 147 412 215 l-7 -12q-272 -137 -467 -350z" />
<glyph unicode="&#x410;" horiz-adv-x="2238" d="M6 569q0 117 58.5 226.5t175.5 193.5q49 35 98 60.5t108.5 45t134 33t173.5 23.5q119 59 225 90t223 31q74 0 136.5 -16.5t108.5 -47t72.5 -78t26.5 -108.5q0 -78 -25.5 -151.5t-71.5 -143.5t-109.5 -134.5t-139.5 -121.5q-160 -123 -331 -190.5t-367 -67.5q-49 0 -87 4 t-104 16q61 -86 137 -125.5t189 -39.5q211 0 428 114.5t463 354.5h-152q-29 0 -28 14q0 18 28 18h183q23 18 70.5 63.5t110 104t133.5 125t137.5 129t123.5 115.5t94 86q156 139 248 201.5t147 62.5q51 0 52 -39q0 -16 -13.5 -41.5t-33.5 -48.5q-14 -18 -50 -65.5 t-81.5 -111t-95.5 -134t-95 -134t-80 -113.5t-49 -71q-82 -123 -145.5 -226t-107.5 -182t-66.5 -130t-22.5 -70q0 -35 27 -35q20 0 52 18.5t68.5 49.5t77.5 69.5t82 79.5t71 72t34 31t4 -6q0 -10 -19.5 -36t-52.5 -61q-37 -41 -87 -88t-100 -88t-97.5 -68.5t-79.5 -27.5 q-39 0 -59.5 27.5t-20.5 64.5q0 45 16 102.5t43 117t58.5 117.5t60.5 108h-215q-86 -90 -151.5 -151.5t-121 -107t-103.5 -77t-99 -58.5q-137 -76 -263 -110.5t-249 -34.5q-78 0 -140.5 12.5t-117 42t-99.5 76.5t-86 115q-53 18 -100 49t-83 72t-57.5 92t-21.5 112zM33 569 q0 -53 17.5 -97t48 -80t71.5 -62.5t86 -46.5q-10 39 -12 61t-2 53q0 86 29.5 181.5t85 189.5t136 182t183.5 160q-113 -10 -219.5 -45t-198.5 -100q-35 -25 -75 -66t-73.5 -93t-55 -112.5t-21.5 -124.5zM270 406q0 -39 5.5 -66t17.5 -68q61 -14 109.5 -21t123.5 -7 q117 0 241 37t230 94q154 80 254.5 173t158.5 181t82 164t24 125q0 109 -85 168t-214 59q-102 0 -195.5 -23.5t-198.5 -70.5q41 -4 104.5 -14.5t114.5 -26.5q31 -10 53.5 -21.5t22.5 -25.5q0 -10 -10 -10q-14 0 -33.5 9t-54.5 19q-41 12 -103.5 22.5t-162.5 14.5 q-111 -66 -200 -150.5t-152.5 -178t-97.5 -192.5t-34 -191zM1726 569h203q180 250 321.5 415t225.5 257q20 23 46 50.5t48.5 51t37.5 42t15 22.5q0 10 -14 10q-25 0 -55.5 -15.5t-65 -39t-68.5 -53t-65 -58.5q-25 -23 -72 -74t-107 -115.5t-127 -138t-129 -141t-113.5 -125 t-80.5 -88.5z" />
<glyph unicode="&#x411;" horiz-adv-x="2013" d="M-2 854q0 47 14.5 113.5t44 138.5t74.5 141.5t107 122.5q139 119 283.5 173t279.5 54q55 0 96 -6t74 -18t62.5 -30.5t62.5 -43.5q84 6 127 8t84 2q72 0 151.5 -6t145.5 -16q51 -10 122.5 -22.5t161.5 -34.5q59 35 129 61.5t164 26.5q49 0 79 -21.5t30 -54.5 q0 -55 -68 -82t-190 -27h-47.5t-41 2t-43 3t-53.5 5q-47 -45 -79.5 -81.5t-67.5 -88t-81 -129t-118 -204.5q-23 -41 -39 -70t-31.5 -53.5t-31 -50t-35.5 -58.5l-21 -33q-16 -25 -32 -47q-55 -90 -103.5 -151.5t-101.5 -115.5t-107.5 -97t-101.5 -74q84 -23 183.5 -37 t128 -14t53 1t47.5 7q94 12 164.5 51t125.5 111q59 76 86 166t13 166q-14 57 -64.5 111.5t-113.5 80.5q-41 16 -45 35q-2 8 7 14t60 -12q117 -45 184.5 -106.5t92.5 -174.5q16 -80 -7.5 -170t-78.5 -155q-53 -63 -146.5 -107.5t-200.5 -62.5q-37 -6 -72.5 -8t-104 3 t-169 27.5t-194.5 51.5q-109 -37 -179.5 -52.5t-136.5 -15.5q-86 0 -120.5 16.5t-34.5 44.5q0 37 52 56.5t163 19.5q63 0 109 -5t118 -17q49 35 92 73.5t92.5 105t111 169t149.5 262.5q63 90 120.5 174t122 167t129 148.5t148.5 133.5q-117 14 -200 24t-143.5 16.5 t-103.5 9.5t-80 3h-45.5t-48.5 -4q14 -37 20.5 -63.5t6.5 -73.5q0 -53 -17.5 -117t-52.5 -132.5t-87 -139t-122 -136.5q-125 -121 -240.5 -170t-236.5 -49q-55 0 -100 18.5t-77 51t-50.5 77t-18.5 97.5q0 68 28 143.5t77 150t116.5 140.5t145.5 113q98 57 223 109t279 75 q-57 39 -111.5 58.5t-148.5 19.5q-147 0 -285.5 -59.5t-245 -159t-170 -226.5t-63.5 -262q0 -25 2 -54.5t7 -57t11 -52t15 -39.5q10 -20 10 -30q0 -12 -8 -13q-14 0 -26.5 26t-22 62.5t-15.5 77.5t-6 72zM215 762q0 -106 65.5 -159.5t170.5 -53.5q123 0 235.5 58t231.5 179 q115 115 175 229.5t60 246.5q0 27 -1 44t-5 32.5t-10.5 28.5t-16.5 30q-158 -4 -288 -34t-252 -99q-78 -45 -144.5 -102.5t-116 -124t-77 -136.5t-27.5 -139zM403 61q0 -32 74 -32q51 0 89 3t70 9t61.5 16.5t66.5 24.5q-29 8 -50.5 12t-41 7t-43 4t-54.5 1q-96 0 -134 -12 t-38 -33zM1952 1421q57 -12 109.5 -19t101.5 -7q39 0 64.5 11t25.5 40q0 18 -17.5 30.5t-46.5 12.5q-84 0 -139 -21.5t-98 -46.5z" />
<glyph unicode="&#x412;" horiz-adv-x="1781" d="M14 807q0 63 17.5 135t52.5 145.5t85 145.5t116 137q57 57 126.5 103.5t143.5 80t148.5 52t142.5 18.5q111 0 175 -27.5t112 -68.5q94 20 170.5 30.5t169.5 10.5q119 0 218 -24.5t171.5 -69.5t112.5 -106.5t40 -135.5q0 -104 -60.5 -199.5t-160.5 -169.5 q-111 -82 -235.5 -123t-286.5 -63q86 -41 138 -108t52 -173q0 -78 -40 -157.5t-105 -130.5q-63 -51 -159.5 -80t-201.5 -29q-37 0 -70.5 3t-72.5 10t-87 20.5t-114 34.5q-109 -37 -179.5 -52.5t-135.5 -15.5q-86 0 -121 16.5t-35 44.5q0 37 52.5 56.5t162.5 19.5 q63 0 109.5 -5t118.5 -17q49 35 92 73.5t92 105t110.5 169t149.5 262.5q106 195 207.5 338t216.5 235q18 14 44 33t50.5 34t43 25.5t24.5 10.5q10 0 10 -12q0 -10 -23.5 -34t-58.5 -71q-57 -82 -95 -135t-66.5 -96t-55.5 -84t-61.5 -100.5t-82.5 -145.5t-122 -219 q-37 -66 -85 -127.5t-101.5 -115.5t-107.5 -97t-103 -68q45 -10 77.5 -17t59 -11.5t49 -6.5t45.5 -2q92 0 167 27t140 84q72 61 115 140t43 151q0 55 -30 107.5t-85 84.5q-37 20 -37 37q0 8 10.5 13.5t38.5 7.5q106 6 219 52t204 117.5t149.5 160.5t58.5 180q0 72 -32.5 123 t-108.5 98q-70 43 -160 66.5t-194 23.5q-63 0 -115.5 -7t-128.5 -22q31 -47 46 -87t15 -85q0 -139 -73.5 -279.5t-221.5 -291.5q-141 -145 -288.5 -231.5t-270.5 -86.5q-98 0 -150 58.5t-52 158.5q0 49 21.5 114t60 134.5t94 139t123.5 129.5q66 57 134 103t145 86t166 78 t200 77q-43 31 -99.5 52t-154.5 21q-137 0 -277.5 -63.5t-257.5 -175.5q-55 -53 -103 -122t-84 -141.5t-57.5 -144.5t-21.5 -129q0 -37 5 -74.5t13 -64.5q4 -10 7.5 -20.5t3.5 -14.5q0 -14 -11 -14q-10 0 -18 19.5t-14.5 47t-9.5 58t-3 53.5zM170 61q0 -32 74 -32q51 0 89 3 t69.5 9t61.5 16.5t66 24.5q-29 8 -50 12t-40.5 7t-43 4t-54.5 1q-96 0 -134 -12t-38 -33zM180 655q0 -92 46 -138t132 -46q111 0 247 72.5t290 232.5q139 143 212 284.5t73 260.5q0 53 -15.5 91t-46.5 85q-74 -20 -159 -53t-171 -76t-167.5 -95t-149.5 -112 q-66 -59 -119 -125.5t-92 -133t-59.5 -131t-20.5 -116.5z" />
<glyph unicode="&#x413;" horiz-adv-x="1669" d="M-2 854q0 47 14.5 113.5t44 138.5t74.5 141.5t107 122.5q139 119 283.5 173t279.5 54q55 0 96 -6t74 -18t62.5 -30.5t62.5 -43.5q84 6 127 8t84 2q72 0 151.5 -6t145.5 -16q51 -10 122.5 -22.5t161.5 -34.5q59 35 129 61.5t164 26.5q49 0 79 -21.5t30 -54.5 q0 -55 -68 -82t-190 -27h-47.5t-41 2t-43 3t-53.5 5q-47 -45 -79.5 -81.5t-67.5 -88t-81 -129t-118 -204.5q-23 -41 -39 -70t-31.5 -53.5t-31 -50t-35.5 -58.5l-21 -33q-51 -76 -92 -135t-82 -108t-86 -91t-102 -83q-96 -70 -193.5 -114t-203.5 -44q-51 0 -93 24.5t-42 79.5 q0 43 30.5 75t71.5 32q27 0 43 -13.5t16 -35.5q0 -29 -15 -40t-48 -24q-23 -6 -23 -22t24.5 -29.5t65.5 -13.5q57 0 130 45t148 118.5t146.5 169t128.5 197.5l21 37q102 162 177 272.5t139.5 193.5t129 148.5t148.5 133.5q-117 14 -200 24t-143.5 16.5t-103.5 9.5t-80 3 h-45.5t-48.5 -4q14 -37 20.5 -63.5t6.5 -73.5q0 -53 -17.5 -117t-52.5 -132.5t-87 -139t-122 -136.5q-125 -121 -240.5 -170t-236.5 -49q-55 0 -100 18.5t-77 51t-50.5 77t-18.5 97.5q0 68 28 143.5t77 150t116.5 140.5t145.5 113q98 57 223 109t279 75q-57 39 -111.5 58.5 t-148.5 19.5q-147 0 -285.5 -59.5t-245 -159t-170 -226.5t-63.5 -262q0 -25 2 -54.5t7 -57t11 -52t15 -39.5q10 -20 10 -30q0 -12 -8 -13q-14 0 -26.5 26t-22 62.5t-15.5 77.5t-6 72zM215 762q0 -106 65.5 -159.5t170.5 -53.5q123 0 235.5 58t231.5 179q115 115 175 229.5 t60 246.5q0 27 -1 44t-5 32.5t-10.5 28.5t-16.5 30q-158 -4 -288 -34t-252 -99q-78 -45 -144.5 -102.5t-116 -124t-77 -136.5t-27.5 -139zM1952 1421q57 -12 109.5 -19t101.5 -7q39 0 64.5 11t25.5 40q0 18 -17.5 30.5t-46.5 12.5q-84 0 -139 -21.5t-98 -46.5z" />
<glyph unicode="&#x414;" horiz-adv-x="2123" d="M12 813q0 72 24.5 151.5t67.5 157.5t103.5 149.5t132.5 129.5q143 115 314 179.5t358 64.5q106 0 181 -28t146 -85q41 2 66 3t37 1q68 0 125 -6t109.5 -18.5t101.5 -32t102 -43.5q66 45 118 72.5t68 27.5q8 0 9 -6q0 -8 -9 -12q-10 -6 -29.5 -19.5t-41 -30t-44 -33 t-36.5 -28.5q98 -78 150.5 -175t52.5 -233q0 -172 -77 -340t-222 -309q-190 -186 -366.5 -268t-348.5 -82q-37 0 -70 3t-70.5 11.5t-82.5 21.5t-107 34q-63 -23 -110.5 -36.5t-88 -20.5t-81.5 -10t-91 -3q-86 0 -136 15.5t-50 52.5t64.5 61.5t185.5 24.5q33 0 63.5 -2 t62.5 -8.5t66.5 -14.5t79.5 -20q59 33 111.5 75.5t109 107t122 156t149.5 224.5q74 115 129 199.5t101 149t86 114t84 92.5t95.5 86t118.5 96q-68 41 -165 70.5t-220 29.5q-12 0 -33.5 -1t-68.5 -5q29 -55 43 -97t14 -97q0 -141 -75.5 -300t-211.5 -296 q-68 -70 -146.5 -129.5t-159.5 -102.5t-158.5 -67.5t-143.5 -24.5q-131 0 -196.5 69.5t-65.5 180.5q0 63 23.5 139t67.5 155t107.5 155.5t143.5 140.5q96 76 177 126t161 84t165 53t191 36q-70 47 -134 69.5t-161 22.5q-164 0 -334.5 -66.5t-312.5 -183.5 q-63 -51 -120.5 -119.5t-100.5 -143.5t-68.5 -149.5t-25.5 -140.5q0 -53 10 -89t22.5 -58.5t22.5 -35.5t10 -22q0 -8 -8 -8t-17 9.5t-17.5 22.5t-14.5 25.5t-8 18.5q-25 57 -25 133zM248 68q0 -12 30.5 -26.5t122.5 -14.5q45 0 83 4t72 12t67.5 19.5t72.5 25.5 q-78 23 -128 31t-89 8q-109 0 -170 -17.5t-61 -41.5zM285 631q0 -96 65.5 -153.5t169.5 -57.5q55 0 124 18.5t145.5 56t157.5 96t161 138.5q66 68 118 141.5t88 148.5t54 146.5t18 137.5t-16 110.5t-51 87.5q-188 -20 -363.5 -91t-334.5 -204q-78 -66 -140.5 -138.5 t-105.5 -147t-66.5 -148.5t-23.5 -141zM811 88q74 -23 139.5 -38t128.5 -15q72 0 149 24.5t152.5 68.5t148.5 104.5t136 132.5q84 92 148.5 187t109.5 186t67.5 176t22.5 159q0 113 -34.5 182.5t-94.5 122.5q-63 -59 -103 -101t-75 -89t-75 -113.5t-101 -177.5 q-98 -174 -179 -299t-163 -219t-172 -163t-205 -128z" />
<glyph unicode="&#x415;" horiz-adv-x="1630" d="M12 1163q0 88 48.5 153.5t127.5 113.5q90 53 221.5 84.5t264.5 31.5q66 0 120 -6t105 -20.5t102.5 -35t108.5 -48.5q102 53 216 88t243 35q90 0 144 -32t54 -85q0 -66 -66.5 -136.5t-162.5 -127.5q-57 -35 -114.5 -63t-123 -53.5t-142.5 -49t-169 -47.5q8 -27 13.5 -38.5 t21.5 -33.5q45 6 75.5 9t65.5 3q86 0 134.5 -12t48.5 -41q0 -23 -34 -41t-89 -18q-43 0 -75 3t-57.5 11t-50 19.5t-53.5 27.5q-121 -37 -212 -86t-169 -129q-74 -78 -118 -168t-44 -168q0 -82 27 -127t72 -82q29 123 98.5 235.5t164.5 196.5t205.5 134.5t221.5 50.5t167 -51 t56 -123q0 -129 -94 -235.5t-244 -190.5q-98 -123 -206.5 -195t-194.5 -72t-131 50.5t-49 125.5q-96 39 -159 114t-63 198q0 86 47.5 177t133.5 165t200.5 124t262.5 83q-16 20 -24.5 30.5t-23.5 30.5q-129 -29 -230 -42t-202 -13q-236 0 -352.5 74.5t-116.5 201.5zM39 1161 q0 -109 114.5 -178.5t325.5 -69.5q129 0 232.5 17.5t189.5 40.5q-10 43 -14 69.5t-4 49.5q0 102 54 180t146 149q-59 27 -105 45.5t-92 29.5t-96.5 15t-113.5 4q-137 0 -254 -25.5t-202 -71.5t-133 -110.5t-48 -144.5zM563 18q0 -63 38 -105t118 -42q145 0 338 205 q-92 -39 -173 -58.5t-169 -19.5q-39 0 -70 4t-82 16zM565 82q31 -12 54.5 -20.5t46 -14.5t46 -8t52.5 -2q94 0 170 24.5t176 71.5q76 121 114 216t46 192q0 16 10 16t10 -31q0 -88 -38 -178t-81 -166q51 39 94.5 84t75 92.5t49 95.5t17.5 91q0 51 -44 95t-130 44 q-106 0 -216 -50t-203 -134t-160.5 -192.5t-88.5 -225.5zM983 993q141 33 278.5 83t249.5 116q47 27 89 59.5t73 64.5t49.5 63.5t18.5 58.5q0 39 -44 66.5t-116 27.5q-41 0 -90 -13.5t-98.5 -36t-96.5 -51t-86 -57.5q10 -10 27.5 -26.5t22.5 -20.5q12 -12 12 -20q0 -6 -6 -7 q-8 0 -21 13q-12 10 -25.5 20t-33.5 23q-59 -53 -99 -102.5t-63 -93.5t-32 -86t-9 -81zM1053 868q49 -31 81.5 -40t88.5 -9q37 0 64.5 9.5t27.5 23.5t-28.5 21.5t-67.5 7.5q-59 0 -107.5 -5.5t-58.5 -7.5z" />
<glyph unicode="&#x416;" horiz-adv-x="2394" d="M-5 845.5q-1 24.5 3 55.5q4 63 26.5 135t60.5 139.5t91 134t117 122.5q61 51 136 93t156 73.5t161.5 49t156.5 17.5q57 2 99 -4t76 -17.5t62.5 -29t59.5 -41.5q190 -18 278.5 -124t75.5 -269q-4 -100 -65.5 -253t-210.5 -356q-29 -41 -61 -82q41 37 79 76 q100 96 203 196.5t192 193t159.5 166t107.5 108.5q43 45 68.5 70.5t41 39t21.5 15.5q4 4 6 4q25 23 46.5 39t27.5 24l-424 -716l-35 -60q-74 -111 -172 -229q-35 -47 -65 -84q74 61 133 123q102 104 188 196t171 174t308 308q80 82 137 131q43 43 87 84q254 207 438 225 q68 12 129 -10q121 -51 108 -201q-10 -92 -67 -195q-68 -82 -164 -145l-16 -6q-14 0 -15 10q-2 14 10 21q35 20 148 135q66 80 72 172q4 74 -23 119q-51 84 -178 65q-135 -12 -363 -246q-178 -182 -279.5 -330.5t-272.5 -456.5t-156 -413q-6 -37 30 -33q45 6 127 117l11 4 q20 2 12 -22q-102 -133 -178 -146q-111 -12 -98 133q12 109 157 420q20 43 43 86q104 178 219 353q-88 -88 -157 -156q-98 -94 -190.5 -193.5t-193 -202t-188.5 -173.5q-80 -63 -227 -189l-2 -2q-18 -18 -36.5 -24.5t-30 -6.5t-12.5 3t15 3q86 63 279 396q57 96 123 205 q111 176 178 272l10 16q63 82 101 135q-33 -31 -76 -75q-43 -49 -109.5 -116t-144.5 -144.5t-163 -159.5t-167 -158q-39 -35 -110 -90q-51 -49 -97 -90q-139 -113 -258 -173.5t-202.5 -70.5t-170.5 -12q-133 0 -201.5 55.5t-58.5 167.5q4 61 29 113q4 6 6 14q-45 18 -76 58 q-61 78 -51 198q2 39 17 105q-12 27 -19.5 49t-9.5 42.5t-3 45zM28 830.5q3 -31.5 11 -76.5q31 90 73 168.5t98 151.5t129 141.5t167 140.5q123 88 281.5 151.5t359.5 69.5q-51 29 -102.5 46t-122.5 15q-76 -2 -157 -17t-158 -44t-143.5 -66.5t-121.5 -80.5 q-139 -117 -219 -247t-92 -278q-6 -43 -3 -74.5zM37 608q-10 -115 49 -182q31 -33 68 -47q20 33 51 70q47 47 73.5 67.5t52 37.5t48 29.5t37.5 12.5q10 0 10 -8q-2 -6 -10 -13q-31 -16 -49.5 -27t-34 -22.5t-30.5 -22.5t-64 -57q-37 -43 -60 -77q33 -9 76 -7 q94 0 202.5 47.5t217 126t209 181t180.5 210t130 215t58 199.5q8 70 -11 115t-62 90q-180 -2 -355.5 -63.5t-326 -172t-266 -263t-171.5 -334.5q14 -27 26.5 -42.5t43.5 -37.5q20 -14 18 -25q0 -6 -12 -6q-16 0 -39.5 18.5t-48.5 51.5q-4 -18 -7 -36t-3 -28zM131 223 q-10 -96 42 -145t159 -49q125 2 247.5 63.5t225 151.5t226.5 234.5t275.5 380t176.5 378.5q10 111 -51.5 192.5t-196.5 106.5q27 -53 37 -101.5t4 -107.5q-6 -68 -38 -145.5t-85 -163.5t-127 -176t-164 -176q-152 -150 -308.5 -242t-305.5 -92q-49 -2 -86 8v-2 q-27 -49 -31 -115z" />
<glyph unicode="&#x417;" horiz-adv-x="1630" d="M315.5 16.5q-18.5 81.5 24.5 192.5q-41 100 -9.5 202.5t173.5 190.5q68 51 175 68.5t208 -13.5q102 -33 145 -101.5t35 -153.5t-68.5 -183t-169.5 -190q82 10 156 32.5t166 79.5q84 55 144.5 131t76.5 148q23 82 -7 141.5t-99 120.5q-45 -4 -79 -4t-67 2t-63.5 10 t-71.5 19q-47 16 -60.5 40.5t13.5 36.5q33 20 90 14.5t133 -32.5q37 -10 60.5 -20.5t54.5 -28.5q37 12 58.5 21.5t82.5 41.5q119 61 207 137t136 181.5t24.5 205t-119.5 160.5q20 -53 18 -100t-28 -109q-23 -51 -59.5 -98t-87 -88t-111 -79t-125.5 -64q-70 -25 -139.5 -40.5 t-136 -22.5t-126 2.5t-98.5 33.5q-39 25 -66.5 51.5t-40 64.5t-8 87t32.5 104q16 37 50 80t83 81t116 76t155 68q61 29 138 38.5t149.5 8.5t132 -11.5t92.5 -22.5q-23 23 -40.5 36t-39.5 25q-68 37 -140.5 58.5t-147.5 22.5t-148.5 -17.5t-141.5 -53.5q-25 -16 -43 -28.5 t-28 -9.5q-6 0 -3 8q10 16 45 36.5t97 49.5q49 18 106.5 30.5t122 10.5t138 -20.5t143.5 -63.5q16 -10 35.5 -20.5t33 -23t26.5 -26.5t40 -37q100 -61 140 -132t58.5 -148.5t-24.5 -189t-163 -201t-353 -142.5q100 -66 148.5 -133.5t43.5 -146.5q-6 -74 -61 -151t-150 -134 q-141 -86 -277 -120t-265 -32q-84 -45 -177.5 -66.5t-168.5 1.5q-78 27 -96.5 108.5zM360 166q-51 -193 82 -238q68 -27 146 -8t149 60q-63 10 -95 14t-69 18q-68 27 -119 65t-94 89zM373 276q45 63 105.5 136t160.5 139q31 16 39 14q12 -6 -6 -16q-102 -68 -167 -145.5 t-128 -180.5q37 -63 77 -102t117 -66q29 -6 52.5 -12t50 -11t56.5 -6t71 3q106 82 164.5 178t67.5 181t-35 150.5t-140 98.5q-78 27 -164 9.5t-141 -54.5q-39 -27 -77 -66t-61.5 -79.5t-32.5 -85t-9 -85.5zM699 1038.5q19 -69.5 87 -106.5q37 -27 94.5 -36t119 -6t132 18.5 t134.5 41.5q55 20 112.5 55t105.5 76t89 87t57 96q31 63 27 119.5t-29 93.5q-51 23 -111.5 37t-124 16t-134 -7.5t-180 -42t-215 -115.5t-144.5 -170t-20 -156.5zM966 752.5q13 -15.5 48 -23.5q53 -16 91 -21.5t120 1.5q-10 10 -47.5 26.5t-92.5 34.5q-35 8 -67.5 11 t-50.5 -5q-14 -8 -1 -23.5z" />
<glyph unicode="&#x418;" horiz-adv-x="2048" d="M-10 649q0 70 20.5 146.5t58 154.5t91 153t116.5 140q121 123 278 213t368 148q-78 27 -134.5 38t-121.5 11q-102 0 -183.5 -20.5t-142.5 -55.5t-105.5 -79t-72.5 -91q-16 -25 -23.5 -46.5t-12.5 -37.5t-10 -25.5t-16 -9.5q-8 0 -8 10q0 12 8.5 34t21.5 47.5t28.5 50 t27.5 40.5q29 39 75 76t108.5 65.5t139.5 47t167 18.5q78 0 142 -14t161 -49q55 8 93 11t79 3q104 0 190 -26.5t147.5 -75.5t96.5 -118t35 -153q0 -74 -26.5 -152.5t-82 -166.5t-142.5 -186.5t-208 -214.5q-147 -141 -235.5 -255t-88.5 -182q0 -27 18.5 -46t41.5 -19 q33 0 91 27.5t149.5 94t220.5 175t303 268.5q8 8 46 45t91 89t114.5 110.5t116 112t94 93l52.5 52.5q49 49 77.5 76.5t47 41t31 16.5t30.5 3q31 0 43 -4t12 -14q0 -6 -34.5 -45t-89.5 -109t-127 -160t-148 -187t-148.5 -194.5t-129 -182.5t-91 -149.5t-34.5 -95.5 q0 -18 10 -32.5t26 -14.5q37 0 120 59.5t210 188.5q4 6 14.5 16.5l21.5 21.5t20.5 19t13.5 8q8 0 8 -10q0 -4 -8 -15t-20.5 -24.5t-27 -29t-26.5 -27.5q-127 -139 -226.5 -197.5t-137.5 -58.5q-35 0 -61.5 31.5t-26.5 91.5q0 68 36.5 155t85 168.5t94.5 147t62 90.5 q-84 -72 -145.5 -126t-110.5 -98t-91 -81t-85 -74q-102 -86 -178 -144.5t-132.5 -94t-97.5 -51t-71 -15.5q-53 0 -84 46t-31 99q0 109 75 222.5t206 250.5q92 96 154.5 162t105.5 114t72.5 84t56.5 75q47 70 72.5 135t25.5 117q0 76 -29.5 132t-83 93t-127 55.5t-161.5 18.5 q-41 0 -67 -2.5t-60 -10.5q78 -53 122 -125.5t44 -185.5q0 -137 -75 -293t-227 -317q-158 -168 -305 -247t-276 -79q-135 0 -218 78t-83 227zM16 645q0 -137 73 -207.5t202 -70.5q88 0 186 42t193.5 112.5t181.5 163.5t151.5 194.5t104.5 205t39 197.5q0 115 -46 185.5 t-130 117.5q-188 -41 -360.5 -129t-295.5 -209q-147 -143 -223 -296.5t-76 -305.5z" />
<glyph unicode="&#x419;" horiz-adv-x="2048" d="M-10 649q0 70 20.5 146.5t58 154.5t91 153t116.5 140q121 123 278 213t368 148q-78 27 -134.5 38t-121.5 11q-102 0 -183.5 -20.5t-142.5 -55.5t-105.5 -79t-72.5 -91q-16 -25 -23.5 -46.5t-12.5 -37.5t-10 -25.5t-16 -9.5q-8 0 -8 10q0 12 8.5 34t21.5 47.5t28.5 50 t27.5 40.5q29 39 75 76t108.5 65.5t139.5 47t167 18.5q78 0 142 -14t161 -49q55 8 93 11t79 3q104 0 190 -26.5t147.5 -75.5t96.5 -118t35 -153q0 -74 -26.5 -152.5t-82 -166.5t-142.5 -186.5t-208 -214.5q-147 -141 -235.5 -255t-88.5 -182q0 -27 18.5 -46t41.5 -19 q33 0 91 27.5t149.5 94t220.5 175t303 268.5q8 8 46 45t91 89t114.5 110.5t116 112t94 93l52.5 52.5q49 49 77.5 76.5t47 41t31 16.5t30.5 3q31 0 43 -4t12 -14q0 -6 -34.5 -45t-89.5 -109t-127 -160t-148 -187t-148.5 -194.5t-129 -182.5t-91 -149.5t-34.5 -95.5 q0 -18 10 -32.5t26 -14.5q37 0 120 59.5t210 188.5q4 6 14.5 16.5l21.5 21.5t20.5 19t13.5 8q8 0 8 -10q0 -4 -8 -15t-20.5 -24.5t-27 -29t-26.5 -27.5q-127 -139 -226.5 -197.5t-137.5 -58.5q-35 0 -61.5 31.5t-26.5 91.5q0 68 36.5 155t85 168.5t94.5 147t62 90.5 q-84 -72 -145.5 -126t-110.5 -98t-91 -81t-85 -74q-102 -86 -178 -144.5t-132.5 -94t-97.5 -51t-71 -15.5q-53 0 -84 46t-31 99q0 109 75 222.5t206 250.5q92 96 154.5 162t105.5 114t72.5 84t56.5 75q47 70 72.5 135t25.5 117q0 76 -29.5 132t-83 93t-127 55.5t-161.5 18.5 q-41 0 -67 -2.5t-60 -10.5q78 -53 122 -125.5t44 -185.5q0 -137 -75 -293t-227 -317q-158 -168 -305 -247t-276 -79q-135 0 -218 78t-83 227zM16 645q0 -137 73 -207.5t202 -70.5q88 0 186 42t193.5 112.5t181.5 163.5t151.5 194.5t104.5 205t39 197.5q0 115 -46 185.5 t-130 117.5q-188 -41 -360.5 -129t-295.5 -209q-147 -143 -223 -296.5t-76 -305.5zM1948 1307l16 71q29 156 -4 285l14 4q61 -59 68 -211q225 147 412 215l-7 -12q-272 -137 -467 -350z" />
<glyph unicode="&#x41a;" horiz-adv-x="1857" d="M2 717q0 100 51 183t152 179q55 104 139 200.5t186 162.5q119 76 245 119t237 43q82 0 150.5 -21.5t116.5 -60.5t74.5 -94.5t26.5 -120.5q12 0 42 2t72 3t91 4t98 7q37 2 74 9t55 7t19 -16q0 -10 -22.5 -30.5t-75.5 -71.5q-33 -33 -96.5 -111t-150.5 -187.5t-193.5 -245 t-225.5 -282.5q-92 -113 -173 -188.5t-159 -121.5t-155.5 -65.5t-163.5 -19.5q-133 0 -207 59.5t-74 171.5q0 61 20.5 112.5t61.5 113.5q-104 37 -159.5 93t-55.5 167zM29 715q0 -98 54 -154.5t157 -77.5q23 20 47 41t47.5 38.5t45 28.5t36.5 11q10 0 10 -8q0 -6 -8 -12 q-27 -16 -45.5 -26.5t-32.5 -22t-28.5 -23.5t-35.5 -31q14 0 25.5 -1t17.5 -1q166 0 332 62.5t328 185.5t262 254t111 274q-39 0 -77 -2t-77 -2q-78 0 -155.5 2t-151.5 2q-199 0 -366 -49t-302 -145q-23 -41 -29 -60.5t-10 -29.5q-4 -20 -10 -33.5t-12 -13.5q-4 0 -6 3 t-2 15q0 10 3 21.5t13 46.5q-70 -66 -105.5 -134.5t-35.5 -158.5zM164 233q0 -96 56.5 -147t162.5 -51q125 0 228.5 60.5t192.5 153.5t168 206.5t156 220.5q68 94 130.5 172t130 149.5t143.5 141t168 143.5l-318 -27q-8 -90 -55 -184t-125 -183t-180 -169t-217 -139.5 t-239 -94t-244 -34.5q-10 0 -25.5 1t-44.5 3q-47 -61 -67.5 -108.5t-20.5 -113.5zM250 1110q113 63 214 101t204.5 58.5t214 28t239.5 7.5h230q0 70 -30 121t-77 83.5t-106.5 49t-118.5 16.5q-47 0 -103.5 -9.5t-114 -26.5t-112.5 -40.5t-104 -52.5q-98 -59 -180 -142 t-156 -194zM1298 123q0 63 26 133t57.5 132.5t57 112.5t25.5 74q0 35 -29.5 48.5t-86.5 13.5q-35 0 -35 10q0 8 15 15.5t40 19.5q92 41 179 89t177.5 109.5t186.5 139.5t209 178q61 53 121.5 101.5t117 84t103.5 57t80 21.5q16 0 28.5 -3t12.5 -13q0 -4 -9.5 -9t-38.5 -16 q-61 -27 -156 -102.5t-214 -169.5q-145 -117 -331.5 -244t-428.5 -241q78 -16 118 -47t40 -80q0 -35 -25 -94.5t-53.5 -123t-53 -120t-24.5 -86.5q0 -27 16.5 -42.5t36.5 -15.5t47 11.5t64 38t87 70.5t118 110q8 6 20 19t25.5 26.5t23.5 24t15 10.5q6 0 6 -9 q0 -8 -20.5 -30.5t-49.5 -55.5q-37 -41 -85 -88t-100 -87t-103.5 -67.5t-94.5 -27.5q-51 0 -83 34t-32 89z" />
<glyph unicode="&#x41b;" horiz-adv-x="2238" d="M6 569q0 117 58.5 226.5t175.5 193.5q49 35 98 60.5t108.5 45t134 33t173.5 23.5q119 59 225 90t223 31q74 0 136.5 -16.5t108.5 -47t72.5 -78t26.5 -108.5q0 -78 -25.5 -151.5t-71.5 -143.5t-109.5 -134.5t-139.5 -121.5q-160 -123 -331 -190.5t-367 -67.5q-49 0 -87 4 t-104 16q61 -86 137 -125.5t189 -39.5q211 0 428 114.5t463 354.5l31 32q23 18 70.5 63.5t110 104t133.5 125t137.5 129t123.5 115.5t94 86q156 139 248 201.5t147 62.5q51 0 52 -39q0 -16 -13.5 -41.5t-33.5 -48.5q-14 -18 -50 -65.5t-81.5 -111t-95.5 -134t-95 -134 t-80 -113.5t-49 -71q-82 -123 -145.5 -226t-107.5 -182t-66.5 -130t-22.5 -70q0 -35 27 -35q20 0 52 18.5t68.5 49.5t77.5 69.5t82 79.5t71 72t34 31t4 -6q0 -10 -19.5 -36t-52.5 -61q-37 -41 -87 -88t-100 -88t-97.5 -68.5t-79.5 -27.5q-39 0 -59.5 27.5t-20.5 64.5 q0 45 16 102.5t43 117t58.5 118t60.5 107.5q197 283 338 447.5t225 256.5q20 23 46 50.5t48.5 51t37.5 42t15 22.5q0 10 -14 10q-25 0 -55.5 -15.5t-65 -39t-68.5 -53t-65 -58.5q-25 -23 -72 -74t-107 -115.5t-127 -138t-129 -141t-113.5 -125t-80.5 -88.5l-28 -32 q-86 -90 -151.5 -151.5t-121 -107t-103.5 -77t-99 -58.5q-137 -76 -263 -110.5t-249 -34.5q-78 0 -140.5 12.5t-117 42t-99.5 76.5t-86 115q-53 18 -100 49t-83 72t-57.5 92t-21.5 112zM33 569q0 -53 17.5 -97t48 -80t71.5 -62.5t86 -46.5q-10 39 -12 61t-2 53 q0 86 29.5 181.5t85 189.5t136 182t183.5 160q-113 -10 -219.5 -45t-198.5 -100q-35 -25 -75 -66t-73.5 -93t-55 -112.5t-21.5 -124.5zM270 406q0 -39 5.5 -66t17.5 -68q61 -14 109.5 -21t123.5 -7q117 0 241 37t230 94q154 80 254.5 173t158.5 181t82 164t24 125 q0 109 -85 168t-214 59q-102 0 -195.5 -23.5t-198.5 -70.5q41 -4 104.5 -14.5t114.5 -26.5q31 -10 53.5 -21.5t22.5 -25.5q0 -10 -10 -10q-14 0 -33.5 9t-54.5 19q-41 12 -103.5 22.5t-162.5 14.5q-111 -66 -200 -150.5t-152.5 -178t-97.5 -192.5t-34 -191z" />
</font>
</defs>
</svg>
